<?xml version="1.0" encoding="utf-8"?>
<!-- Generator: Adobe Illustrator 23.1.0, SVG Export Plug-In . SVG Version: 6.00 Build 0)  -->
<svg version="1.1" id="AssemblyLine" xmlns="http://www.w3.org/2000/svg" xmlns:xlink="http://www.w3.org/1999/xlink" x="0px"
	 y="0px" viewBox="0 0 886 216" style="enable-background:new 0 0 886 216;" xml:space="preserve">
<style type="text/css">
	.st57{fill:#506355;stroke:#000000;stroke-width:3;stroke-miterlimit:10;}
	.st58{fill:#AFAFAF;}
	.st59{fill:#9B9B9B;}
</style>
<g id="conveyer">
	<path class="st57" d="M448.97,57.12c121.78,0,243.57,0,365.35,0c29.53,0,50.32,20.46,50.66,50.03c0.09,8.15,0.76,16.37-0.48,24.46
		c-3.94,25.7-23.61,42.16-50.1,42.16c-217.08,0-434.15,0-651.23,0c-26.66,0-53.31,0.01-79.97,0c-29.01-0.02-50.13-20.98-50.18-50.05
		c-0.02-9.13-0.82-18.31,1-27.4c4.6-23.04,24.05-39.17,47.6-39.17C204.07,57.11,326.52,57.13,448.97,57.12z"/>
</g>
<g>
	<path d="M157.24,117.61c1.32,4.6-1.17,6.35-6.25,6.53c-4.65,0.17-7.57,7.54-4.81,11.4c1.47,2.06,5.12,3.85,3.88,6.27
		c-1.67,3.26-4.8,5.94-7.72,8.36c-1.86,1.54-3.03-1.21-4.56-1.91c-2.06-0.93-3.27-4.03-6.43-2.17c-3.17,1.87-7.3,2.55-6.56,7.89
		c0.22,1.58,0.5,4.46-1.87,5.06c-3.84,0.97-7.93,1.68-11.75,0.27c-1.56-0.57-1.05-2.97-1.18-4.6c-0.23-2.97-0.97-5.18-4.41-6.3
		c-3.43-1.11-6.34-2.1-8.81,1.36c-2.58,3.62-5.2,3.23-7.96,0.22c-0.78-0.86-1.58-1.76-2.53-2.4c-3.31-2.24-3.86-4.61-0.79-7.55
		c2.93-2.81,3.01-5.75,0.84-9.33c-1.57-2.59-3.14-4.15-6.22-3.68c-4.95,0.75-6.61-1.65-6.05-6.24c0.08-0.65,0.12-1.36-0.03-1.99
		c-1.22-5.2,1.57-6.93,6.09-6.83c2.78,0.06,4.34-0.92,4.98-3.64c0.68-2.88,3.08-5.58-0.3-8.55c-1.56-1.38-4.65-3.25-3.37-5.43
		c1.98-3.35,4.89-6.37,8-8.76c1.7-1.3,3.14,1.77,4.89,2.55c1.94,0.87,3.07,3.52,6.01,1.71c3.08-1.89,6.76-2.84,6.6-7.63
		c-0.06-1.78-1.03-4.71,1.46-5.22c3.83-0.79,7.99-1.99,11.75-0.45c1.97,0.8,1.22,3.91,1.72,5.93c1.32,5.33,7.66,7.81,11.92,4.56
		c1.78-1.36,3.57-4.7,5.44-3.62c3.35,1.94,6.2,5.02,8.64,8.11c1.3,1.65-1.15,3.18-2.16,4.57c-1.69,2.34-3.2,4.33-1.37,7.55
		c1.81,3.19,3.18,5.75,7.69,5.4C157.04,108.69,157.07,109.14,157.24,117.61z"/>
	<path class="st58" d="M141.54,149.07c-1.67-1.21-3.09-2.08-4.32-3.16c-2.41-2.14-4.77-2.44-7.66-0.74
		c-3.12,1.83-6.92,2.81-6.47,7.66c0.27,2.99,0.13,5.58-4.27,5.19c-3.54-0.31-7.75,1.01-7.56-4.78c0.11-3.33-1.18-5.27-4.52-6.02
		c-3.5-0.78-7.02-3.85-10.2,0.65c-2.39,3.38-4.68,2.95-7.59,0.19c-2.83-2.68-4.67-4.52-1.42-8.42c4.41-5.3,0.47-13.29-6.59-13.9
		c-3.48-0.3-5.5-1.4-5.08-5.41c0.31-2.99-1.55-6.22,4.07-6.77c7.92-0.77,10.92-9.6,5.35-15.47c-4.56-4.8,0.91-6.05,2.32-8.67
		c1.9-3.53,3.98-1.51,5.88,0.17c2.55,2.25,4.96,3.29,8.44,1.24c3.49-2.06,7.43-3.18,6.31-8.57c-0.54-2.6,0.25-4.98,3.57-4.14
		c2.89,0.73,7.98-3.17,8.27,3.59c0.14,3.29,0.74,6.07,4.65,7.16c3.97,1.11,7.78,3.11,11.07-1.28c1.76-2.34,3.72-3.28,5.84-0.28
		c1.73,2.44,6.68,3.36,2.85,8.17c-4.97,6.26-1.53,13.97,6.52,14.92c3.61,0.43,5.22,1.47,4.99,5.43c-0.2,3.4,0.33,6.07-4.53,6.72
		c-7.88,1.06-10.28,9.13-5.17,15.51c0.89,1.1,3.22,2.12,1.72,4.04C146.08,144.55,143.77,146.69,141.54,149.07z"/>
	<path class="st59" d="M115.61,132.18c-7.96-0.09-14.38-6.51-14.27-14.28c0.11-7.94,6.43-14.05,14.47-14.01
		c7.97,0.05,14.22,6.29,14.24,14.23C130.07,125.89,123.53,132.26,115.61,132.18z"/>
	<path d="M128.21,118.28c-0.08,7.11-5.61,12.6-12.63,12.54c-7.17-0.06-12.67-5.91-12.49-13.28c0.17-6.77,5.76-12.33,12.45-12.38
		C122.64,105.1,128.29,110.96,128.21,118.28z"/>
</g>
<g>
	<path d="M251.01,115.53c1.32,4.6-1.17,6.35-6.25,6.53c-4.65,0.17-7.57,7.54-4.81,11.4c1.47,2.06,5.12,3.85,3.88,6.27
		c-1.67,3.26-4.8,5.94-7.72,8.36c-1.86,1.54-3.03-1.21-4.56-1.91c-2.06-0.93-3.27-4.03-6.43-2.17c-3.17,1.87-7.3,2.55-6.56,7.89
		c0.22,1.58,0.5,4.46-1.87,5.06c-3.84,0.97-7.93,1.68-11.75,0.27c-1.56-0.57-1.05-2.97-1.18-4.6c-0.23-2.97-0.97-5.18-4.41-6.3
		c-3.43-1.11-6.34-2.1-8.81,1.36c-2.58,3.62-5.2,3.23-7.96,0.22c-0.78-0.86-1.58-1.76-2.53-2.4c-3.31-2.24-3.86-4.61-0.79-7.55
		c2.93-2.81,3.01-5.75,0.84-9.33c-1.57-2.59-3.14-4.15-6.22-3.68c-4.95,0.75-6.61-1.65-6.05-6.24c0.08-0.65,0.12-1.36-0.03-1.99
		c-1.22-5.2,1.57-6.93,6.09-6.83c2.78,0.06,4.34-0.92,4.98-3.64c0.68-2.88,3.08-5.58-0.3-8.55c-1.56-1.38-4.65-3.25-3.37-5.43
		c1.98-3.35,4.89-6.37,8-8.76c1.7-1.3,3.14,1.77,4.89,2.55c1.94,0.87,3.07,3.52,6.01,1.71c3.08-1.89,6.76-2.84,6.6-7.63
		c-0.06-1.78-1.03-4.71,1.46-5.22c3.83-0.79,7.99-1.99,11.75-0.45c1.97,0.8,1.22,3.91,1.72,5.93c1.32,5.33,7.66,7.81,11.92,4.56
		c1.78-1.36,3.57-4.7,5.44-3.62c3.35,1.94,6.2,5.02,8.64,8.11c1.3,1.65-1.15,3.17-2.16,4.57c-1.69,2.34-3.2,4.33-1.37,7.55
		c1.81,3.19,3.18,5.75,7.69,5.4C250.81,106.61,250.84,107.07,251.01,115.53z"/>
	<path class="st58" d="M235.31,146.99c-1.67-1.21-3.09-2.08-4.32-3.16c-2.41-2.14-4.77-2.44-7.66-0.74
		c-3.12,1.83-6.92,2.81-6.47,7.66c0.27,2.99,0.13,5.58-4.27,5.19c-3.54-0.31-7.75,1.01-7.56-4.78c0.11-3.33-1.18-5.27-4.52-6.02
		c-3.5-0.78-7.02-3.85-10.2,0.65c-2.39,3.38-4.68,2.95-7.59,0.19c-2.83-2.68-4.67-4.52-1.42-8.42c4.41-5.3,0.47-13.29-6.59-13.9
		c-3.48-0.3-5.5-1.4-5.08-5.41c0.31-2.99-1.55-6.22,4.07-6.77c7.92-0.77,10.92-9.6,5.35-15.47c-4.56-4.8,0.91-6.05,2.32-8.67
		c1.9-3.53,3.98-1.51,5.88,0.17c2.55,2.25,4.96,3.29,8.44,1.24c3.49-2.06,7.43-3.18,6.31-8.57c-0.54-2.6,0.26-4.98,3.57-4.14
		c2.89,0.73,7.98-3.17,8.27,3.59c0.14,3.29,0.74,6.07,4.65,7.16c3.97,1.11,7.78,3.11,11.07-1.28c1.76-2.34,3.72-3.28,5.84-0.28
		c1.73,2.44,6.68,3.36,2.85,8.17c-4.97,6.26-1.53,13.97,6.52,14.92c3.61,0.43,5.22,1.47,4.99,5.43c-0.2,3.4,0.33,6.07-4.53,6.72
		c-7.88,1.06-10.28,9.13-5.17,15.51c0.89,1.1,3.22,2.12,1.72,4.04C239.85,142.48,237.54,144.61,235.31,146.99z"/>
	<path class="st59" d="M209.38,130.1c-7.96-0.09-14.38-6.51-14.27-14.28c0.11-7.94,6.43-14.05,14.47-14.01
		c7.97,0.05,14.22,6.29,14.24,14.23C223.85,123.81,217.3,130.19,209.38,130.1z"/>
	<path d="M221.98,116.2c-0.08,7.11-5.61,12.6-12.63,12.54c-7.17-0.06-12.67-5.91-12.49-13.28c0.17-6.77,5.76-12.33,12.45-12.38
		C216.41,103.02,222.06,108.88,221.98,116.2z"/>
</g>
<g>
	<path d="M346.01,117.53c1.32,4.6-1.17,6.35-6.25,6.53c-4.65,0.17-7.57,7.54-4.81,11.4c1.47,2.06,5.12,3.85,3.88,6.27
		c-1.67,3.26-4.8,5.94-7.72,8.36c-1.86,1.54-3.03-1.21-4.56-1.91c-2.06-0.93-3.27-4.03-6.43-2.17c-3.17,1.87-7.3,2.55-6.56,7.89
		c0.22,1.58,0.5,4.46-1.87,5.06c-3.84,0.97-7.93,1.68-11.75,0.27c-1.56-0.57-1.05-2.97-1.18-4.6c-0.23-2.97-0.97-5.18-4.41-6.3
		c-3.43-1.11-6.34-2.1-8.81,1.36c-2.58,3.62-5.2,3.23-7.96,0.22c-0.78-0.86-1.58-1.76-2.53-2.4c-3.31-2.24-3.86-4.61-0.79-7.55
		c2.93-2.81,3.01-5.75,0.84-9.33c-1.57-2.59-3.14-4.15-6.22-3.68c-4.95,0.75-6.61-1.65-6.05-6.24c0.08-0.65,0.12-1.36-0.03-1.99
		c-1.22-5.2,1.57-6.93,6.09-6.83c2.78,0.06,4.34-0.92,4.98-3.64c0.68-2.88,3.08-5.58-0.3-8.55c-1.56-1.38-4.65-3.25-3.37-5.43
		c1.98-3.35,4.89-6.37,8-8.76c1.7-1.3,3.14,1.77,4.89,2.55c1.94,0.87,3.07,3.52,6.01,1.71c3.08-1.89,6.76-2.84,6.6-7.63
		c-0.06-1.78-1.03-4.71,1.46-5.22c3.83-0.79,7.99-1.99,11.75-0.45c1.97,0.8,1.22,3.91,1.72,5.93c1.32,5.33,7.66,7.81,11.92,4.56
		c1.78-1.36,3.57-4.7,5.44-3.62c3.35,1.94,6.2,5.02,8.64,8.11c1.3,1.65-1.15,3.17-2.16,4.57c-1.69,2.34-3.2,4.33-1.37,7.55
		c1.81,3.19,3.18,5.75,7.69,5.4C345.81,108.61,345.84,109.07,346.01,117.53z"/>
	<path class="st58" d="M330.31,148.99c-1.67-1.21-3.09-2.08-4.32-3.16c-2.41-2.14-4.77-2.44-7.66-0.74
		c-3.12,1.83-6.92,2.81-6.47,7.66c0.27,2.99,0.13,5.58-4.27,5.19c-3.54-0.31-7.75,1.01-7.56-4.78c0.11-3.33-1.18-5.27-4.52-6.02
		c-3.5-0.78-7.02-3.85-10.2,0.65c-2.39,3.38-4.68,2.95-7.59,0.19c-2.83-2.68-4.67-4.52-1.42-8.42c4.41-5.3,0.47-13.29-6.59-13.9
		c-3.48-0.3-5.5-1.4-5.08-5.41c0.31-2.99-1.55-6.22,4.07-6.77c7.92-0.77,10.92-9.6,5.35-15.47c-4.56-4.8,0.91-6.05,2.32-8.67
		c1.9-3.53,3.98-1.51,5.88,0.17c2.55,2.25,4.96,3.29,8.44,1.24c3.49-2.06,7.43-3.18,6.31-8.57c-0.54-2.6,0.26-4.98,3.57-4.14
		c2.89,0.73,7.98-3.17,8.27,3.59c0.14,3.29,0.74,6.07,4.65,7.16c3.97,1.11,7.78,3.11,11.07-1.28c1.76-2.34,3.72-3.28,5.84-0.28
		c1.73,2.44,6.68,3.36,2.85,8.17c-4.97,6.26-1.53,13.97,6.52,14.92c3.61,0.43,5.22,1.47,4.99,5.43c-0.2,3.4,0.33,6.07-4.53,6.72
		c-7.88,1.06-10.28,9.13-5.17,15.51c0.89,1.1,3.22,2.12,1.72,4.04C334.85,144.48,332.54,146.61,330.31,148.99z"/>
	<path class="st59" d="M304.38,132.1c-7.96-0.09-14.38-6.51-14.27-14.28c0.11-7.94,6.43-14.05,14.47-14.01
		c7.97,0.05,14.22,6.29,14.24,14.23C318.85,125.81,312.3,132.19,304.38,132.1z"/>
	<path d="M316.98,118.2c-0.08,7.11-5.61,12.6-12.63,12.54c-7.17-0.06-12.67-5.91-12.49-13.28c0.17-6.77,5.76-12.33,12.45-12.38
		C311.41,105.02,317.06,110.88,316.98,118.2z"/>
</g>
<g>
	<path d="M437.01,115.53c1.32,4.6-1.17,6.35-6.25,6.53c-4.65,0.17-7.57,7.54-4.81,11.4c1.47,2.06,5.12,3.85,3.88,6.27
		c-1.67,3.26-4.8,5.94-7.72,8.36c-1.86,1.54-3.03-1.21-4.56-1.91c-2.06-0.93-3.27-4.03-6.43-2.17c-3.17,1.87-7.3,2.55-6.56,7.89
		c0.22,1.58,0.5,4.46-1.87,5.06c-3.84,0.97-7.93,1.68-11.75,0.27c-1.56-0.57-1.05-2.97-1.18-4.6c-0.23-2.97-0.97-5.18-4.41-6.3
		c-3.43-1.11-6.34-2.1-8.81,1.36c-2.58,3.62-5.2,3.23-7.96,0.22c-0.78-0.86-1.58-1.76-2.53-2.4c-3.31-2.24-3.86-4.61-0.79-7.55
		c2.93-2.81,3.01-5.75,0.84-9.33c-1.57-2.59-3.14-4.15-6.22-3.68c-4.95,0.75-6.61-1.65-6.05-6.24c0.08-0.65,0.12-1.36-0.03-1.99
		c-1.22-5.2,1.57-6.93,6.09-6.83c2.78,0.06,4.34-0.92,4.98-3.64c0.68-2.88,3.08-5.58-0.3-8.55c-1.56-1.38-4.65-3.25-3.37-5.43
		c1.98-3.35,4.89-6.37,8-8.76c1.7-1.3,3.14,1.77,4.89,2.55c1.94,0.87,3.07,3.52,6.01,1.71c3.08-1.89,6.76-2.84,6.6-7.63
		c-0.06-1.78-1.03-4.71,1.46-5.22c3.83-0.79,7.99-1.99,11.75-0.45c1.97,0.8,1.22,3.91,1.72,5.93c1.32,5.33,7.66,7.81,11.92,4.56
		c1.78-1.36,3.57-4.7,5.44-3.62c3.35,1.94,6.2,5.02,8.64,8.11c1.3,1.65-1.15,3.17-2.16,4.57c-1.69,2.34-3.2,4.33-1.37,7.55
		c1.81,3.19,3.18,5.75,7.69,5.4C436.81,106.61,436.84,107.07,437.01,115.53z"/>
	<path class="st58" d="M421.31,146.99c-1.67-1.21-3.09-2.08-4.32-3.16c-2.41-2.14-4.77-2.44-7.66-0.74
		c-3.12,1.83-6.92,2.81-6.47,7.66c0.27,2.99,0.13,5.58-4.27,5.19c-3.54-0.31-7.75,1.01-7.56-4.78c0.11-3.33-1.18-5.27-4.52-6.02
		c-3.5-0.78-7.02-3.85-10.2,0.65c-2.39,3.38-4.68,2.95-7.59,0.19c-2.83-2.68-4.67-4.52-1.42-8.42c4.41-5.3,0.47-13.29-6.59-13.9
		c-3.48-0.3-5.5-1.4-5.08-5.41c0.31-2.99-1.55-6.22,4.07-6.77c7.92-0.77,10.92-9.6,5.35-15.47c-4.56-4.8,0.91-6.05,2.32-8.67
		c1.9-3.53,3.98-1.51,5.88,0.17c2.55,2.25,4.96,3.29,8.44,1.24c3.49-2.06,7.43-3.18,6.31-8.57c-0.54-2.6,0.26-4.98,3.57-4.14
		c2.89,0.73,7.98-3.17,8.27,3.59c0.14,3.29,0.74,6.07,4.65,7.16c3.97,1.11,7.78,3.11,11.07-1.28c1.76-2.34,3.72-3.28,5.84-0.28
		c1.73,2.44,6.68,3.36,2.85,8.17c-4.97,6.26-1.53,13.97,6.52,14.92c3.61,0.43,5.22,1.47,4.99,5.43c-0.2,3.4,0.33,6.07-4.53,6.72
		c-7.88,1.06-10.28,9.13-5.17,15.51c0.89,1.1,3.22,2.12,1.72,4.04C425.85,142.48,423.54,144.61,421.31,146.99z"/>
	<path class="st59" d="M395.38,130.1c-7.96-0.09-14.38-6.51-14.27-14.28c0.11-7.94,6.43-14.05,14.47-14.01
		c7.97,0.05,14.22,6.29,14.24,14.23C409.85,123.81,403.3,130.19,395.38,130.1z"/>
	<path d="M407.98,116.2c-0.08,7.11-5.61,12.6-12.63,12.54c-7.17-0.06-12.67-5.91-12.49-13.28c0.17-6.77,5.76-12.33,12.45-12.38
		C402.41,103.02,408.06,108.88,407.98,116.2z"/>
</g>
<g>
	<path d="M528.01,115.53c1.32,4.6-1.17,6.35-6.25,6.53c-4.65,0.17-7.57,7.54-4.81,11.4c1.47,2.06,5.12,3.85,3.88,6.27
		c-1.67,3.26-4.8,5.94-7.72,8.36c-1.86,1.54-3.03-1.21-4.56-1.91c-2.06-0.93-3.27-4.03-6.43-2.17c-3.17,1.87-7.3,2.55-6.56,7.89
		c0.22,1.58,0.5,4.46-1.87,5.06c-3.84,0.97-7.93,1.68-11.75,0.27c-1.56-0.57-1.05-2.97-1.18-4.6c-0.23-2.97-0.97-5.18-4.41-6.3
		c-3.43-1.11-6.34-2.1-8.81,1.36c-2.58,3.62-5.2,3.23-7.96,0.22c-0.78-0.86-1.58-1.76-2.53-2.4c-3.31-2.24-3.86-4.61-0.79-7.55
		c2.93-2.81,3.01-5.75,0.84-9.33c-1.57-2.59-3.14-4.15-6.22-3.68c-4.95,0.75-6.61-1.65-6.05-6.24c0.08-0.65,0.12-1.36-0.03-1.99
		c-1.22-5.2,1.57-6.93,6.09-6.83c2.78,0.06,4.34-0.92,4.98-3.64c0.68-2.88,3.08-5.58-0.3-8.55c-1.56-1.38-4.65-3.25-3.37-5.43
		c1.98-3.35,4.89-6.37,8-8.76c1.7-1.3,3.14,1.77,4.89,2.55c1.94,0.87,3.07,3.52,6.01,1.71c3.08-1.89,6.76-2.84,6.6-7.63
		c-0.06-1.78-1.03-4.71,1.46-5.22c3.83-0.79,7.99-1.99,11.75-0.45c1.97,0.8,1.22,3.91,1.72,5.93c1.32,5.33,7.66,7.81,11.92,4.56
		c1.78-1.36,3.57-4.7,5.44-3.62c3.35,1.94,6.2,5.02,8.64,8.11c1.3,1.65-1.15,3.17-2.16,4.57c-1.69,2.34-3.2,4.33-1.37,7.55
		c1.81,3.19,3.18,5.75,7.69,5.4C527.81,106.61,527.84,107.07,528.01,115.53z"/>
	<path class="st58" d="M512.31,146.99c-1.67-1.21-3.09-2.08-4.32-3.16c-2.41-2.14-4.77-2.44-7.66-0.74
		c-3.12,1.83-6.92,2.81-6.47,7.66c0.27,2.99,0.13,5.58-4.27,5.19c-3.54-0.31-7.75,1.01-7.56-4.78c0.11-3.33-1.18-5.27-4.52-6.02
		c-3.5-0.78-7.02-3.85-10.2,0.65c-2.39,3.38-4.68,2.95-7.59,0.19c-2.83-2.68-4.67-4.52-1.42-8.42c4.41-5.3,0.47-13.29-6.59-13.9
		c-3.48-0.3-5.5-1.4-5.08-5.41c0.31-2.99-1.55-6.22,4.07-6.77c7.92-0.77,10.92-9.6,5.35-15.47c-4.56-4.8,0.91-6.05,2.32-8.67
		c1.9-3.53,3.98-1.51,5.88,0.17c2.55,2.25,4.96,3.29,8.44,1.24c3.49-2.06,7.43-3.18,6.31-8.57c-0.54-2.6,0.26-4.98,3.57-4.14
		c2.89,0.73,7.98-3.17,8.27,3.59c0.14,3.29,0.74,6.07,4.65,7.16c3.97,1.11,7.78,3.11,11.07-1.28c1.76-2.34,3.72-3.28,5.84-0.28
		c1.73,2.44,6.68,3.36,2.85,8.17c-4.97,6.26-1.53,13.97,6.52,14.92c3.61,0.43,5.22,1.47,4.99,5.43c-0.2,3.4,0.33,6.07-4.53,6.72
		c-7.88,1.06-10.28,9.13-5.17,15.51c0.89,1.1,3.22,2.12,1.72,4.04C516.85,142.48,514.54,144.61,512.31,146.99z"/>
	<path class="st59" d="M486.38,130.1c-7.96-0.09-14.38-6.51-14.27-14.28c0.11-7.94,6.43-14.05,14.47-14.01
		c7.97,0.05,14.22,6.29,14.24,14.23C500.85,123.81,494.3,130.19,486.38,130.1z"/>
	<path d="M498.98,116.2c-0.08,7.11-5.61,12.6-12.63,12.54c-7.17-0.06-12.67-5.91-12.49-13.28c0.17-6.77,5.76-12.33,12.45-12.38
		C493.41,103.02,499.06,108.88,498.98,116.2z"/>
</g>
<g>
	<path d="M622.01,115.53c1.32,4.6-1.17,6.35-6.25,6.53c-4.65,0.17-7.57,7.54-4.81,11.4c1.47,2.06,5.12,3.85,3.88,6.27
		c-1.67,3.26-4.8,5.94-7.72,8.36c-1.86,1.54-3.03-1.21-4.56-1.91c-2.06-0.93-3.27-4.03-6.43-2.17c-3.17,1.87-7.3,2.55-6.56,7.89
		c0.22,1.58,0.5,4.46-1.87,5.06c-3.84,0.97-7.93,1.68-11.75,0.27c-1.56-0.57-1.05-2.97-1.18-4.6c-0.23-2.97-0.97-5.18-4.41-6.3
		c-3.43-1.11-6.34-2.1-8.81,1.36c-2.58,3.62-5.2,3.23-7.96,0.22c-0.78-0.86-1.58-1.76-2.53-2.4c-3.31-2.24-3.86-4.61-0.79-7.55
		c2.93-2.81,3.01-5.75,0.84-9.33c-1.57-2.59-3.14-4.15-6.22-3.68c-4.95,0.75-6.61-1.65-6.05-6.24c0.08-0.65,0.12-1.36-0.03-1.99
		c-1.22-5.2,1.57-6.93,6.09-6.83c2.78,0.06,4.34-0.92,4.98-3.64c0.68-2.88,3.08-5.58-0.3-8.55c-1.56-1.38-4.65-3.25-3.37-5.43
		c1.98-3.35,4.89-6.37,8-8.76c1.7-1.3,3.14,1.77,4.89,2.55c1.94,0.87,3.07,3.52,6.01,1.71c3.08-1.89,6.76-2.84,6.6-7.63
		c-0.06-1.78-1.03-4.71,1.46-5.22c3.83-0.79,7.99-1.99,11.75-0.45c1.97,0.8,1.22,3.91,1.72,5.93c1.32,5.33,7.66,7.81,11.92,4.56
		c1.78-1.36,3.57-4.7,5.44-3.62c3.35,1.94,6.2,5.02,8.64,8.11c1.3,1.65-1.15,3.17-2.16,4.57c-1.69,2.34-3.2,4.33-1.37,7.55
		c1.81,3.19,3.18,5.75,7.69,5.4C621.81,106.61,621.84,107.07,622.01,115.53z"/>
	<path class="st58" d="M606.31,146.99c-1.67-1.21-3.09-2.08-4.32-3.16c-2.41-2.14-4.77-2.44-7.66-0.74
		c-3.12,1.83-6.92,2.81-6.47,7.66c0.27,2.99,0.13,5.58-4.27,5.19c-3.54-0.31-7.75,1.01-7.56-4.78c0.11-3.33-1.18-5.27-4.52-6.02
		c-3.5-0.78-7.02-3.85-10.2,0.65c-2.39,3.38-4.68,2.95-7.59,0.19c-2.83-2.68-4.67-4.52-1.42-8.42c4.41-5.3,0.47-13.29-6.59-13.9
		c-3.48-0.3-5.5-1.4-5.08-5.41c0.31-2.99-1.55-6.22,4.07-6.77c7.92-0.77,10.92-9.6,5.35-15.47c-4.56-4.8,0.91-6.05,2.32-8.67
		c1.9-3.53,3.98-1.51,5.88,0.17c2.55,2.25,4.96,3.29,8.44,1.24c3.49-2.06,7.43-3.18,6.31-8.57c-0.54-2.6,0.26-4.98,3.57-4.14
		c2.89,0.73,7.98-3.17,8.27,3.59c0.14,3.29,0.74,6.07,4.65,7.16c3.97,1.11,7.78,3.11,11.07-1.28c1.76-2.34,3.72-3.28,5.84-0.28
		c1.73,2.44,6.68,3.36,2.85,8.17c-4.97,6.26-1.53,13.97,6.52,14.92c3.61,0.43,5.22,1.47,4.99,5.43c-0.2,3.4,0.33,6.07-4.53,6.72
		c-7.88,1.06-10.28,9.13-5.17,15.51c0.89,1.1,3.22,2.12,1.72,4.04C610.85,142.48,608.54,144.61,606.31,146.99z"/>
	<path class="st59" d="M580.38,130.1c-7.96-0.09-14.38-6.51-14.27-14.28c0.11-7.94,6.43-14.05,14.47-14.01
		c7.97,0.05,14.22,6.29,14.24,14.23C594.85,123.81,588.3,130.19,580.38,130.1z"/>
	<path d="M592.98,116.2c-0.08,7.11-5.61,12.6-12.63,12.54c-7.17-0.06-12.67-5.91-12.49-13.28c0.17-6.77,5.76-12.33,12.45-12.38
		C587.41,103.02,593.06,108.88,592.98,116.2z"/>
</g>
<g>
	<path d="M720.01,115.53c1.32,4.6-1.17,6.35-6.25,6.53c-4.65,0.17-7.57,7.54-4.81,11.4c1.47,2.06,5.12,3.85,3.88,6.27
		c-1.67,3.26-4.8,5.94-7.72,8.36c-1.86,1.54-3.03-1.21-4.56-1.91c-2.06-0.93-3.27-4.03-6.43-2.17c-3.17,1.87-7.3,2.55-6.56,7.89
		c0.22,1.58,0.5,4.46-1.87,5.06c-3.84,0.97-7.93,1.68-11.75,0.27c-1.56-0.57-1.05-2.97-1.18-4.6c-0.23-2.97-0.97-5.18-4.41-6.3
		c-3.43-1.11-6.34-2.1-8.81,1.36c-2.58,3.62-5.2,3.23-7.96,0.22c-0.78-0.86-1.58-1.76-2.53-2.4c-3.31-2.24-3.86-4.61-0.79-7.55
		c2.93-2.81,3.01-5.75,0.84-9.33c-1.57-2.59-3.14-4.15-6.22-3.68c-4.95,0.75-6.61-1.65-6.05-6.24c0.08-0.65,0.12-1.36-0.03-1.99
		c-1.22-5.2,1.57-6.93,6.09-6.83c2.78,0.06,4.34-0.92,4.98-3.64c0.68-2.88,3.08-5.58-0.3-8.55c-1.56-1.38-4.65-3.25-3.37-5.43
		c1.98-3.35,4.89-6.37,8-8.76c1.7-1.3,3.14,1.77,4.89,2.55c1.94,0.87,3.07,3.52,6.01,1.71c3.08-1.89,6.76-2.84,6.6-7.63
		c-0.06-1.78-1.03-4.71,1.46-5.22c3.83-0.79,7.99-1.99,11.75-0.45c1.97,0.8,1.22,3.91,1.72,5.93c1.32,5.33,7.66,7.81,11.92,4.56
		c1.78-1.36,3.57-4.7,5.44-3.62c3.35,1.94,6.2,5.02,8.64,8.11c1.3,1.65-1.15,3.17-2.16,4.57c-1.69,2.34-3.2,4.33-1.37,7.55
		c1.81,3.19,3.18,5.75,7.69,5.4C719.81,106.61,719.84,107.07,720.01,115.53z"/>
	<path class="st58" d="M704.31,146.99c-1.67-1.21-3.09-2.08-4.32-3.16c-2.41-2.14-4.77-2.44-7.66-0.74
		c-3.12,1.83-6.92,2.81-6.47,7.66c0.27,2.99,0.13,5.58-4.27,5.19c-3.54-0.31-7.75,1.01-7.56-4.78c0.11-3.33-1.18-5.27-4.52-6.02
		c-3.5-0.78-7.02-3.85-10.2,0.65c-2.39,3.38-4.68,2.95-7.59,0.19c-2.83-2.68-4.67-4.52-1.42-8.42c4.41-5.3,0.47-13.29-6.59-13.9
		c-3.48-0.3-5.5-1.4-5.08-5.41c0.31-2.99-1.55-6.22,4.07-6.77c7.92-0.77,10.92-9.6,5.35-15.47c-4.56-4.8,0.91-6.05,2.32-8.67
		c1.9-3.53,3.98-1.51,5.88,0.17c2.55,2.25,4.96,3.29,8.44,1.24c3.49-2.06,7.43-3.18,6.31-8.57c-0.54-2.6,0.26-4.98,3.57-4.14
		c2.89,0.73,7.98-3.17,8.27,3.59c0.14,3.29,0.74,6.07,4.65,7.16c3.97,1.11,7.78,3.11,11.07-1.28c1.76-2.34,3.72-3.28,5.84-0.28
		c1.73,2.44,6.68,3.36,2.85,8.17c-4.97,6.26-1.53,13.97,6.52,14.92c3.61,0.43,5.22,1.47,4.99,5.43c-0.2,3.4,0.33,6.07-4.53,6.72
		c-7.88,1.06-10.28,9.13-5.17,15.51c0.89,1.1,3.22,2.12,1.72,4.04C708.85,142.48,706.54,144.61,704.31,146.99z"/>
	<path class="st59" d="M678.38,130.1c-7.96-0.09-14.38-6.51-14.27-14.28c0.11-7.94,6.43-14.05,14.47-14.01
		c7.97,0.05,14.22,6.29,14.24,14.23C692.85,123.81,686.3,130.19,678.38,130.1z"/>
	<path d="M690.98,116.2c-0.08,7.11-5.61,12.6-12.63,12.54c-7.17-0.06-12.67-5.91-12.49-13.28c0.17-6.77,5.76-12.33,12.45-12.38
		C685.41,103.02,691.06,108.88,690.98,116.2z"/>
</g>
<g>
	<path d="M819.01,115.53c1.32,4.6-1.17,6.35-6.25,6.53c-4.65,0.17-7.57,7.54-4.81,11.4c1.47,2.06,5.12,3.85,3.88,6.27
		c-1.67,3.26-4.8,5.94-7.72,8.36c-1.86,1.54-3.03-1.21-4.56-1.91c-2.06-0.93-3.27-4.03-6.43-2.17c-3.17,1.87-7.3,2.55-6.56,7.89
		c0.22,1.58,0.5,4.46-1.87,5.06c-3.84,0.97-7.93,1.68-11.75,0.27c-1.56-0.57-1.05-2.97-1.18-4.6c-0.23-2.97-0.97-5.18-4.41-6.3
		c-3.43-1.11-6.34-2.1-8.81,1.36c-2.58,3.62-5.2,3.23-7.96,0.22c-0.78-0.86-1.58-1.76-2.53-2.4c-3.31-2.24-3.86-4.61-0.79-7.55
		c2.93-2.81,3.01-5.75,0.84-9.33c-1.57-2.59-3.14-4.15-6.22-3.68c-4.95,0.75-6.61-1.65-6.05-6.24c0.08-0.65,0.12-1.36-0.03-1.99
		c-1.22-5.2,1.57-6.93,6.09-6.83c2.78,0.06,4.34-0.92,4.98-3.64c0.68-2.88,3.08-5.58-0.3-8.55c-1.56-1.38-4.65-3.25-3.37-5.43
		c1.98-3.35,4.89-6.37,8-8.76c1.7-1.3,3.14,1.77,4.89,2.55c1.94,0.87,3.07,3.52,6.01,1.71c3.08-1.89,6.76-2.84,6.6-7.63
		c-0.06-1.78-1.03-4.71,1.46-5.22c3.83-0.79,7.99-1.99,11.75-0.45c1.97,0.8,1.22,3.91,1.72,5.93c1.32,5.33,7.66,7.81,11.92,4.56
		c1.78-1.36,3.57-4.7,5.44-3.62c3.35,1.94,6.2,5.02,8.64,8.11c1.3,1.65-1.15,3.17-2.16,4.57c-1.69,2.34-3.2,4.33-1.37,7.55
		c1.81,3.19,3.18,5.75,7.69,5.4C818.81,106.61,818.84,107.07,819.01,115.53z"/>
	<path class="st58" d="M803.31,146.99c-1.67-1.21-3.09-2.08-4.32-3.16c-2.41-2.14-4.77-2.44-7.66-0.74
		c-3.12,1.83-6.92,2.81-6.47,7.66c0.27,2.99,0.13,5.58-4.27,5.19c-3.54-0.31-7.75,1.01-7.56-4.78c0.11-3.33-1.18-5.27-4.52-6.02
		c-3.5-0.78-7.02-3.85-10.2,0.65c-2.39,3.38-4.68,2.95-7.59,0.19c-2.83-2.68-4.67-4.52-1.42-8.42c4.41-5.3,0.47-13.29-6.59-13.9
		c-3.48-0.3-5.5-1.4-5.08-5.41c0.31-2.99-1.55-6.22,4.07-6.77c7.92-0.77,10.92-9.6,5.35-15.47c-4.56-4.8,0.91-6.05,2.32-8.67
		c1.9-3.53,3.98-1.51,5.88,0.17c2.55,2.25,4.96,3.29,8.44,1.24c3.49-2.06,7.43-3.18,6.31-8.57c-0.54-2.6,0.26-4.98,3.57-4.14
		c2.89,0.73,7.98-3.17,8.27,3.59c0.14,3.29,0.74,6.07,4.65,7.16c3.97,1.11,7.78,3.11,11.07-1.28c1.76-2.34,3.72-3.28,5.84-0.28
		c1.73,2.44,6.68,3.36,2.85,8.17c-4.97,6.26-1.53,13.97,6.52,14.92c3.61,0.43,5.22,1.47,4.99,5.43c-0.2,3.4,0.33,6.07-4.53,6.72
		c-7.88,1.06-10.28,9.13-5.17,15.51c0.89,1.1,3.22,2.12,1.72,4.04C807.85,142.48,805.54,144.61,803.31,146.99z"/>
	<path class="st59" d="M777.38,130.1c-7.96-0.09-14.38-6.51-14.27-14.28c0.11-7.94,6.43-14.05,14.47-14.01
		c7.97,0.05,14.22,6.29,14.24,14.23C791.85,123.81,785.3,130.19,777.38,130.1z"/>
	<path d="M789.98,116.2c-0.08,7.11-5.61,12.6-12.63,12.54c-7.17-0.06-12.67-5.91-12.49-13.28c0.17-6.77,5.76-12.33,12.45-12.38
		C784.41,103.02,790.06,108.88,789.98,116.2z"/>
</g>
</svg>
