<?xml version="1.0" encoding="utf-8"?>
<!-- Generator: Adobe Illustrator 23.1.0, SVG Export Plug-In . SVG Version: 6.00 Build 0)  -->
<svg version="1.1" id="AssemblyLine" xmlns="http://www.w3.org/2000/svg" xmlns:xlink="http://www.w3.org/1999/xlink" x="0px"
	 y="0px" viewBox="0 0 886 216" style="enable-background:new 0 0 886 216;" xml:space="preserve">
<style type="text/css">
	.st55{fill:#506355;stroke:#000000;stroke-width:3;stroke-miterlimit:10;}
	.st56{fill:#AFAFAF;}
	.st57{fill:#9B9B9B;}
</style>
<g id="conveyer">
	<path class="st55" d="M449.93,57.12c139.28,0,278.56,0,417.84,0c33.78,0,57.55,20.46,57.93,50.03c0.11,8.15,0.87,16.37-0.55,24.46
		c-4.5,25.7-27,42.16-57.29,42.16c-248.27,0-496.53,0-744.8,0c-30.49,0-60.97,0.01-91.46,0c-33.18-0.02-57.33-20.98-57.39-50.05
		c-0.02-9.13-0.93-18.31,1.14-27.4c5.26-23.04,27.5-39.17,54.44-39.17C169.84,57.11,309.88,57.13,449.93,57.12z"/>
</g>
<g>
	<path d="M211.24,118.61c1.32,4.6-1.17,6.35-6.25,6.53c-4.65,0.17-7.57,7.54-4.81,11.4c1.47,2.06,5.12,3.85,3.88,6.27
		c-1.67,3.26-4.8,5.94-7.72,8.36c-1.86,1.54-3.03-1.21-4.56-1.91c-2.06-0.93-3.27-4.03-6.43-2.17c-3.17,1.87-7.3,2.55-6.56,7.89
		c0.22,1.58,0.5,4.46-1.87,5.06c-3.84,0.97-7.93,1.68-11.75,0.27c-1.56-0.57-1.05-2.97-1.18-4.6c-0.23-2.97-0.97-5.18-4.41-6.3
		c-3.43-1.11-6.34-2.1-8.81,1.36c-2.58,3.62-5.2,3.23-7.96,0.22c-0.78-0.86-1.58-1.76-2.53-2.4c-3.31-2.24-3.86-4.61-0.79-7.55
		c2.93-2.81,3.01-5.75,0.84-9.33c-1.57-2.59-3.14-4.15-6.22-3.68c-4.95,0.75-6.61-1.65-6.05-6.24c0.08-0.65,0.12-1.36-0.03-1.99
		c-1.22-5.2,1.57-6.93,6.09-6.83c2.78,0.06,4.34-0.92,4.98-3.64c0.68-2.88,3.08-5.58-0.3-8.55c-1.56-1.38-4.65-3.25-3.37-5.43
		c1.98-3.35,4.89-6.37,8-8.76c1.7-1.3,3.14,1.77,4.89,2.55c1.94,0.87,3.07,3.52,6.01,1.71c3.08-1.89,6.76-2.84,6.6-7.63
		c-0.06-1.78-1.03-4.71,1.46-5.22c3.83-0.79,7.99-1.99,11.75-0.45c1.97,0.8,1.22,3.91,1.72,5.93c1.32,5.33,7.66,7.81,11.92,4.56
		c1.78-1.36,3.57-4.7,5.44-3.62c3.35,1.94,6.2,5.02,8.64,8.11c1.3,1.65-1.15,3.18-2.16,4.57c-1.69,2.34-3.2,4.33-1.37,7.55
		c1.81,3.19,3.18,5.75,7.69,5.4C211.04,109.69,211.07,110.14,211.24,118.61z"/>
	<path class="st56" d="M195.54,150.07c-1.67-1.21-3.09-2.08-4.32-3.16c-2.41-2.14-4.77-2.44-7.66-0.74
		c-3.12,1.83-6.92,2.81-6.47,7.66c0.27,2.99,0.13,5.58-4.27,5.19c-3.54-0.31-7.75,1.01-7.56-4.78c0.11-3.33-1.18-5.27-4.52-6.02
		c-3.5-0.78-7.02-3.85-10.2,0.65c-2.39,3.38-4.68,2.95-7.59,0.19c-2.83-2.68-4.67-4.52-1.42-8.42c4.41-5.3,0.47-13.29-6.59-13.9
		c-3.48-0.3-5.5-1.4-5.08-5.41c0.31-2.99-1.55-6.22,4.07-6.77c7.92-0.77,10.92-9.6,5.35-15.47c-4.56-4.8,0.91-6.05,2.32-8.67
		c1.9-3.53,3.98-1.51,5.88,0.17c2.55,2.25,4.96,3.29,8.44,1.24c3.49-2.06,7.43-3.18,6.31-8.57c-0.54-2.6,0.25-4.98,3.57-4.14
		c2.89,0.73,7.98-3.17,8.27,3.59c0.14,3.29,0.74,6.07,4.65,7.16c3.97,1.11,7.78,3.11,11.07-1.28c1.76-2.34,3.72-3.28,5.84-0.28
		c1.73,2.44,6.68,3.36,2.85,8.17c-4.97,6.26-1.53,13.97,6.52,14.92c3.61,0.43,5.22,1.47,4.99,5.43c-0.2,3.4,0.33,6.07-4.53,6.72
		c-7.88,1.06-10.28,9.13-5.17,15.51c0.89,1.1,3.22,2.12,1.72,4.04C200.08,145.55,197.77,147.69,195.54,150.07z"/>
	<path class="st57" d="M169.61,133.18c-7.96-0.09-14.38-6.51-14.27-14.28c0.11-7.94,6.43-14.05,14.47-14.01
		c7.97,0.05,14.22,6.29,14.24,14.23C184.07,126.89,177.53,133.26,169.61,133.18z"/>
	<path d="M182.21,119.28c-0.08,7.11-5.61,12.6-12.63,12.54c-7.17-0.06-12.67-5.91-12.49-13.28c0.17-6.77,5.76-12.33,12.45-12.38
		C176.64,106.1,182.29,111.96,182.21,119.28z"/>
</g>
<g>
	<path d="M305.01,116.53c1.32,4.6-1.17,6.35-6.25,6.53c-4.65,0.17-7.57,7.54-4.81,11.4c1.47,2.06,5.12,3.85,3.88,6.27
		c-1.67,3.26-4.8,5.94-7.72,8.36c-1.86,1.54-3.03-1.21-4.56-1.91c-2.06-0.93-3.27-4.03-6.43-2.17c-3.17,1.87-7.3,2.55-6.56,7.89
		c0.22,1.58,0.5,4.46-1.87,5.06c-3.84,0.97-7.93,1.68-11.75,0.27c-1.56-0.57-1.05-2.97-1.18-4.6c-0.23-2.97-0.97-5.18-4.41-6.3
		c-3.43-1.11-6.34-2.1-8.81,1.36c-2.58,3.62-5.2,3.23-7.96,0.22c-0.78-0.86-1.58-1.76-2.53-2.4c-3.31-2.24-3.86-4.61-0.79-7.55
		c2.93-2.81,3.01-5.75,0.84-9.33c-1.57-2.59-3.14-4.15-6.22-3.68c-4.95,0.75-6.61-1.65-6.05-6.24c0.08-0.65,0.12-1.36-0.03-1.99
		c-1.22-5.2,1.57-6.93,6.09-6.83c2.78,0.06,4.34-0.92,4.98-3.64c0.68-2.88,3.08-5.58-0.3-8.55c-1.56-1.38-4.65-3.25-3.37-5.43
		c1.98-3.35,4.89-6.37,8-8.76c1.7-1.3,3.14,1.77,4.89,2.55c1.94,0.87,3.07,3.52,6.01,1.71c3.08-1.89,6.76-2.84,6.6-7.63
		c-0.06-1.78-1.03-4.71,1.46-5.22c3.83-0.79,7.99-1.99,11.75-0.45c1.97,0.8,1.22,3.91,1.72,5.93c1.32,5.33,7.66,7.81,11.92,4.56
		c1.78-1.36,3.57-4.7,5.44-3.62c3.35,1.94,6.2,5.02,8.64,8.11c1.3,1.65-1.15,3.17-2.16,4.57c-1.69,2.34-3.2,4.33-1.37,7.55
		c1.81,3.19,3.18,5.75,7.69,5.4C304.81,107.61,304.84,108.07,305.01,116.53z"/>
	<path class="st56" d="M289.31,147.99c-1.67-1.21-3.09-2.08-4.32-3.16c-2.41-2.14-4.77-2.44-7.66-0.74
		c-3.12,1.83-6.92,2.81-6.47,7.66c0.27,2.99,0.13,5.58-4.27,5.19c-3.54-0.31-7.75,1.01-7.56-4.78c0.11-3.33-1.18-5.27-4.52-6.02
		c-3.5-0.78-7.02-3.85-10.2,0.65c-2.39,3.38-4.68,2.95-7.59,0.19c-2.83-2.68-4.67-4.52-1.42-8.42c4.41-5.3,0.47-13.29-6.59-13.9
		c-3.48-0.3-5.5-1.4-5.08-5.41c0.31-2.99-1.55-6.22,4.07-6.77c7.92-0.77,10.92-9.6,5.35-15.47c-4.56-4.8,0.91-6.05,2.32-8.67
		c1.9-3.53,3.98-1.51,5.88,0.17c2.55,2.25,4.96,3.29,8.44,1.24c3.49-2.06,7.43-3.18,6.31-8.57c-0.54-2.6,0.26-4.98,3.57-4.14
		c2.89,0.73,7.98-3.17,8.27,3.59c0.14,3.29,0.74,6.07,4.65,7.16c3.97,1.11,7.78,3.11,11.07-1.28c1.76-2.34,3.72-3.28,5.84-0.28
		c1.73,2.44,6.68,3.36,2.85,8.17c-4.97,6.26-1.53,13.97,6.52,14.92c3.61,0.43,5.22,1.47,4.99,5.43c-0.2,3.4,0.33,6.07-4.53,6.72
		c-7.88,1.06-10.28,9.13-5.17,15.51c0.89,1.1,3.22,2.12,1.72,4.04C293.85,143.48,291.54,145.61,289.31,147.99z"/>
	<path class="st57" d="M263.38,131.1c-7.96-0.09-14.38-6.51-14.27-14.28c0.11-7.94,6.43-14.05,14.47-14.01
		c7.97,0.05,14.22,6.29,14.24,14.23C277.85,124.81,271.3,131.19,263.38,131.1z"/>
	<path d="M275.98,117.2c-0.08,7.11-5.61,12.6-12.63,12.54c-7.17-0.06-12.67-5.91-12.49-13.28c0.17-6.77,5.76-12.33,12.45-12.38
		C270.41,104.02,276.06,109.88,275.98,117.2z"/>
</g>
<g>
	<path d="M400.01,118.53c1.32,4.6-1.17,6.35-6.25,6.53c-4.65,0.17-7.57,7.54-4.81,11.4c1.47,2.06,5.12,3.85,3.88,6.27
		c-1.67,3.26-4.8,5.94-7.72,8.36c-1.86,1.54-3.03-1.21-4.56-1.91c-2.06-0.93-3.27-4.03-6.43-2.17c-3.17,1.87-7.3,2.55-6.56,7.89
		c0.22,1.58,0.5,4.46-1.87,5.06c-3.84,0.97-7.93,1.68-11.75,0.27c-1.56-0.57-1.05-2.97-1.18-4.6c-0.23-2.97-0.97-5.18-4.41-6.3
		c-3.43-1.11-6.34-2.1-8.81,1.36c-2.58,3.62-5.2,3.23-7.96,0.22c-0.78-0.86-1.58-1.76-2.53-2.4c-3.31-2.24-3.86-4.61-0.79-7.55
		c2.93-2.81,3.01-5.75,0.84-9.33c-1.57-2.59-3.14-4.15-6.22-3.68c-4.95,0.75-6.61-1.65-6.05-6.24c0.08-0.65,0.12-1.36-0.03-1.99
		c-1.22-5.2,1.57-6.93,6.09-6.83c2.78,0.06,4.34-0.92,4.98-3.64c0.68-2.88,3.08-5.58-0.3-8.55c-1.56-1.38-4.65-3.25-3.37-5.43
		c1.98-3.35,4.89-6.37,8-8.76c1.7-1.3,3.14,1.77,4.89,2.55c1.94,0.87,3.07,3.52,6.01,1.71c3.08-1.89,6.76-2.84,6.6-7.63
		c-0.06-1.78-1.03-4.71,1.46-5.22c3.83-0.79,7.99-1.99,11.75-0.45c1.97,0.8,1.22,3.91,1.72,5.93c1.32,5.33,7.66,7.81,11.92,4.56
		c1.78-1.36,3.57-4.7,5.44-3.62c3.35,1.94,6.2,5.02,8.64,8.11c1.3,1.65-1.15,3.17-2.16,4.57c-1.69,2.34-3.2,4.33-1.37,7.55
		c1.81,3.19,3.18,5.75,7.69,5.4C399.81,109.61,399.84,110.07,400.01,118.53z"/>
	<path class="st56" d="M384.31,149.99c-1.67-1.21-3.09-2.08-4.32-3.16c-2.41-2.14-4.77-2.44-7.66-0.74
		c-3.12,1.83-6.92,2.81-6.47,7.66c0.27,2.99,0.13,5.58-4.27,5.19c-3.54-0.31-7.75,1.01-7.56-4.78c0.11-3.33-1.18-5.27-4.52-6.02
		c-3.5-0.78-7.02-3.85-10.2,0.65c-2.39,3.38-4.68,2.95-7.59,0.19c-2.83-2.68-4.67-4.52-1.42-8.42c4.41-5.3,0.47-13.29-6.59-13.9
		c-3.48-0.3-5.5-1.4-5.08-5.41c0.31-2.99-1.55-6.22,4.07-6.77c7.92-0.77,10.92-9.6,5.35-15.47c-4.56-4.8,0.91-6.05,2.32-8.67
		c1.9-3.53,3.98-1.51,5.88,0.17c2.55,2.25,4.96,3.29,8.44,1.24c3.49-2.06,7.43-3.18,6.31-8.57c-0.54-2.6,0.26-4.98,3.57-4.14
		c2.89,0.73,7.98-3.17,8.27,3.59c0.14,3.29,0.74,6.07,4.65,7.16c3.97,1.11,7.78,3.11,11.07-1.28c1.76-2.34,3.72-3.28,5.84-0.28
		c1.73,2.44,6.68,3.36,2.85,8.17c-4.97,6.26-1.53,13.97,6.52,14.92c3.61,0.43,5.22,1.47,4.99,5.43c-0.2,3.4,0.33,6.07-4.53,6.72
		c-7.88,1.06-10.28,9.13-5.17,15.51c0.89,1.1,3.22,2.12,1.72,4.04C388.85,145.48,386.54,147.61,384.31,149.99z"/>
	<path class="st57" d="M358.38,133.1c-7.96-0.09-14.38-6.51-14.27-14.28c0.11-7.94,6.43-14.05,14.47-14.01
		c7.97,0.05,14.22,6.29,14.24,14.23C372.85,126.81,366.3,133.19,358.38,133.1z"/>
	<path d="M370.98,119.2c-0.08,7.11-5.61,12.6-12.63,12.54c-7.17-0.06-12.67-5.91-12.49-13.28c0.17-6.77,5.76-12.33,12.45-12.38
		C365.41,106.02,371.06,111.88,370.98,119.2z"/>
</g>
<g>
	<path d="M491.01,116.53c1.32,4.6-1.17,6.35-6.25,6.53c-4.65,0.17-7.57,7.54-4.81,11.4c1.47,2.06,5.12,3.85,3.88,6.27
		c-1.67,3.26-4.8,5.94-7.72,8.36c-1.86,1.54-3.03-1.21-4.56-1.91c-2.06-0.93-3.27-4.03-6.43-2.17c-3.17,1.87-7.3,2.55-6.56,7.89
		c0.22,1.58,0.5,4.46-1.87,5.06c-3.84,0.97-7.93,1.68-11.75,0.27c-1.56-0.57-1.05-2.97-1.18-4.6c-0.23-2.97-0.97-5.18-4.41-6.3
		c-3.43-1.11-6.34-2.1-8.81,1.36c-2.58,3.62-5.2,3.23-7.96,0.22c-0.78-0.86-1.58-1.76-2.53-2.4c-3.31-2.24-3.86-4.61-0.79-7.55
		c2.93-2.81,3.01-5.75,0.84-9.33c-1.57-2.59-3.14-4.15-6.22-3.68c-4.95,0.75-6.61-1.65-6.05-6.24c0.08-0.65,0.12-1.36-0.03-1.99
		c-1.22-5.2,1.57-6.93,6.09-6.83c2.78,0.06,4.34-0.92,4.98-3.64c0.68-2.88,3.08-5.58-0.3-8.55c-1.56-1.38-4.65-3.25-3.37-5.43
		c1.98-3.35,4.89-6.37,8-8.76c1.7-1.3,3.14,1.77,4.89,2.55c1.94,0.87,3.07,3.52,6.01,1.71c3.08-1.89,6.76-2.84,6.6-7.63
		c-0.06-1.78-1.03-4.71,1.46-5.22c3.83-0.79,7.99-1.99,11.75-0.45c1.97,0.8,1.22,3.91,1.72,5.93c1.32,5.33,7.66,7.81,11.92,4.56
		c1.78-1.36,3.57-4.7,5.44-3.62c3.35,1.94,6.2,5.02,8.64,8.11c1.3,1.65-1.15,3.17-2.16,4.57c-1.69,2.34-3.2,4.33-1.37,7.55
		c1.81,3.19,3.18,5.75,7.69,5.4C490.81,107.61,490.84,108.07,491.01,116.53z"/>
	<path class="st56" d="M475.31,147.99c-1.67-1.21-3.09-2.08-4.32-3.16c-2.41-2.14-4.77-2.44-7.66-0.74
		c-3.12,1.83-6.92,2.81-6.47,7.66c0.27,2.99,0.13,5.58-4.27,5.19c-3.54-0.31-7.75,1.01-7.56-4.78c0.11-3.33-1.18-5.27-4.52-6.02
		c-3.5-0.78-7.02-3.85-10.2,0.65c-2.39,3.38-4.68,2.95-7.59,0.19c-2.83-2.68-4.67-4.52-1.42-8.42c4.41-5.3,0.47-13.29-6.59-13.9
		c-3.48-0.3-5.5-1.4-5.08-5.41c0.31-2.99-1.55-6.22,4.07-6.77c7.92-0.77,10.92-9.6,5.35-15.47c-4.56-4.8,0.91-6.05,2.32-8.67
		c1.9-3.53,3.98-1.51,5.88,0.17c2.55,2.25,4.96,3.29,8.44,1.24c3.49-2.06,7.43-3.18,6.31-8.57c-0.54-2.6,0.26-4.98,3.57-4.14
		c2.89,0.73,7.98-3.17,8.27,3.59c0.14,3.29,0.74,6.07,4.65,7.16c3.97,1.11,7.78,3.11,11.07-1.28c1.76-2.34,3.72-3.28,5.84-0.28
		c1.73,2.44,6.68,3.36,2.85,8.17c-4.97,6.26-1.53,13.97,6.52,14.92c3.61,0.43,5.22,1.47,4.99,5.43c-0.2,3.4,0.33,6.07-4.53,6.72
		c-7.88,1.06-10.28,9.13-5.17,15.51c0.89,1.1,3.22,2.12,1.72,4.04C479.85,143.48,477.54,145.61,475.31,147.99z"/>
	<path class="st57" d="M449.38,131.1c-7.96-0.09-14.38-6.51-14.27-14.28c0.11-7.94,6.43-14.05,14.47-14.01
		c7.97,0.05,14.22,6.29,14.24,14.23C463.85,124.81,457.3,131.19,449.38,131.1z"/>
	<path d="M461.98,117.2c-0.08,7.11-5.61,12.6-12.63,12.54c-7.17-0.06-12.67-5.91-12.49-13.28c0.17-6.77,5.76-12.33,12.45-12.38
		C456.41,104.02,462.06,109.88,461.98,117.2z"/>
</g>
<g>
	<path d="M582.01,116.53c1.32,4.6-1.17,6.35-6.25,6.53c-4.65,0.17-7.57,7.54-4.81,11.4c1.47,2.06,5.12,3.85,3.88,6.27
		c-1.67,3.26-4.8,5.94-7.72,8.36c-1.86,1.54-3.03-1.21-4.56-1.91c-2.06-0.93-3.27-4.03-6.43-2.17c-3.17,1.87-7.3,2.55-6.56,7.89
		c0.22,1.58,0.5,4.46-1.87,5.06c-3.84,0.97-7.93,1.68-11.75,0.27c-1.56-0.57-1.05-2.97-1.18-4.6c-0.23-2.97-0.97-5.18-4.41-6.3
		c-3.43-1.11-6.34-2.1-8.81,1.36c-2.58,3.62-5.2,3.23-7.96,0.22c-0.78-0.86-1.58-1.76-2.53-2.4c-3.31-2.24-3.86-4.61-0.79-7.55
		c2.93-2.81,3.01-5.75,0.84-9.33c-1.57-2.59-3.14-4.15-6.22-3.68c-4.95,0.75-6.61-1.65-6.05-6.24c0.08-0.65,0.12-1.36-0.03-1.99
		c-1.22-5.2,1.57-6.93,6.09-6.83c2.78,0.06,4.34-0.92,4.98-3.64c0.68-2.88,3.08-5.58-0.3-8.55c-1.56-1.38-4.65-3.25-3.37-5.43
		c1.98-3.35,4.89-6.37,8-8.76c1.7-1.3,3.14,1.77,4.89,2.55c1.94,0.87,3.07,3.52,6.01,1.71c3.08-1.89,6.76-2.84,6.6-7.63
		c-0.06-1.78-1.03-4.71,1.46-5.22c3.83-0.79,7.99-1.99,11.75-0.45c1.97,0.8,1.22,3.91,1.72,5.93c1.32,5.33,7.66,7.81,11.92,4.56
		c1.78-1.36,3.57-4.7,5.44-3.62c3.35,1.94,6.2,5.02,8.64,8.11c1.3,1.65-1.15,3.17-2.16,4.57c-1.69,2.34-3.2,4.33-1.37,7.55
		c1.81,3.19,3.18,5.75,7.69,5.4C581.81,107.61,581.84,108.07,582.01,116.53z"/>
	<path class="st56" d="M566.31,147.99c-1.67-1.21-3.09-2.08-4.32-3.16c-2.41-2.14-4.77-2.44-7.66-0.74
		c-3.12,1.83-6.92,2.81-6.47,7.66c0.27,2.99,0.13,5.58-4.27,5.19c-3.54-0.31-7.75,1.01-7.56-4.78c0.11-3.33-1.18-5.27-4.52-6.02
		c-3.5-0.78-7.02-3.85-10.2,0.65c-2.39,3.38-4.68,2.95-7.59,0.19c-2.83-2.68-4.67-4.52-1.42-8.42c4.41-5.3,0.47-13.29-6.59-13.9
		c-3.48-0.3-5.5-1.4-5.08-5.41c0.31-2.99-1.55-6.22,4.07-6.77c7.92-0.77,10.92-9.6,5.35-15.47c-4.56-4.8,0.91-6.05,2.32-8.67
		c1.9-3.53,3.98-1.51,5.88,0.17c2.55,2.25,4.96,3.29,8.44,1.24c3.49-2.06,7.43-3.18,6.31-8.57c-0.54-2.6,0.26-4.98,3.57-4.14
		c2.89,0.73,7.98-3.17,8.27,3.59c0.14,3.29,0.74,6.07,4.65,7.16c3.97,1.11,7.78,3.11,11.07-1.28c1.76-2.34,3.72-3.28,5.84-0.28
		c1.73,2.44,6.68,3.36,2.85,8.17c-4.97,6.26-1.53,13.97,6.52,14.92c3.61,0.43,5.22,1.47,4.99,5.43c-0.2,3.4,0.33,6.07-4.53,6.72
		c-7.88,1.06-10.28,9.13-5.17,15.51c0.89,1.1,3.22,2.12,1.72,4.04C570.85,143.48,568.54,145.61,566.31,147.99z"/>
	<path class="st57" d="M540.38,131.1c-7.96-0.09-14.38-6.51-14.27-14.28c0.11-7.94,6.43-14.05,14.47-14.01
		c7.97,0.05,14.22,6.29,14.24,14.23C554.85,124.81,548.3,131.19,540.38,131.1z"/>
	<path d="M552.98,117.2c-0.08,7.11-5.61,12.6-12.63,12.54c-7.17-0.06-12.67-5.91-12.49-13.28c0.17-6.77,5.76-12.33,12.45-12.38
		C547.41,104.02,553.06,109.88,552.98,117.2z"/>
</g>
<g>
	<path d="M676.01,116.53c1.32,4.6-1.17,6.35-6.25,6.53c-4.65,0.17-7.57,7.54-4.81,11.4c1.47,2.06,5.12,3.85,3.88,6.27
		c-1.67,3.26-4.8,5.94-7.72,8.36c-1.86,1.54-3.03-1.21-4.56-1.91c-2.06-0.93-3.27-4.03-6.43-2.17c-3.17,1.87-7.3,2.55-6.56,7.89
		c0.22,1.58,0.5,4.46-1.87,5.06c-3.84,0.97-7.93,1.68-11.75,0.27c-1.56-0.57-1.05-2.97-1.18-4.6c-0.23-2.97-0.97-5.18-4.41-6.3
		c-3.43-1.11-6.34-2.1-8.81,1.36c-2.58,3.62-5.2,3.23-7.96,0.22c-0.78-0.86-1.58-1.76-2.53-2.4c-3.31-2.24-3.86-4.61-0.79-7.55
		c2.93-2.81,3.01-5.75,0.84-9.33c-1.57-2.59-3.14-4.15-6.22-3.68c-4.95,0.75-6.61-1.65-6.05-6.24c0.08-0.65,0.12-1.36-0.03-1.99
		c-1.22-5.2,1.57-6.93,6.09-6.83c2.78,0.06,4.34-0.92,4.98-3.64c0.68-2.88,3.08-5.58-0.3-8.55c-1.56-1.38-4.65-3.25-3.37-5.43
		c1.98-3.35,4.89-6.37,8-8.76c1.7-1.3,3.14,1.77,4.89,2.55c1.94,0.87,3.07,3.52,6.01,1.71c3.08-1.89,6.76-2.84,6.6-7.63
		c-0.06-1.78-1.03-4.71,1.46-5.22c3.83-0.79,7.99-1.99,11.75-0.45c1.97,0.8,1.22,3.91,1.72,5.93c1.32,5.33,7.66,7.81,11.92,4.56
		c1.78-1.36,3.57-4.7,5.44-3.62c3.35,1.94,6.2,5.02,8.64,8.11c1.3,1.65-1.15,3.17-2.16,4.57c-1.69,2.34-3.2,4.33-1.37,7.55
		c1.81,3.19,3.18,5.75,7.69,5.4C675.81,107.61,675.84,108.07,676.01,116.53z"/>
	<path class="st56" d="M660.31,147.99c-1.67-1.21-3.09-2.08-4.32-3.16c-2.41-2.14-4.77-2.44-7.66-0.74
		c-3.12,1.83-6.92,2.81-6.47,7.66c0.27,2.99,0.13,5.58-4.27,5.19c-3.54-0.31-7.75,1.01-7.56-4.78c0.11-3.33-1.18-5.27-4.52-6.02
		c-3.5-0.78-7.02-3.85-10.2,0.65c-2.39,3.38-4.68,2.95-7.59,0.19c-2.83-2.68-4.67-4.52-1.42-8.42c4.41-5.3,0.47-13.29-6.59-13.9
		c-3.48-0.3-5.5-1.4-5.08-5.41c0.31-2.99-1.55-6.22,4.07-6.77c7.92-0.77,10.92-9.6,5.35-15.47c-4.56-4.8,0.91-6.05,2.32-8.67
		c1.9-3.53,3.98-1.51,5.88,0.17c2.55,2.25,4.96,3.29,8.44,1.24c3.49-2.06,7.43-3.18,6.31-8.57c-0.54-2.6,0.26-4.98,3.57-4.14
		c2.89,0.73,7.98-3.17,8.27,3.59c0.14,3.29,0.74,6.07,4.65,7.16c3.97,1.11,7.78,3.11,11.07-1.28c1.76-2.34,3.72-3.28,5.84-0.28
		c1.73,2.44,6.68,3.36,2.85,8.17c-4.97,6.26-1.53,13.97,6.52,14.92c3.61,0.43,5.22,1.47,4.99,5.43c-0.2,3.4,0.33,6.07-4.53,6.72
		c-7.88,1.06-10.28,9.13-5.17,15.51c0.89,1.1,3.22,2.12,1.72,4.04C664.85,143.48,662.54,145.61,660.31,147.99z"/>
	<path class="st57" d="M634.38,131.1c-7.96-0.09-14.38-6.51-14.27-14.28c0.11-7.94,6.43-14.05,14.47-14.01
		c7.97,0.05,14.22,6.29,14.24,14.23C648.85,124.81,642.3,131.19,634.38,131.1z"/>
	<path d="M646.98,117.2c-0.08,7.11-5.61,12.6-12.63,12.54c-7.17-0.06-12.67-5.91-12.49-13.28c0.17-6.77,5.76-12.33,12.45-12.38
		C641.41,104.02,647.06,109.88,646.98,117.2z"/>
</g>
<g>
	<path d="M774.01,116.53c1.32,4.6-1.17,6.35-6.25,6.53c-4.65,0.17-7.57,7.54-4.81,11.4c1.47,2.06,5.12,3.85,3.88,6.27
		c-1.67,3.26-4.8,5.94-7.72,8.36c-1.86,1.54-3.03-1.21-4.56-1.91c-2.06-0.93-3.27-4.03-6.43-2.17c-3.17,1.87-7.3,2.55-6.56,7.89
		c0.22,1.58,0.5,4.46-1.87,5.06c-3.84,0.97-7.93,1.68-11.75,0.27c-1.56-0.57-1.05-2.97-1.18-4.6c-0.23-2.97-0.97-5.18-4.41-6.3
		c-3.43-1.11-6.34-2.1-8.81,1.36c-2.58,3.62-5.2,3.23-7.96,0.22c-0.78-0.86-1.58-1.76-2.53-2.4c-3.31-2.24-3.86-4.61-0.79-7.55
		c2.93-2.81,3.01-5.75,0.84-9.33c-1.57-2.59-3.14-4.15-6.22-3.68c-4.95,0.75-6.61-1.65-6.05-6.24c0.08-0.65,0.12-1.36-0.03-1.99
		c-1.22-5.2,1.57-6.93,6.09-6.83c2.78,0.06,4.34-0.92,4.98-3.64c0.68-2.88,3.08-5.58-0.3-8.55c-1.56-1.38-4.65-3.25-3.37-5.43
		c1.98-3.35,4.89-6.37,8-8.76c1.7-1.3,3.14,1.77,4.89,2.55c1.94,0.87,3.07,3.52,6.01,1.71c3.08-1.89,6.76-2.84,6.6-7.63
		c-0.06-1.78-1.03-4.71,1.46-5.22c3.83-0.79,7.99-1.99,11.75-0.45c1.97,0.8,1.22,3.91,1.72,5.93c1.32,5.33,7.66,7.81,11.92,4.56
		c1.78-1.36,3.57-4.7,5.44-3.62c3.35,1.94,6.2,5.02,8.64,8.11c1.3,1.65-1.15,3.17-2.16,4.57c-1.69,2.34-3.2,4.33-1.37,7.55
		c1.81,3.19,3.18,5.75,7.69,5.4C773.81,107.61,773.84,108.07,774.01,116.53z"/>
	<path class="st56" d="M758.31,147.99c-1.67-1.21-3.09-2.08-4.32-3.16c-2.41-2.14-4.77-2.44-7.66-0.74
		c-3.12,1.83-6.92,2.81-6.47,7.66c0.27,2.99,0.13,5.58-4.27,5.19c-3.54-0.31-7.75,1.01-7.56-4.78c0.11-3.33-1.18-5.27-4.52-6.02
		c-3.5-0.78-7.02-3.85-10.2,0.65c-2.39,3.38-4.68,2.95-7.59,0.19c-2.83-2.68-4.67-4.52-1.42-8.42c4.41-5.3,0.47-13.29-6.59-13.9
		c-3.48-0.3-5.5-1.4-5.08-5.41c0.31-2.99-1.55-6.22,4.07-6.77c7.92-0.77,10.92-9.6,5.35-15.47c-4.56-4.8,0.91-6.05,2.32-8.67
		c1.9-3.53,3.98-1.51,5.88,0.17c2.55,2.25,4.96,3.29,8.44,1.24c3.49-2.06,7.43-3.18,6.31-8.57c-0.54-2.6,0.26-4.98,3.57-4.14
		c2.89,0.73,7.98-3.17,8.27,3.59c0.14,3.29,0.74,6.07,4.65,7.16c3.97,1.11,7.78,3.11,11.07-1.28c1.76-2.34,3.72-3.28,5.84-0.28
		c1.73,2.44,6.68,3.36,2.85,8.17c-4.97,6.26-1.53,13.97,6.52,14.92c3.61,0.43,5.22,1.47,4.99,5.43c-0.2,3.4,0.33,6.07-4.53,6.72
		c-7.88,1.06-10.28,9.13-5.17,15.51c0.89,1.1,3.22,2.12,1.72,4.04C762.85,143.48,760.54,145.61,758.31,147.99z"/>
	<path class="st57" d="M732.38,131.1c-7.96-0.09-14.38-6.51-14.27-14.28c0.11-7.94,6.43-14.05,14.47-14.01
		c7.97,0.05,14.22,6.29,14.24,14.23C746.85,124.81,740.3,131.19,732.38,131.1z"/>
	<path d="M744.98,117.2c-0.08,7.11-5.61,12.6-12.63,12.54c-7.17-0.06-12.67-5.91-12.49-13.28c0.17-6.77,5.76-12.33,12.45-12.38
		C739.41,104.02,745.06,109.88,744.98,117.2z"/>
</g>
<g>
	<path d="M873.01,116.53c1.32,4.6-1.17,6.35-6.25,6.53c-4.65,0.17-7.57,7.54-4.81,11.4c1.47,2.06,5.12,3.85,3.88,6.27
		c-1.67,3.26-4.8,5.94-7.72,8.36c-1.86,1.54-3.03-1.21-4.56-1.91c-2.06-0.93-3.27-4.03-6.43-2.17c-3.17,1.87-7.3,2.55-6.56,7.89
		c0.22,1.58,0.5,4.46-1.87,5.06c-3.84,0.97-7.93,1.68-11.75,0.27c-1.56-0.57-1.05-2.97-1.18-4.6c-0.23-2.97-0.97-5.18-4.41-6.3
		c-3.43-1.11-6.34-2.1-8.81,1.36c-2.58,3.62-5.2,3.23-7.96,0.22c-0.78-0.86-1.58-1.76-2.53-2.4c-3.31-2.24-3.86-4.61-0.79-7.55
		c2.93-2.81,3.01-5.75,0.84-9.33c-1.57-2.59-3.14-4.15-6.22-3.68c-4.95,0.75-6.61-1.65-6.05-6.24c0.08-0.65,0.12-1.36-0.03-1.99
		c-1.22-5.2,1.57-6.93,6.09-6.83c2.78,0.06,4.34-0.92,4.98-3.64c0.68-2.88,3.08-5.58-0.3-8.55c-1.56-1.38-4.65-3.25-3.37-5.43
		c1.98-3.35,4.89-6.37,8-8.76c1.7-1.3,3.14,1.77,4.89,2.55c1.94,0.87,3.07,3.52,6.01,1.71c3.08-1.89,6.76-2.84,6.6-7.63
		c-0.06-1.78-1.03-4.71,1.46-5.22c3.83-0.79,7.99-1.99,11.75-0.45c1.97,0.8,1.22,3.91,1.72,5.93c1.32,5.33,7.66,7.81,11.92,4.56
		c1.78-1.36,3.57-4.7,5.44-3.62c3.35,1.94,6.2,5.02,8.64,8.11c1.3,1.65-1.15,3.17-2.16,4.57c-1.69,2.34-3.2,4.33-1.37,7.55
		c1.81,3.19,3.18,5.75,7.69,5.4C872.81,107.61,872.84,108.07,873.01,116.53z"/>
	<path class="st56" d="M857.31,147.99c-1.67-1.21-3.09-2.08-4.32-3.16c-2.41-2.14-4.77-2.44-7.66-0.74
		c-3.12,1.83-6.92,2.81-6.47,7.66c0.27,2.99,0.13,5.58-4.27,5.19c-3.54-0.31-7.75,1.01-7.56-4.78c0.11-3.33-1.18-5.27-4.52-6.02
		c-3.5-0.78-7.02-3.85-10.2,0.65c-2.39,3.38-4.68,2.95-7.59,0.19c-2.83-2.68-4.67-4.52-1.42-8.42c4.41-5.3,0.47-13.29-6.59-13.9
		c-3.48-0.3-5.5-1.4-5.08-5.41c0.31-2.99-1.55-6.22,4.07-6.77c7.92-0.77,10.92-9.6,5.35-15.47c-4.56-4.8,0.91-6.05,2.32-8.67
		c1.9-3.53,3.98-1.51,5.88,0.17c2.55,2.25,4.96,3.29,8.44,1.24c3.49-2.06,7.43-3.18,6.31-8.57c-0.54-2.6,0.26-4.98,3.57-4.14
		c2.89,0.73,7.98-3.17,8.27,3.59c0.14,3.29,0.74,6.07,4.65,7.16c3.97,1.11,7.78,3.11,11.07-1.28c1.76-2.34,3.72-3.28,5.84-0.28
		c1.73,2.44,6.68,3.36,2.85,8.17c-4.97,6.26-1.53,13.97,6.52,14.92c3.61,0.43,5.22,1.47,4.99,5.43c-0.2,3.4,0.33,6.07-4.53,6.72
		c-7.88,1.06-10.28,9.13-5.17,15.51c0.89,1.1,3.22,2.12,1.72,4.04C861.85,143.48,859.54,145.61,857.31,147.99z"/>
	<path class="st57" d="M831.38,131.1c-7.96-0.09-14.38-6.51-14.27-14.28c0.11-7.94,6.43-14.05,14.47-14.01
		c7.97,0.05,14.22,6.29,14.24,14.23C845.85,124.81,839.3,131.19,831.38,131.1z"/>
	<path d="M843.98,117.2c-0.08,7.11-5.61,12.6-12.63,12.54c-7.17-0.06-12.67-5.91-12.49-13.28c0.17-6.77,5.76-12.33,12.45-12.38
		C838.41,104.02,844.06,109.88,843.98,117.2z"/>
</g>
<image style="overflow:visible;" width="300" height="300" id="redButton" xlink:href="872C9884.png"  transform="matrix(0.1683 0 0 0.1683 41.8618 94)">
</image>
</svg>
