<svg id="Layer_1" data-name="Layer 1" xmlns="http://www.w3.org/2000/svg" viewBox="0 0 405 214"><title>car</title><rect x="59.5" y="0.5" width="286" height="154" style="fill:#ce7132"/><path d="M607,342V495H322V342H607m1-1H321V496H608V341Z" transform="translate(-262 -341)"/><circle cx="59" cy="155" r="58.5" style="fill:#fff"/><path d="M321,438a58,58,0,1,1-58,58,58.07,58.07,0,0,1,58-58m0-1a59,59,0,1,0,59,59,59,59,0,0,0-59-59Z" transform="translate(-262 -341)"/><circle cx="346" cy="155" r="58.5" style="fill:#fff"/><path d="M608,438a58,58,0,1,1-58,58,58.07,58.07,0,0,1,58-58m0-1a59,59,0,1,0,59,59,59,59,0,0,0-59-59Z" transform="translate(-262 -341)"/></svg>