<?xml version="1.0" encoding="utf-8"?>
<!-- Generator: Adobe Illustrator 24.1.1, SVG Export Plug-In . SVG Version: 6.00 Build 0)  -->
<svg version="1.1" id="FordCar" xmlns="http://www.w3.org/2000/svg" xmlns:xlink="http://www.w3.org/1999/xlink" x="0px" y="0px"
	 viewBox="0 0 567.6 387.6" style="enable-background:new 0 0 567.6 387.6;" xml:space="preserve">
<style type="text/css">
	.lt0{fill:#080808;}
	.lt1{fill:#8D4DE8;}
	.lt2{fill:#FDFDFD;}
	.lt3{fill:#4F2A72;}
	.lt4{fill:#7F2C93;}
	.lt5{fill:#282020;}
	.lt6{fill:#140D0D;}
	.lt7{fill:#3F3D3D;}
	.lt8{fill:#0F0F0C;}
	.lt9{fill:#0C0C0B;}
	.lt10{fill:#EDEDA6;}
	.lt11{fill:#565252;}
	.lt12{fill:#F4F4F4;}
	.lt13{fill:#C4C48C;}
	.lt14{fill:#3F3636;}
	.lt15{fill:#E5E4B7;}
	.lt16{fill:#B537B2;}
	.lt17{fill:#E5E593;}
	.lt18{fill:#E8E8A3;}
	.lt19{fill:#CC40CC;}
	.lt20{fill:#EAEA92;}
	.lt21{fill:#EDED98;}
	.lt22{fill:#545450;}
	.lt23{fill:#4F104D;}
	.lt24{fill:#3A3A33;}
	.lt25{fill:#3D3D3D;}
	.lt26{fill:#303026;}
	.lt27{fill:#51514C;}
	.lt28{fill:#BCB53B;}
	.lt29{fill:#B2AF4F;}
</style>
<g>
	<path class="lt0" d="M100,363.8c-1.1-1.9-3.2-1.3-4.7-1.5c-11-1.3-20.4-6.1-29-12.5c-2.3-1.7-4.6-3.1-7.2-4.3
		c-21.5-9.5-36-25-39.3-48.8c-1.8-13.5,2.4-26.3,8.6-38.4c4.3-8.3,10.6-14.8,18.8-20.4c-3.7-0.9-5.8,1.1-7.9,2.3
		c-3.5,2.1-5.4,1.1-7.4-2c-3.2-4.8-3.3-4.8,1.3-8.1c8.2-5.7,17.4-9.2,26.6-13.1c6.8-3,13.9-7.8,15.1-16.3c1.4-10.1,6.4-19,8.2-28.9
		c0.5-2.9,2.7-4.5,5.8-4.4c4.9,0.2,10.2,4.1,11.4,8.9c0.5,2.2,1.4,2.4,3.4,2.1c26.3-3.7,52.5-7.4,78.8-10.9c2.3-0.3,2.8-1.3,3.2-3.3
		c3.9-21.2,8-42.5,12-63.7c0.3-1.5,0.8-2.9-1.5-3.3c-4-0.7-4.5-3.7-4.6-7c-0.3-7.7-0.3-7.7,7-9.9c42.9-13.2,85.8-26.4,128.6-39.6
		c3.3-1,6.6-1.5,10-1.5c29.5,0,59.1,1,88.5-1.1c22.5-1.6,43.2,5.1,64.4,10.2c8.2,2,16.2,4.6,24.3,7c6.8,2,9.6,6.2,8.6,13.2
		c-3.1,21.5-6.4,43-9.5,64.6c-2,14.4-3.8,28.8-5.6,43.2c-0.2,1.3-0.9,2.9,0.9,3.9c9.7,5.3,11.7,14.7,12.9,24.4
		c0.4,2.9,0.4,6.1-0.4,8.8c-1.7,5.2,0.2,8.7,3.5,12.6c6.3,7.3,11.9,15.1,15.8,24c1.4,3.1,2.5,6.3,3.1,9.7c1,6,0.3,7.3-5.7,8.3
		c-2.2,0.4-4.4,0.3-6.6,0.4c-0.4,0-0.8,0.1-1.1,0.1c0.2,0.2,0.4,0.4,0.5,0.6c5.5,14.5,6.4,29.4,2.5,44.4
		c-7.5,28.8-35,46.2-64.6,41.3c-11.7-1.9-22.9-4.8-32.2-12.6c-1.4-1.1-3.1-0.9-4.7-0.9c-23.7-0.3-45.3-15.7-52.7-38
		c-1.4-4.2-3.2-5.3-7.3-5.1c-37.4,1.6-74.9,3.2-112.3,4.3c-8.5,0.3-16.6,1.9-24.8,3.7c-9.6,2.2-18.9-0.2-27.7-3.8
		c-4-1.7-6.4-1.7-8,2.6c-0.3,0.8-1,1.5-1.4,2.2c-4,6.5-4.2,6.6-9.3,0.7c-7.7-9-15.1-18.2-22.7-27.4c-0.8-0.9-1.5-1.8-2.2-2.8
		c-0.6-0.8-1.5-1.4-2.3-0.9c-1,0.6-0.1,1.5,0.2,2.3c2.5,6.2,3.8,12.7,4.2,19.4c1.9,30.7-20,58.2-50.4,63.6
		c-3.8,0.7-7.8-0.3-11.4,1.8C102.4,363.8,101.2,363.8,100,363.8z M506.6,143c-3.2,2.6-6.8,4.8-10.5,6.5
		c-15.6,7.3-31.8,12.8-48.5,16.9c-21.7,5.4-43.8,8.8-66.1,10.8c-4.4,0.4-5.7,1.6-5.2,6.3c2.2,20.3,1.3,40.5-3.8,60.4
		c-0.7,2.9-2.2,4.6-5,5.5c-8.3,2.7-16.8,3.4-25.4,4c-28,1.9-56,0.5-84-0.2c-2.1,0-4.1-0.3-6.2-0.5c-11.2-0.9-15.5-5-16.3-16.3
		c-1-13.6-2.2-27.2-2.9-40.8c-0.5-10.3-1.9-20.3-7.9-29.1c-1.1-1.5-1.7-3.2-1.3-5.4c3-20.8,5.9-41.6,8.8-62.4
		c0.2-1.2,1.5-3.2-0.9-3.5c-2.2-0.3-1.9,1.8-2.2,3.1c-4.3,20-8.5,39.9-12.8,59.9c-0.3,1.5-0.7,2.8,0.1,4.3
		c4.8,8.4,5.2,17.8,5.6,27.1c0.9,23.7,1,47.4,1,71.1c0,2.3-0.3,4.2,3.3,4.1c35-0.6,69.9,2.3,104.9,0.1c21-1.3,42-2.8,63-4.2
		c1.7-0.1,3.3,0.2,4.2-2.2c2.9-7.4,7.6-13.7,12.6-19.7c10.7-12.9,23.1-23.2,39.9-27.3c12.6-3.1,25.3-3.4,37.9-1.8
		c4.8,0.6,6.6-0.5,7.7-5.1c4.2-16.8,7.2-33.8,9.3-51C506.3,150.1,508,146.6,506.6,143c0.1,0.1,0.3,0.3,0.5,0.4
		c0.1-0.1,0.2-0.2,0.2-0.3C507.1,143.1,506.8,143.1,506.6,143z M240.3,175.1c4.1,0.3,7.2,0.4,10.3,0.7c1.6,0.1,2.5-0.5,3.2-1.8
		c2.8-5.5,7.5-6.8,13.4-7.6c13.6-1.7,27.5-3.3,39.1-11.6c4.8-3.4,9.4-7.3,13.8-11.1c5.2-4.5,11.1-7,17.8-8.3
		c9.6-1.8,18.9-0.1,28.1,2.2c6.4,1.6,9.2,5.2,10.1,11.9c0.7,5-0.3,10.1,0.1,15.1c0.5,6.1,0.5,6,6.4,4.8c1.8-0.4,2.4-1.5,3.1-2.8
		c1.8-3.1,3.5-6.2,5.5-9.1c6-8.4,13.6-15.2,22.1-21.1c1.3-0.9,3.3-1.4,2.1-4c-5.8-12.8-11.3-25.7-16.9-38.6c-0.8-1.8-2-2.1-3.8-2.1
		c-13.3,0.3-26.7,0.6-40,0.8c-38.2,0.7-76.5,1.4-114.7,1.9c-3,0-3.7,1.1-3.9,3.8c-0.6,6.2-1.6,12.3-2.2,18.5
		c-1.4,14.4-3.9,28.8-4.2,43.3c-0.1,3.5,0.6,6.7,2.6,9.7c1.4,2.1,2.5,2.3,4.4,0.4c5.1-4.9,10.4-9.7,15.6-14.5c2-1.9,5.3-3.8,5.6-5.9
		c0.3-2.1-3.8-3.1-5.7-4.9c-0.4-0.4-0.9-0.8-1.2-1.3c-1.7-2.5-3.1-5.3-1.6-8.3c1.6-3.1,4.7-2.8,7.5-2.4c11.2,1.6,20.6,7,29.1,14.2
		c1.9,1.6,3.8,3.7,2.7,6.5c-1.1,3-3.9,3.7-6.9,3.9c-5.9,0.3-11-2.2-16.2-4.2c-1.3-0.5-2.5-1.5-4,0.1
		C255,160.5,247.9,167.4,240.3,175.1z M300.7,246.6c6.2,0,12.4,0,18.7,0c12.3-0.1,24.6,0.1,36.8-1.8c4.9-0.7,8.1-3.5,10-7.8
		c1.7-3.8,2.6-8,2.7-12.1c0.5-14.5,0.7-29,1.1-43.5c0.1-2.5-0.4-3-3.2-2.8c-17.7,1.3-35.4,3.6-53.2,3.8c-23.9,0.3-47.7,0.8-71.6-0.9
		c-3-0.2-4,0.2-3.5,3.7c2.2,16,4,32,5,48.1c0.7,10.6,3.4,13.2,14,13.3C271.9,246.6,286.3,246.6,300.7,246.6z M216.1,220.9
		c-0.4,0-0.9,0-1.3,0c0-12.1,0-24.3,0-36.4c0-2.1,1-5.4-0.7-6.2c-2.3-1.1-4.4,1.6-6.4,3.1c-4.2,3.2-7.9,7.3-13.2,8.9
		c-2.1,0.6-2.9,1.2-2.7,3.5c0.4,3.6-1.4,5.2-5.1,5.7c-16.7,2.3-33.6,3.2-50.4,5.3c-3.5,0.4-8.4-0.5-10.2,1.5
		c-2.1,2.3,0.3,6.9,0.6,10.5c0,0.3,0.1,0.6,0.1,0.9c-0.1,1.7,0.8,2.4,2.5,2.2c7.3-0.8,13.5,2.3,19.7,5.5
		c12.7,6.5,23.8,15.2,33.2,25.7c8.1,9.1,17,14.6,29.5,12.7c0.1,0,0.3,0,0.4,0c3.6,1.1,4.2-0.6,4.1-3.8
		C216,246.9,216.1,233.9,216.1,220.9z M360.1,45.9c-7.1,1.1-16.6-1.7-26,1C298.6,57.3,263,67.5,227.4,77.7c-8.7,2.5-17.3,5.2-26,7.5
		c-2.9,0.8-3.7,3-3.2,4.9c0.6,2.2,2.6,0.4,4,0.1c3-0.7,6-1.7,9-2.5c42.7-12.3,85-25.6,129-32.7c21-3.4,42.1-5.1,63.3-3.3
		c12.7,1.1,25.3,2.9,37.9,4.6c20,2.6,39.9,5.4,59.9,8.1c2.3,0.3,3.6,1,3.7,3.8c0.3,11,0.7,21.9-0.5,32.8
		c-1.3,11.3-2.8,22.6-4.1,33.9c-0.1,1-1,2.4,0.9,2.8c2.4,0.6,7.9-2.8,8.2-5.1c2.7-21.1,5.4-42.3,7.9-63.4c0.7-5.6-0.9-7.4-6.3-8.6
		c-17.9-4-35.8-8-53.7-12.2c-13.7-3.2-27.3-5.7-41.7-4.3C398,45.9,380.2,46.8,360.1,45.9z M203.4,268.5c6.1,6.1,11.6,10.9,17.5,15.4
		c3.6,2.8,6.9,4.4,12.2,4.1c37.8-2.1,75.7-3.4,113.6-5c15.1-0.6,30.2-1.3,45.3-1.9c1.4-0.1,3.2,0.5,3.3-1.8
		c0.1-3.6,1.5-6.9,2.6-10.3c0.8-2.7-0.1-3-2.5-2.7c-14.4,1.9-28.9,2.7-43.3,3.6c-40.6,2.6-81.1,3.2-121.7,0.6
		C221.8,270,213.2,269.2,203.4,268.5z M473.9,215.5c-3.1,0-6.2-0.2-9.3,0.1c-2.5,0.2-5,0.7-7.4,1.3c-27.9,7.8-45.4,26.6-55.4,53.1
		c-4.2,11.1-3.1,12.2,8.5,10.6c3-0.4,4.3-1.2,5.2-4.5c5.2-20.3,17.7-34.8,37.3-42c25.5-9.3,52.4-0.6,69.4,21.8
		c3.5,4.6,7.8,5.2,12.8,5.4c1.7,0.1,2.6-0.5,1.8-2.4c-5.9-13.5-12.5-26.5-26-34.3C499.4,218,487,215.4,473.9,215.5z M103.8,354.9
		c28.3,0.8,53.4-22.6,54.1-50.2c0.8-30.6-21.9-55.3-51.4-56.1c-30.3-0.7-54.2,22-55.2,52.4C50.4,329.5,74.3,354.1,103.8,354.9z
		 M474.4,347.2c28.2,0.8,53-22.8,53.8-51.1c0.8-30-22.2-54.8-51.5-55.5c-25.7-0.6-53.6,25.9-54.7,51.2
		C420.7,323.2,445.8,347.2,474.4,347.2z M484.7,144c-14.3-2.9-27.6-5.9-41.4-6.1c-5.3-0.1-10.8-0.7-15.9,0.4
		c-15.7,3.4-25.1,14.7-32.9,27.7c-1,1.6-0.7,1.8,2.1,1.5c24.4-3,48.4-7.8,71.9-15.3C474,150.4,479.4,148.2,484.7,144z M231.7,300.4
		c-13.4-5.7-24.1-13.6-33.6-23c-14-13.7-28.5-26.7-44.3-38.4c-9.1-6.7-18.6-12.3-30.5-10.9c-2.6,0.3-5.3,0.3-8,0.5
		c-22,1.2-43,6.4-62.9,15.9c-0.9,0.4-2.6,0.4-1.8,2.3c0.7,1.6,1.8,1.5,3.3,1c3.4-1.3,7-2.4,10.5-3.7c14.8-5.2,29.7-9.2,45.6-8.5
		c16.7,0.8,32.4,4.1,46,14.9c15.2,12,29.4,24.8,42.3,39.3c1.6,1.9,3,4,5.5,5C212.2,298.3,220.9,301.3,231.7,300.4z M214.7,96.4
		c0,0,0,0.1,0,0.1c-2.4,0-4.8,0.2-7.1,0c-2.9-0.3-3.8,0.9-4.2,3.6c-2.4,18.5-6.2,36.7-9.5,55.1c-0.5,2.8-2.8,6.7-0.8,8.3
		c2.6,2.1,6.4-0.3,9.6-1.4c4.7-1.6,7.6-4.3,9-9.6c4-15.4,7.8-30.9,11.1-46.6c0.7-3.1,2.9-7.3,1.1-9.1
		C222.4,95.1,217.9,96.4,214.7,96.4z M261.6,175.5c8.3,0,16.6-0.1,24.9,0.1c4,0.1,7.5-0.3,10-4c2-2.9,5.4-3.4,8.6-4
		c13.9-2.8,27.9-5.4,41.7-8.4c7.4-1.6,13.9-4.9,18.3-11.5c2.8-4.2,2.2-5.7-2.6-6.6c-16.9-3-31.8,0.6-43.6,13.6
		c-5.3,5.9-11.8,9.7-19.3,12c-7.1,2.1-14.3,3.4-21.7,4.4C272.3,171.7,266.6,172,261.6,175.5z M228.9,291.9c4.2,3.1,7.9,3.9,11.8,4.3
		c5.2,0.4,10.3-0.5,15.5-0.6c34.5-1,69-1.8,103.5-2.7c16.7-0.4,33.5-0.9,50.2-1.1c3.5,0,3.3-1.9,3.4-4.2c0.2-3.4-2.2-2-3.6-2
		c-4.3,0-8.6,0.2-12.9,0.3c-38.2,1.4-76.3,2.8-114.5,4.2C264.9,290.6,247.4,291.2,228.9,291.9z M292.7,70.9c0.9,0.7,1.1,1,1.3,1
		c17.9-2.3,35.8-4.4,53.8-4.9c31-0.8,61.9-0.5,92.9-0.7c11.6-0.1,23.1-0.1,34.7-0.2c1.7,0,3.5,0.4,4.9-1.2c-1.7-0.2-3.2-0.4-4.8-0.5
		c-25.6-1.7-51.1-3.5-76.7-5.2c-9.1-0.6-18.5-2.5-27.4-1.3C345.3,61.6,319.3,66.4,292.7,70.9z M107.4,197.7c4.1-3.2,8.5-5,13.4-5.7
		c9.4-1.3,18.7-2.9,28.1-4.3c11.6-1.7,23.1-3.4,34.7-5.2c0.9-0.1,2.5,0.6,2.5-1.5c-0.1-4.5-4.1-7.7-8.6-6.9
		c-15.2,2.5-30.3,5-45.5,7.5c-9.1,1.5-18.2,3.1-27.6,4.7C106.2,190.2,106.2,193.9,107.4,197.7z M480.3,132.4
		c-0.4-0.8-0.8-1.6-1.2-2.3c-5.7-9-11.4-18-17-27c-0.9-1.5-2.2-1.8-3.7-1.8c-5.1,0.1-9.4,1.5-11.7,6.4c-2.5,5.3-1.7,10.5,1.7,15
		C454.4,130.6,470.2,135.3,480.3,132.4z M302.3,174.8c0.6,0.3,0.8,0.5,1,0.5c21-1.5,41.9-3,62.9-4.5c1.8-0.1,2.3-1,2.3-2.5
		c0-4.1,0-8.2,0-12.7c-4.9,2.2-8.6,5.1-13,6.8c-13.7,5.3-28.3,6-42.5,8.6C309.2,171.6,305.4,171.9,302.3,174.8z M422.6,112.4
		c0.3,0,0.6,0,0.9,0c0-5.6,0-11.2,0-16.8c0-1.5,0.3-2.9-2-3c-4.7-0.2-9.4-0.7-14.1-1.1c-2.3-0.2-2.8,0.7-2.1,2.8
		c4,12.5,9.6,24.4,14.8,36.5c0.3,0.7,0.6,1.9,1.8,1.6c1.1-0.3,0.8-1.4,0.8-2.3C422.6,124.2,422.6,118.3,422.6,112.4z M122.4,196.8
		c1.8,4.4,4.6,5.4,8.6,4.4c2-0.5,4.1-0.4,6.2-0.7c14.6-1.9,29.2-4.8,44-5c3.6,0,3.8-1.5,3.5-4.2c-0.3-2.6-0.8-4.5-4.4-3.9
		C161,190.6,141.8,193.7,122.4,196.8z M469.8,101.5c6.5,10.2,12.5,19.6,18.4,28.9c0.7,1.1,1.4,1.9,2.9,1.6c1.4-0.3,2.5-0.8,2.7-2.5
		c0.5-3.2,1-6.4,1.6-9.6c1-5-1.2-8.6-4.9-11.5C484.7,103.8,477.8,102.2,469.8,101.5z M69,251c-23.1,4-36.5,34.8-26.2,53.8
		C43.2,281.4,47.2,273.2,69,251z M418.3,319.1c-2.5-7.5-4.6-14.2-5.1-21.3c-0.1-1.1-0.8-1.4-1.8-1.4c-4.9,0.3-9.8,0.5-15.1,0.8
		C401.1,307.3,407.6,314.7,418.3,319.1z M82.3,226.9c2.6-0.7,4.7-1.4,6.9-1.7c2-0.3,2.8-1.3,2.8-3.3c-0.2-9-3.8-16.7-9-24
		C76.5,207.8,81.9,217.2,82.3,226.9z M94,184.1c-5.2,0.2-7,2.6-5.3,7.2c1.3,3.6,2.7,7.2,3.4,11c0.2,1.4,0.6,2.9,2.5,2.1
		c2.1-0.9,6.2-0.2,6-2.9c-0.3-5-0.4-10.4-3.1-15C96.6,185,95.9,183.7,94,184.1z M191.8,183.6c2.6-0.8,4.1-2.1,5.7-3.4
		c3.9-3.2,7.9-6.2,12.5-8.2c1.5-0.6,2.8-0.8,1.7-3c-0.9-1.7-1.4-2.9-3.9-1.7c-4.9,2.4-10.1,4-15.6,4.5c-2,0.2-2.6,0.8-1.9,2.8
		C191.4,177.3,192,180.2,191.8,183.6z M106.9,219.9c-0.6-3.9-0.6-7.5-2.1-10.7c-1-2.1-2.7-2.7-4.7-1.8c-1.8,0.8-4.4,1.1-3.8,4.4
		c0.5,3,0.9,6.1,0.9,9.2c0,2.3,1.1,2.7,3,2.3c1.4-0.3,2.9-0.7,4.4-0.7C106.9,222.5,107.3,221.4,106.9,219.9z M59.8,222.2
		c-8,2.1-15.4,4.2-21.6,9.3c-1.1,0.9-1.8,1.7-0.8,3.3c1.1,1.7,2.1,1.1,3.2,0.3c3.8-2.9,8.4-4.2,12.9-5.5
		C57,228.7,59.3,226.8,59.8,222.2z M119.3,218.1c-0.5-3.6-0.3-6.9-1.7-9.9c-1.3-2.9-3.4-2-5.5-1.4c-2.7,0.8-1.1,2.4-0.7,3.8
		c0.7,2.7,1.4,5.4,2,8.1c0.4,1.7,0.7,3.2,3.1,2.6C118.4,220.6,120,220.1,119.3,218.1z M67,231.4c2.2-0.6,4-1.2,5.9-1.6
		c1.5-0.3,2.4-0.8,2.2-2.5c-0.4-3.8-0.8-7.6-1.2-12C68.6,219.7,66.4,224.6,67,231.4z M267.3,148.3c4.1,2.4,8.2,3.9,12.6,4.6
		c1.2,0.2,2.4,0.1,3.3-0.9c0.5-0.5,0.3-1.2-0.1-1.6c-2.9-2.8-6.6-4.6-10.2-5.9C270.3,143.7,269.3,146.9,267.3,148.3z M267.8,141.7
		c-2.7-1.4-4.8-2.6-7.1-3.6c-1.5-0.6-3.3-0.9-4.4,0.7c-1,1.5,0.2,2.8,1.1,3.9C260.7,146.7,262.8,146.6,267.8,141.7z M91.3,179
		c0.9-0.4,2.8,0.7,2.5-1.7c-0.2-1.8-1.2-3.2-2.8-3.4c-1.7-0.1-2.2,1.6-2.3,3C88.5,178.7,89.6,179.2,91.3,179z"/>
	<path class="lt1" d="M506.6,142.9c1.4,3.7-0.3,7.2-0.7,10.7c-2,17.2-5.1,34.2-9.3,51c-1.2,4.7-2.9,5.7-7.7,5.1
		c-12.7-1.6-25.4-1.3-37.9,1.8c-16.8,4.1-29.2,14.4-39.9,27.3c-5,6.1-9.7,12.4-12.6,19.7c-0.9,2.4-2.5,2.1-4.2,2.2
		c-21,1.4-42,2.9-63,4.2c-35,2.2-69.9-0.7-104.9-0.1c-3.6,0.1-3.3-1.8-3.3-4.1c0-23.7-0.1-47.4-1-71.1c-0.4-9.3-0.8-18.7-5.6-27.1
		c-0.8-1.5-0.5-2.8-0.1-4.3c4.3-20,8.5-39.9,12.8-59.9c0.3-1.3-0.1-3.4,2.2-3.1c2.5,0.3,1.1,2.3,0.9,3.5
		c-2.9,20.8-5.8,41.6-8.8,62.4c-0.3,2.2,0.3,3.9,1.3,5.4c6,8.8,7.4,18.7,7.9,29.1c0.7,13.6,1.8,27.2,2.9,40.8
		c0.9,11.2,5.1,15.4,16.3,16.3c2.1,0.2,4.1,0.4,6.2,0.5c28,0.7,56,2.1,84,0.2c8.6-0.6,17.1-1.3,25.4-4c2.9-0.9,4.3-2.7,5-5.5
		c5-19.9,6-40.1,3.8-60.4c-0.5-4.7,0.9-5.9,5.2-6.3c22.3-2.1,44.4-5.4,66.1-10.8c16.7-4.1,32.9-9.6,48.5-16.9
		c3.8-1.8,7.3-3.9,10.5-6.5L506.6,142.9z"/>
	<path class="lt2" d="M240.3,175.1c7.6-7.6,14.6-14.6,21.5-21.7c1.5-1.5,2.7-0.5,4-0.1c5.2,2,10.3,4.5,16.2,4.2
		c3-0.2,5.7-0.9,6.9-3.9c1.1-2.8-0.8-4.9-2.7-6.5c-8.5-7.2-17.9-12.6-29.1-14.2c-2.8-0.4-5.9-0.7-7.5,2.4c-1.5,3-0.2,5.7,1.6,8.3
		c0.3,0.5,0.8,0.9,1.2,1.3c1.9,1.8,6,2.7,5.7,4.9c-0.3,2.2-3.5,4-5.6,5.9c-5.2,4.9-10.5,9.6-15.6,14.5c-1.9,1.8-3,1.7-4.4-0.4
		c-2-3-2.7-6.2-2.6-9.7c0.3-14.5,2.8-28.9,4.2-43.3c0.6-6.2,1.6-12.3,2.2-18.5c0.2-2.7,0.9-3.8,3.9-3.8c38.2-0.6,76.5-1.3,114.7-1.9
		c13.3-0.2,26.7-0.5,40-0.8c1.8,0,3,0.3,3.8,2.1c5.6,12.9,11.2,25.8,16.9,38.6c1.2,2.7-0.9,3.1-2.1,4c-8.5,5.9-16.1,12.6-22.1,21.1
		c-2.1,2.9-3.8,6-5.5,9.1c-0.8,1.3-1.4,2.4-3.1,2.8c-5.8,1.2-5.8,1.3-6.4-4.8c-0.4-5,0.6-10-0.1-15.1c-0.9-6.6-3.7-10.3-10.1-11.9
		c-9.2-2.3-18.5-4-28.1-2.2c-6.7,1.3-12.7,3.8-17.8,8.3c-4.5,3.9-9,7.7-13.8,11.1c-11.7,8.3-25.5,10-39.1,11.6
		c-5.9,0.7-10.6,2-13.4,7.6c-0.7,1.3-1.6,2-3.2,1.8C247.5,175.5,244.4,175.3,240.3,175.1z"/>
	<path class="lt3" d="M300.7,246.6c-14.4,0-28.8,0-43.1,0c-10.6,0-13.3-2.7-14-13.3c-1-16.1-2.9-32.2-5-48.1
		c-0.5-3.5,0.5-3.9,3.5-3.7c23.8,1.7,47.7,1.3,71.6,0.9c17.8-0.2,35.5-2.5,53.2-3.8c2.8-0.2,3.3,0.4,3.2,2.8
		c-0.4,14.5-0.6,29-1.1,43.5c-0.1,4.1-1,8.2-2.7,12.1c-1.9,4.4-5.1,7.1-10,7.8c-12.2,1.9-24.5,1.7-36.8,1.8
		C313.1,246.6,306.9,246.6,300.7,246.6z M353.7,199.6c2.3-0.4,4.7-0.6,7-1.3c2.3-0.7,3.3-2.6,2.7-4.9c-0.6-2.4-2.6-1.7-4-1.2
		c-4.7,1.5-9.4,0.8-14.1,0.5c-1.2-0.1-2.9-0.5-3.2,1.4c-0.3,1.7,0.5,2.9,2.1,3.4C347.3,198.7,350.4,199.6,353.7,199.6z"/>
	<path class="lt4" d="M216.1,220.9c0,13-0.1,26,0.1,39.1c0,3.2-0.5,4.9-4.1,3.8c-0.1,0-0.3,0-0.4,0c-12.5,2-21.3-3.6-29.5-12.7
		c-9.4-10.5-20.5-19.2-33.2-25.7c-6.2-3.2-12.4-6.3-19.7-5.5c-1.7,0.2-2.5-0.5-2.5-2.2c0-0.3-0.1-0.6-0.1-0.9
		c-0.3-3.6-2.7-8.2-0.6-10.5c1.8-2,6.7-1.1,10.2-1.5c16.8-2,33.6-2.9,50.4-5.3c3.7-0.5,5.5-2.1,5.1-5.7c-0.3-2.3,0.6-2.9,2.7-3.5
		c5.3-1.5,8.9-5.6,13.2-8.9c1.9-1.5,4.1-4.1,6.4-3.1c1.7,0.8,0.7,4,0.7,6.2c0.1,12.1,0,24.3,0,36.4
		C215.2,220.9,215.6,220.9,216.1,220.9z M211.3,189.5c-0.4-1.3,0.7-3.6-1.1-4.5c-2.1-1-3.3,1.2-4.8,2.3c-3.2,2.4-6,5.3-9.6,7
		c-0.8,0.4-2,0.9-1.6,2.3c0.4,1.3,1.4,1.8,2.8,1.5c3-0.6,6-1.8,9.1-1.8C211,196.3,211.4,193.5,211.3,189.5z"/>
	<path class="lt5" d="M360.1,45.9c20.1,0.9,37.9,0,55.6-1.7c14.4-1.4,28,1.1,41.7,4.3c17.9,4.2,35.8,8.1,53.7,12.2
		c5.4,1.2,7,3.1,6.3,8.6c-2.6,21.2-5.3,42.3-7.9,63.4c-0.3,2.4-5.8,5.7-8.2,5.1c-1.9-0.5-1-1.8-0.9-2.8c1.4-11.3,2.9-22.6,4.1-33.9
		c1.2-10.9,0.9-21.9,0.5-32.8c-0.1-2.8-1.4-3.5-3.7-3.8c-20-2.7-39.9-5.5-59.9-8.1c-12.6-1.7-25.2-3.5-37.9-4.6
		c-21.2-1.8-42.3-0.1-63.3,3.3c-44,7.1-86.4,20.4-129,32.7c-3,0.9-5.9,1.8-9,2.5c-1.3,0.3-3.4,2.1-4-0.1c-0.5-1.9,0.3-4.1,3.2-4.9
		c8.7-2.3,17.4-5,26-7.5C263,67.5,298.6,57.3,334.1,47C343.5,44.3,353,47,360.1,45.9z"/>
	<path class="lt6" d="M203.4,268.5c9.8,0.7,18.3,1.5,26.9,2c40.6,2.6,81.1,2,121.7-0.6c14.5-0.9,29-1.8,43.3-3.6
		c2.4-0.3,3.3,0,2.5,2.7c-1,3.4-2.5,6.7-2.6,10.3c-0.1,2.3-1.9,1.8-3.3,1.8c-15.1,0.6-30.2,1.3-45.3,1.9c-37.9,1.6-75.8,2.9-113.6,5
		c-5.3,0.3-8.6-1.3-12.2-4.1C215,279.4,209.5,274.6,203.4,268.5z"/>
	<path class="lt7" d="M473.9,215.5c13.1-0.1,25.5,2.5,37,9.1c13.5,7.8,20.1,20.8,26,34.3c0.8,1.8-0.1,2.4-1.8,2.4
		c-4.9-0.2-9.3-0.8-12.8-5.4c-17.1-22.5-43.9-31.2-69.4-21.8c-19.6,7.2-32.1,21.6-37.3,42c-0.8,3.3-2.2,4.1-5.2,4.5
		c-11.6,1.6-12.7,0.5-8.5-10.6c10-26.4,27.5-45.2,55.4-53.1c2.4-0.7,4.9-1.2,7.4-1.3C467.7,215.4,470.8,215.5,473.9,215.5z"/>
	<path class="lt8" d="M103.8,354.9c-29.4-0.8-53.4-25.4-52.4-53.8c1-30.5,24.9-53.2,55.2-52.4c29.5,0.7,52.2,25.5,51.4,56.1
		C157.2,332.3,132,355.7,103.8,354.9z M150,301.8c0.1-24.8-20-45.1-44.6-45.2c-26.1-0.1-45.8,19.7-46.1,46.1
		c-0.2,25.8,22.1,44,44.1,44.2C129.6,347.2,149.9,327.4,150,301.8z"/>
	<path class="lt9" d="M474.4,347.2c-28.6,0-53.7-24-52.4-55.3c1.1-25.3,29-51.8,54.7-51.2c29.3,0.7,52.3,25.5,51.5,55.5
		C527.5,324.4,502.7,348,474.4,347.2z M520.3,293.8c0-25-20-45-45.2-45.1c-25.7-0.1-45.6,20.3-45.7,46.5
		c-0.1,26.8,24.6,44.1,44.5,44C500,339.1,520.3,319.3,520.3,293.8z"/>
	<path class="lt10" d="M484.7,144c-5.3,4.2-10.7,6.4-16.3,8.2c-23.5,7.5-47.5,12.3-71.9,15.3c-2.8,0.3-3.1,0.1-2.1-1.5
		c7.8-12.9,17.2-24.3,32.9-27.7c5.1-1.1,10.6-0.5,15.9-0.4C457.1,138.1,470.5,141.2,484.7,144z"/>
	<path class="lt11" d="M231.7,300.4c-10.8,0.9-19.4-2.2-28-5.6c-2.5-1-3.9-3.2-5.5-5c-12.8-14.5-27.1-27.3-42.3-39.3
		c-13.6-10.8-29.3-14.1-46-14.9c-15.8-0.7-30.8,3.3-45.6,8.5c-3.5,1.2-7,2.3-10.5,3.7c-1.5,0.6-2.6,0.6-3.3-1
		c-0.9-1.9,0.8-1.8,1.8-2.3c19.9-9.4,40.9-14.7,62.9-15.9c2.7-0.1,5.3-0.2,8-0.5c12-1.3,21.4,4.2,30.5,10.9
		c15.8,11.6,30.4,24.6,44.3,38.4C207.6,286.9,218.2,294.7,231.7,300.4z"/>
	<path class="lt12" d="M214.7,96.4c3.2,0,7.7-1.3,9.3,0.3c1.8,1.8-0.5,6-1.1,9.1c-3.3,15.6-7.1,31.1-11.1,46.6c-1.4,5.3-4.3,8-9,9.6
		c-3.2,1.1-7,3.5-9.6,1.4c-2-1.6,0.3-5.5,0.8-8.3c3.3-18.3,7.1-36.6,9.5-55.1c0.4-2.7,1.3-3.9,4.2-3.6c2.3,0.2,4.7,0,7.1,0
		C214.7,96.4,214.7,96.4,214.7,96.4z"/>
	<path class="lt13" d="M261.6,175.5c4.9-3.6,10.7-3.8,16.3-4.5c7.3-0.9,14.6-2.3,21.7-4.4c7.6-2.3,14-6.1,19.3-12
		c11.8-13.1,26.7-16.7,43.6-13.6c4.8,0.9,5.4,2.4,2.6,6.6c-4.3,6.6-10.9,9.9-18.3,11.5c-13.9,3-27.8,5.6-41.7,8.4
		c-3.2,0.6-6.6,1.2-8.6,4c-2.5,3.7-5.9,4.1-10,4C278.2,175.4,269.9,175.5,261.6,175.5z"/>
	<path class="lt14" d="M228.9,291.9c18.5-0.7,35.9-1.3,53.3-1.9c38.2-1.4,76.3-2.8,114.5-4.2c4.3-0.2,8.6-0.3,12.9-0.3
		c1.4,0,3.8-1.3,3.6,2c-0.2,2.3,0.1,4.1-3.4,4.2c-16.7,0.2-33.5,0.7-50.2,1.1c-34.5,0.9-69,1.7-103.5,2.7
		c-5.2,0.1-10.3,1.1-15.5,0.6C236.8,295.8,233.1,295,228.9,291.9z"/>
	<path class="lt15" d="M292.7,70.9c26.6-4.5,52.6-9.4,78.8-13c8.9-1.2,18.3,0.7,27.4,1.3c25.6,1.7,51.1,3.4,76.7,5.2
		c1.6,0.1,3.1,0.3,4.8,0.5c-1.4,1.7-3.2,1.2-4.9,1.2c-11.6,0.1-23.1,0.1-34.7,0.2c-31,0.2-62-0.1-92.9,0.7c-18,0.5-36,2.6-53.8,4.9
		C293.8,72,293.6,71.6,292.7,70.9z"/>
	<path class="lt16" d="M107.4,197.7c-1.2-3.8-1.2-7.6-3.1-11.4c9.4-1.6,18.5-3.2,27.6-4.7c15.2-2.5,30.3-5,45.5-7.5
		c4.5-0.8,8.5,2.5,8.6,6.9c0.1,2.1-1.5,1.4-2.5,1.5c-11.5,1.8-23.1,3.5-34.7,5.2c-9.4,1.4-18.7,2.9-28.1,4.3
		C115.9,192.8,111.5,194.6,107.4,197.7z"/>
	<path class="lt17" d="M480.3,132.4c-10.1,2.9-26-1.8-32-9.7c-3.4-4.5-4.2-9.7-1.7-15c2.3-4.9,6.7-6.3,11.7-6.4
		c1.6,0,2.8,0.3,3.7,1.8c5.6,9,11.3,18,17,27C479.5,130.8,479.9,131.6,480.3,132.4z"/>
	<path class="lt18" d="M302.3,174.8c3.1-2.9,6.9-3.2,10.6-3.9c14.2-2.6,28.8-3.3,42.5-8.6c4.4-1.7,8.1-4.6,13-6.8
		c0,4.6,0,8.7,0,12.7c0,1.6-0.5,2.4-2.3,2.5c-21,1.5-41.9,3-62.9,4.5C303.1,175.3,302.8,175.1,302.3,174.8z"/>
	<path class="lt12" d="M422.6,112.4c0,5.9,0,11.8,0,17.7c0,0.8,0.3,1.9-0.8,2.3c-1.2,0.3-1.4-0.8-1.8-1.6c-5.2-12-10.7-24-14.8-36.5
		c-0.7-2.1-0.2-3,2.1-2.8c4.7,0.4,9.4,0.9,14.1,1.1c2.4,0.1,2,1.5,2,3c-0.1,5.6,0,11.2,0,16.8C423.2,112.4,422.9,112.4,422.6,112.4z
		"/>
	<path class="lt19" d="M122.4,196.8c19.4-3.1,38.7-6.1,57.9-9.3c3.5-0.6,4,1.3,4.4,3.9c0.3,2.7,0.1,4.2-3.5,4.2
		c-14.8,0.2-29.4,3.1-44,5c-2.1,0.3-4.2,0.2-6.2,0.7C127,202.2,124.1,201.2,122.4,196.8z"/>
	<path class="lt20" d="M469.8,101.5c8.1,0.7,14.9,2.3,20.7,6.9c3.7,2.9,5.9,6.6,4.9,11.5c-0.6,3.2-1.1,6.4-1.6,9.6
		c-0.3,1.6-1.3,2.2-2.7,2.5c-1.4,0.3-2.2-0.5-2.9-1.6C482.2,121,476.3,111.7,469.8,101.5z"/>
	<path class="lt12" d="M69,251c-21.8,22.2-25.8,30.4-26.2,53.8C32.6,285.8,45.9,255,69,251z"/>
	<path class="lt12" d="M418.3,319.1c-10.7-4.4-17.2-11.8-22-21.9c5.3-0.3,10.2-0.5,15.1-0.8c1-0.1,1.7,0.3,1.8,1.4
		C413.8,304.9,415.9,311.6,418.3,319.1z"/>
	<path class="lt21" d="M82.3,226.9c-0.4-9.7-5.7-19.1,0.6-29c5.2,7.3,8.8,15,9,24c0.1,1.9-0.8,2.9-2.8,3.3
		C87,225.6,84.8,226.3,82.3,226.9z"/>
	<path class="lt22" d="M94,184.1c1.9-0.5,2.7,0.9,3.5,2.4c2.7,4.7,2.7,10,3.1,15c0.2,2.7-3.9,2-6,2.9c-1.8,0.8-2.2-0.7-2.5-2.1
		c-0.7-3.8-2.1-7.4-3.4-11C87,186.8,88.8,184.3,94,184.1z"/>
	<path class="lt23" d="M191.8,183.6c0.2-3.3-0.4-6.2-1.4-9c-0.7-2-0.1-2.6,1.9-2.8c5.5-0.5,10.7-2.1,15.6-4.5c2.4-1.2,2.9,0,3.9,1.7
		c1.2,2.1-0.2,2.3-1.7,3c-4.6,2-8.6,5-12.5,8.2C195.9,181.4,194.4,182.8,191.8,183.6z"/>
	<path class="lt24" d="M106.9,219.9c0.4,1.5,0,2.7-2.3,2.7c-1.5,0-2.9,0.4-4.4,0.7c-1.9,0.4-3,0-3-2.3c-0.1-3.1-0.4-6.2-0.9-9.2
		c-0.6-3.2,2-3.5,3.8-4.4c2-0.9,3.7-0.3,4.7,1.8C106.4,212.4,106.3,216,106.9,219.9z"/>
	<path class="lt25" d="M59.8,222.2c-0.5,4.6-2.8,6.5-6.2,7.4c-4.5,1.3-9.1,2.5-12.9,5.5c-1.1,0.9-2.1,1.4-3.2-0.3
		c-1-1.6-0.4-2.4,0.8-3.3C44.4,226.4,51.8,224.3,59.8,222.2z"/>
	<path class="lt26" d="M119.3,218.1c0.7,2-0.9,2.5-2.8,3.1c-2.4,0.7-2.7-0.9-3.1-2.6c-0.6-2.7-1.3-5.4-2-8.1c-0.4-1.4-1.9-3,0.7-3.8
		c2.1-0.6,4.2-1.5,5.5,1.4C119,211.2,118.8,214.5,119.3,218.1z"/>
	<path class="lt27" d="M67,231.4c-0.7-6.8,1.5-11.7,6.9-16.2c0.4,4.4,0.8,8.2,1.2,12c0.2,1.8-0.7,2.2-2.2,2.5
		C71.1,230.2,69.3,230.8,67,231.4z"/>
	<path class="lt12" d="M267.3,148.3c2-1.4,3-4.7,5.6-3.8c3.7,1.3,7.3,3.1,10.2,5.9c0.4,0.4,0.6,1.1,0.1,1.6c-0.9,1-2.1,1.1-3.3,0.9
		C275.5,152.2,271.4,150.8,267.3,148.3z"/>
	<path class="lt12" d="M267.8,141.7c-5.1,4.8-7.1,5-10.4,1c-0.9-1.1-2.2-2.4-1.1-3.9c1.1-1.6,2.9-1.4,4.4-0.7
		C263,139.1,265.2,140.3,267.8,141.7z"/>
	<path class="lt20" d="M91.3,179c-1.7,0.2-2.8-0.4-2.7-2.1c0.1-1.5,0.6-3.2,2.3-3c1.7,0.1,2.6,1.6,2.8,3.4
		C94.1,179.7,92.2,178.7,91.3,179z"/>
	<path class="lt2" d="M530.6,268.9c-0.2-0.2-0.4-0.4-0.5-0.6c0.4,0,0.8-0.1,1.1-0.1C531,268.4,530.8,268.6,530.6,268.9z"/>
	<path class="lt2" d="M506.6,143c0.2,0.1,0.5,0.1,0.7,0.2c-0.1,0.1-0.2,0.2-0.2,0.3c-0.2-0.2-0.3-0.4-0.5-0.6
		C506.6,142.9,506.6,143,506.6,143z"/>
	<path class="lt0" d="M353.7,199.6c-3.4,0-6.5-0.9-9.5-2c-1.6-0.6-2.4-1.8-2.1-3.4c0.3-1.9,2-1.5,3.2-1.4c4.7,0.3,9.4,1,14.1-0.5
		c1.4-0.5,3.4-1.2,4,1.2c0.6,2.3-0.4,4.2-2.7,4.9C358.5,199,356.1,199.2,353.7,199.6z"/>
	<path class="lt0" d="M211.3,189.5c0.1,4-0.3,6.8-5.2,6.8c-3,0-6,1.2-9.1,1.8c-1.4,0.3-2.3-0.2-2.8-1.5c-0.5-1.4,0.7-1.9,1.6-2.3
		c3.7-1.7,6.4-4.6,9.6-7c1.5-1.1,2.7-3.3,4.8-2.3C212,185.9,210.8,188.2,211.3,189.5z"/>
	<path id="firstWheel" class="lt0" d="M150,301.8c-0.1,25.5-20.4,45.3-46.6,45.1c-22-0.2-44.4-18.4-44.1-44.2
		c0.2-26.3,20-46.2,46.1-46.1C130,256.7,150,277.1,150,301.8z M104.8,288.9c-7.5,0-12.9,5.3-13,12.7c-0.1,7.1,5.7,12.9,12.9,12.9
		c6.9,0,12.7-5.6,12.8-12.6C117.6,294.6,112,288.9,104.8,288.9z M106.8,271.9c0,2.8,0.1,5.6,0,8.4c-0.1,2.2,0.7,3.1,2.7,4.1
		c4.2,2,6.6,1.3,8.4-3c0.8-2,2.3-3.8,3.5-5.6c6.2-9.8,6.1-10.1-5.6-13.5c-9-2.6-9-2.6-9,6.5C106.8,269.9,106.8,270.9,106.8,271.9z
		 M95.1,318c0.2-1.9-4-4.4-6-3.4c-5.9,2.8-11.7,5.8-17.6,8.5c-2,0.9-1.7,1.8-0.6,3.3c2.4,3.3,5.4,5.8,8.5,8.4c2,1.7,3.2,1.8,4.8-0.7
		c3-4.9,6.4-9.6,9.7-14.4C94.4,319.2,94.8,318.6,95.1,318z M139.2,324.2c-0.3-1.4-1.4-1.7-2.2-2.2c-4.6-2.7-9.2-5.4-13.8-8
		c-1.6-0.9-3-2.8-5.3-0.3c-2,2.2-2,3.7-0.5,6c2.1,3.2,3.9,6.6,5.8,10c4.2,7.3,4.2,7.4,10.3,1.2C135.5,328.8,137.3,326.4,139.2,324.2
		z M75.9,299.8c2.1,0,4.1-0.1,6.2,0c2.6,0.1,4.5,0.1,5.4-3.2c0.8-3.3-1.3-3.7-3.1-4.8c-2.7-1.6-5.4-3.1-8-4.6
		c-9.1-5.2-10.4-4.5-11.6,6.3c-0.7,6.3-0.7,6.3,5.8,6.3C72.4,299.8,74.1,299.8,75.9,299.8z M106.8,331.3c0,13.2,0.7,13.7,12.7,9.1
		c0.1-0.1,0.3-0.1,0.4-0.2c2.5-0.7,2.8-2,1.4-4.2c-3-4.9-5.7-10-8.5-15c-0.8-1.4-1.4-2.4-3.4-1.8c-1.8,0.5-2.8,1.2-2.7,3.3
		C106.9,325.4,106.8,328.4,106.8,331.3z M93.3,287.2c-0.5-1-0.8-1.8-1.2-2.5c-1.5-2.7-2.8-5.5-4.6-8.1c-2.1-3-2.5-8.8-6.5-8.6
		c-3.7,0.2-6.5,4.7-9.1,7.9c-0.1,0.1-0.2,0.2-0.3,0.3c-1.1,1.2-1.3,2.1,0.4,3.1c5.8,3.2,11.6,6.6,17.3,9.9
		C91.8,290.7,92.2,288.4,93.3,287.2z M101.9,272.6c0-13.7-0.9-14.4-12.9-9.2c-0.1,0.1-0.3,0.1-0.4,0.1c-2.2,0.6-2.1,1.8-1.1,3.5
		c3.1,5.2,6,10.5,9,15.7c0.7,1.2,1.3,2.2,3.1,1.7c1.5-0.5,2.5-1.1,2.4-3C101.8,278.5,101.9,275.6,101.9,272.6z M75.6,304.6
		c-3,0-5.9,0-8.9,0c-1.7,0-2.5,0.5-2.2,2.3c0.5,3,0.9,6.1,1.4,9.2c0.4,2.2,1.5,2.8,3.7,1.7c5.2-2.7,10.6-5.2,15.9-7.8
		c1.3-0.6,2.4-1.1,1.8-2.9c-0.5-1.4-1-2.6-3-2.5C81.5,304.7,78.5,304.6,75.6,304.6z M140.2,282.2c-0.1-0.3-0.1-0.6-0.3-0.9
		c-2.3-3.8-5.1-7.3-8.4-10.2c-1-0.9-1.6-0.2-2.1,0.6c-3.5,5.5-6.9,11-10.4,16.5c-0.8,1.2-0.3,2.1,0.4,3.2c1,1.4,2,0.8,3.1,0.3
		c5.3-2.6,10.6-5.2,15.9-7.8C139.1,283.4,140.1,283.3,140.2,282.2z M145,307.1c0.3-1.5,0.5-2.8-1.9-2.8c-6,0.1-12.1,0.2-18.1,0.2
		c-1.2,0-2.3,0.2-2.7,1.7c-0.3,1.5,0.6,2.1,1.7,2.7c3,1.6,5.9,3.4,8.8,5C142.8,319.7,144,319,145,307.1z M101.9,331.1
		C101.9,331.1,101.9,331.1,101.9,331.1c0.1-3,0.1-5.9,0.1-8.9c0-1,0.3-2.2-1-2.7c-1.5-0.6-2.1,0.5-2.7,1.6
		c-2.4,3.9-4.9,7.7-7.3,11.6c-4.7,7.5-4.7,7.7,4.2,9.5c6.8,1.4,6.8,1.4,6.8-5.4C101.9,334.9,101.9,333,101.9,331.1z M134,299.9
		c3,0,5.9,0,8.9,0c1.5,0,2.7-0.2,2.3-2.2c-0.6-2.9-1.1-5.8-1.8-8.7c-0.3-1.2-0.8-2.2-2.5-1.3c-5.7,2.9-11.4,5.7-17.1,8.5
		c-1.1,0.5-1.6,1.2-1.3,2.5c0.3,1.1,1.2,1.2,2.1,1.2C127.8,299.9,130.9,299.9,134,299.9z"/>
	<path id="secondWheel" class="lt0" d="M520.3,293.8c0,25.5-20.3,45.4-46.4,45.4c-19.9,0-44.6-17.2-44.5-44
		c0.1-26.3,20-46.7,45.7-46.5C500.3,248.8,520.3,268.8,520.3,293.8z M462.2,293.8c0,7.4,5.7,13.1,12.8,13c7-0.1,12.9-6.1,12.9-13.1
		c0-7-5.9-12.7-13.3-12.6C467.5,281.2,462.1,286.7,462.2,293.8z M444.9,291.8c2.7,0,5.4-0.3,8,0.1c3,0.4,4-0.9,4.8-3.5
		c1-3-1.1-3.5-2.8-4.5c-2.7-1.6-5.4-3.1-8.1-4.7c-9.9-5.7-10.3-5.6-12.9,5.8c-1.6,6.8-1.6,6.8,5.2,6.8
		C441,291.8,443,291.8,444.9,291.8z M497.2,328c4.5-2.8,7.7-6.4,10.8-10.2c1.6-2,1.1-2.8-0.9-3.9c-5-2.8-10-5.7-15-8.7
		c-1.4-0.9-2.6-1.3-3.7,0.4c-0.8,1.3-3.1,2-1.6,4.4C490.4,315.9,493.8,322,497.2,328z M463.7,279.2c-0.2-0.5-0.2-0.8-0.4-1
		c-3.3-5.9-6.6-11.8-10-17.7c-0.7-1.3-1.7-0.9-2.6-0.2c-3.5,2.3-6.4,5.2-8.9,8.5c-0.7,0.9-1.1,1.8,0.2,2.5c6,3.4,12,6.9,18.1,10.1
		C462,282.4,462.7,280.3,463.7,279.2z M445.7,296.6c-13.8,0-14.4,0.7-9.8,12.1c0.1,0.1,0.1,0.3,0.2,0.4c0.4,1.6,1.2,2,2.7,1.2
		c5.7-2.8,11.4-5.6,17.1-8.3c1.3-0.6,2.3-1.1,1.7-2.9c-0.5-1.5-1-2.6-3-2.5C451.6,296.7,448.6,296.6,445.7,296.6z M504.1,296.6
		c-3,0-5.9,0-8.9,0c-1.2,0-2.4-0.1-2.7,1.6c-0.3,1.5,0.4,2.1,1.5,2.8c3.6,2,7.2,4.1,10.8,6.1c8.3,4.7,8.3,4.7,10.2-5
		c1.1-5.5,1.1-5.5-4.3-5.5C508.5,296.6,506.3,296.6,504.1,296.6z M483,313.3c-1.5,2-2.5,3.3-3.4,4.6c-2.2,2.8-4.3,15.3-2.3,16.3
		c4,2,7.9-0.7,11.8-1.5c0.7-0.1,1.4-0.5,2.1-0.8c1.4-0.6,1.6-1.5,0.8-2.8C489,323.9,486.1,318.8,483,313.3z M492,284.1
		c3.7-1.8,7.4-3.7,11.1-5.4c9.2-4.5,9.2-4.5,2.4-12c-4.3-4.8-4.3-4.8-7.6,0.5c-1.5,2.4-2.9,4.9-4.6,7.1
		C490.9,277.1,490.5,280.2,492,284.1z M503.7,291.9C503.7,291.9,503.7,292,503.7,291.9c1,0.1,2.1,0,3.1,0.1
		c10.1,0.6,10.7-0.2,7.3-9.9c-0.1-0.3-0.2-0.6-0.3-0.9c-0.5-1.8-1.4-2.2-3.2-1.2c-5.4,2.8-10.8,5.5-16.3,8.1
		c-1.2,0.6-2.1,1.2-1.7,2.6c0.4,1.4,1.6,1.1,2.5,1.1C498,291.9,500.8,291.9,503.7,291.9z M463.3,307.9c-1.4-1.4-2-3.4-4.7-1.9
		c-5.2,2.8-10.5,5.2-15.8,7.9c-1.2,0.6-3.9,0.6-2.8,2.9c1,2,2.1,4.7,5.6,3.3c5.9-2.2,11.2-5.2,15.6-9.7
		C462,309.7,462.5,308.8,463.3,307.9z M460,255.4c-0.9,1-4.4,0.3-2.3,3.8c3.1,5.1,6.1,10.4,9.1,15.6c0.7,1.2,1.4,2.2,3.1,1.6
		c1.7-0.6,1.7-1.8,1.4-3.2c-1.4-6.3-4.2-11.9-8.7-16.6C461.9,256.1,461.4,255.3,460,255.4z M484.3,254.8c2.6,4.7,4,9.7,5.8,14.8
		c8.1-10.5,7.4-12.7-5-15.2C485,254.4,484.9,254.5,484.3,254.8z M471.9,326.5c-3.2,2.5-6,4.6-8.9,6.9
		C472.4,336.4,472.4,336.4,471.9,326.5z"/>
	<path class="lt28" d="M104.8,288.9c7.3,0,12.8,5.7,12.7,13c-0.1,7-5.9,12.7-12.8,12.6c-7.2,0-13-5.8-12.9-12.9
		C91.8,294.2,97.3,288.9,104.8,288.9z M104.5,309.1c3.8-0.1,6.5-3,6.4-7c-0.1-3.7-2.9-6.4-6.5-6.3c-3.7,0-7,3.2-6.9,6.7
		C97.7,306.1,100.9,309.1,104.5,309.1z"/>
	<path class="lt12" d="M106.8,271.9c0-1,0-2.1,0-3.1c0-9,0-9,9-6.5c11.7,3.4,11.8,3.7,5.6,13.5c-1.2,1.9-2.6,3.6-3.5,5.6
		c-1.8,4.2-4.2,5-8.4,3c-2.1-1-2.9-1.9-2.7-4.1C106.9,277.5,106.8,274.7,106.8,271.9z"/>
	<path class="lt12" d="M95.1,318c-0.4,0.6-0.8,1.2-1.2,1.8c-3.2,4.8-6.6,9.5-9.7,14.4c-1.5,2.5-2.8,2.4-4.8,0.7
		c-3-2.6-6.1-5.2-8.5-8.4c-1.1-1.5-1.4-2.4,0.6-3.3c5.9-2.8,11.7-5.7,17.6-8.5C91.1,313.7,95.3,316.1,95.1,318z"/>
	<path class="lt12" d="M139.2,324.2c-1.9,2.3-3.7,4.7-5.7,6.7c-6,6.2-6.1,6.1-10.3-1.2c-1.9-3.3-3.7-6.8-5.8-10
		c-1.5-2.3-1.5-3.8,0.5-6c2.3-2.5,3.7-0.6,5.3,0.3c4.7,2.6,9.2,5.3,13.8,8C137.8,322.4,138.9,322.8,139.2,324.2z"/>
	<path class="lt12" d="M75.9,299.8c-1.8,0-3.5,0-5.3,0c-6.5,0-6.5,0-5.8-6.3c1.2-10.8,2.5-11.6,11.6-6.3c2.7,1.5,5.4,3.1,8,4.6
		c1.8,1.1,3.9,1.5,3.1,4.8c-0.9,3.4-2.8,3.4-5.4,3.2C80,299.7,78,299.8,75.9,299.8z"/>
	<path class="lt12" d="M106.8,331.3c0-3,0.1-5.9,0-8.9c-0.1-2.1,0.9-2.7,2.7-3.3c2-0.6,2.6,0.4,3.4,1.8c2.8,5,5.6,10.1,8.5,15
		c1.3,2.2,1,3.5-1.4,4.2c-0.1,0-0.3,0.1-0.4,0.2C107.5,345,106.8,344.5,106.8,331.3z"/>
	<path class="lt12" d="M93.3,287.2c-1.1,1.1-1.5,3.4-4,2c-5.8-3.3-11.5-6.7-17.3-9.9c-1.7-1-1.5-1.9-0.4-3.1
		c0.1-0.1,0.2-0.2,0.3-0.3c2.7-3.2,5.4-7.7,9.1-7.9c4-0.2,4.3,5.6,6.5,8.6c1.8,2.5,3.1,5.4,4.6,8.1
		C92.5,285.5,92.8,286.3,93.3,287.2z"/>
	<path class="lt12" d="M101.9,272.6c0,2.9-0.1,5.9,0,8.8c0.1,1.9-0.9,2.5-2.4,3c-1.7,0.5-2.4-0.5-3.1-1.7c-3-5.3-5.9-10.5-9-15.7
		c-1.1-1.8-1.1-2.9,1.1-3.5c0.1,0,0.3-0.1,0.4-0.1C101,258.2,101.9,258.9,101.9,272.6z"/>
	<path class="lt12" d="M75.6,304.6c3,0,5.9,0.1,8.9,0c2-0.1,2.5,1.1,3,2.5c0.6,1.8-0.5,2.3-1.8,2.9c-5.3,2.5-10.7,5.1-15.9,7.8
		c-2.2,1.2-3.3,0.6-3.7-1.7c-0.6-3-0.9-6.1-1.4-9.2c-0.3-1.8,0.5-2.4,2.2-2.3C69.6,304.6,72.6,304.6,75.6,304.6z"/>
	<path class="lt12" d="M140.2,282.2c-0.1,1.1-1.1,1.2-1.8,1.6c-5.3,2.6-10.6,5.2-15.9,7.8c-1.1,0.5-2.1,1.1-3.1-0.3
		c-0.7-1.1-1.2-2-0.4-3.2c3.5-5.5,7-11,10.4-16.5c0.5-0.8,1.1-1.4,2.1-0.6c3.3,3,6.1,6.4,8.4,10.2
		C140.1,281.6,140.1,281.9,140.2,282.2z"/>
	<path class="lt12" d="M145,307.1c-0.9,11.9-2.1,12.6-12.2,6.9c-2.9-1.7-5.9-3.4-8.8-5c-1.1-0.6-2-1.2-1.7-2.7
		c0.3-1.5,1.4-1.7,2.7-1.7c6-0.1,12.1-0.1,18.1-0.2C145.4,304.3,145.3,305.6,145,307.1z"/>
	<path class="lt12" d="M101.9,331.1c0,1.9,0,3.8,0,5.8c0,6.8,0,6.8-6.8,5.4c-8.8-1.8-8.9-2-4.2-9.5c2.5-3.9,4.9-7.7,7.3-11.6
		c0.6-1,1.2-2.1,2.7-1.6c1.3,0.5,1,1.7,1,2.7C102,325.2,101.9,328.1,101.9,331.1C101.9,331.1,101.9,331.1,101.9,331.1z"/>
	<path class="lt12" d="M134,299.9c-3.1,0-6.2,0-9.3,0c-0.9,0-1.8-0.1-2.1-1.2c-0.4-1.2,0.2-1.9,1.3-2.5c5.7-2.8,11.4-5.6,17.1-8.5
		c1.7-0.8,2.2,0.1,2.5,1.3c0.7,2.9,1.2,5.8,1.8,8.7c0.4,2-0.8,2.2-2.3,2.2C140,299.9,137,299.9,134,299.9z"/>
	<path class="lt29" d="M462.2,293.8c0-7.2,5.4-12.7,12.5-12.7c7.3-0.1,13.3,5.6,13.3,12.6c0,7-5.9,13-12.9,13.1
		C467.9,306.9,462.2,301.2,462.2,293.8z M481.4,294.6c0-3.5-3.2-6.8-6.7-6.8c-3.6,0-6.7,3.2-6.7,6.8c0,3.5,2.9,6.4,6.5,6.5
		C478.2,301.2,481.3,298.2,481.4,294.6z"/>
	<path class="lt12" d="M444.9,291.8c-1.9,0-3.9,0-5.8,0c-6.8,0-6.8,0-5.2-6.8c2.7-11.4,3-11.5,12.9-5.8c2.7,1.6,5.4,3.1,8.1,4.7
		c1.7,1,3.8,1.5,2.8,4.5c-0.9,2.6-1.9,3.9-4.8,3.5C450.3,291.5,447.6,291.8,444.9,291.8z"/>
	<path class="lt12" d="M497.2,328c-3.5-6-6.8-12.1-10.4-18c-1.5-2.4,0.8-3,1.6-4.4c1.1-1.7,2.3-1.3,3.7-0.4c4.9,3,9.9,5.9,15,8.7
		c2,1.1,2.5,2,0.9,3.9C504.9,321.6,501.7,325.2,497.2,328z"/>
	<path class="lt12" d="M463.7,279.2c-0.9,1-1.6,3.2-3.5,2.2c-6.1-3.2-12.1-6.7-18.1-10.1c-1.3-0.8-0.9-1.6-0.2-2.5
		c2.5-3.3,5.4-6.2,8.9-8.5c1-0.6,1.9-1,2.6,0.2c3.3,5.9,6.6,11.8,10,17.7C463.4,278.5,463.5,278.8,463.7,279.2z"/>
	<path class="lt12" d="M445.7,296.6c3,0,5.9,0.1,8.9,0c2-0.1,2.4,1,3,2.5c0.6,1.8-0.4,2.3-1.7,2.9c-5.7,2.7-11.4,5.5-17.1,8.3
		c-1.6,0.8-2.4,0.4-2.7-1.2c0-0.1-0.1-0.3-0.2-0.4C431.3,297.3,431.9,296.6,445.7,296.6z"/>
	<path class="lt12" d="M504.1,296.6c2.2,0,4.4,0,6.7,0c5.3,0,5.3,0,4.3,5.5c-1.9,9.7-1.9,9.7-10.2,5c-3.6-2-7.2-4.1-10.8-6.1
		c-1.2-0.6-1.8-1.3-1.5-2.8c0.3-1.7,1.5-1.6,2.7-1.6C498.1,296.6,501.1,296.6,504.1,296.6z"/>
	<path class="lt12" d="M483,313.3c3.1,5.5,6,10.6,9,15.7c0.8,1.3,0.6,2.2-0.8,2.8c-0.7,0.3-1.3,0.7-2.1,0.8
		c-3.9,0.8-7.8,3.6-11.8,1.5c-1.9-1,0.2-13.5,2.3-16.3C480.6,316.5,481.5,315.2,483,313.3z"/>
	<path class="lt12" d="M492,284.1c-1.5-3.9-1-6.9,1.3-9.9c1.7-2.2,3.1-4.7,4.6-7.1c3.3-5.2,3.3-5.2,7.6-0.5c6.8,7.6,6.8,7.6-2.4,12
		C499.3,280.4,495.7,282.2,492,284.1z"/>
	<path class="lt12" d="M503.7,291.9c-2.8,0-5.6,0-8.4,0c-1,0-2.2,0.3-2.5-1.1c-0.4-1.5,0.5-2.1,1.7-2.6c5.4-2.7,10.9-5.3,16.3-8.1
		c1.8-1,2.7-0.6,3.2,1.2c0.1,0.3,0.2,0.6,0.3,0.9c3.3,9.7,2.7,10.6-7.3,9.9C505.7,291.9,504.7,292,503.7,291.9
		C503.7,292,503.7,291.9,503.7,291.9z"/>
	<path class="lt12" d="M463.3,307.9c-0.7,0.9-1.3,1.8-2,2.5c-4.4,4.4-9.7,7.5-15.6,9.7c-3.6,1.3-4.6-1.3-5.6-3.3
		c-1.1-2.2,1.6-2.3,2.8-2.9c5.2-2.7,10.6-5.1,15.8-7.9C461.3,304.5,461.9,306.5,463.3,307.9z"/>
	<path class="lt12" d="M460,255.4c1.4-0.1,1.9,0.7,2.5,1.3c4.5,4.7,7.3,10.3,8.7,16.6c0.3,1.4,0.4,2.6-1.4,3.2
		c-1.7,0.6-2.4-0.4-3.1-1.6c-3-5.2-5.9-10.5-9.1-15.6C455.5,255.7,459.1,256.4,460,255.4z"/>
	<path class="lt12" d="M484.3,254.8c0.5-0.3,0.7-0.4,0.8-0.4c12.4,2.5,13.2,4.7,5,15.2C488.3,264.6,486.9,259.5,484.3,254.8z"/>
	<path class="lt12" d="M471.9,326.5c0.4,9.9,0.4,9.9-8.9,6.9C466,331.1,468.7,329,471.9,326.5z"/>
	<path class="lt0" d="M104.5,309.1c-3.6,0-6.9-3-7-6.6c-0.1-3.5,3.2-6.7,6.9-6.7c3.7,0,6.5,2.6,6.5,6.3
		C111,306.1,108.3,309,104.5,309.1z"/>
	<path class="lt0" d="M481.4,294.6c0,3.6-3.1,6.6-6.9,6.5c-3.5,0-6.4-3-6.5-6.5c0-3.7,3-6.8,6.7-6.8
		C478.2,287.8,481.4,291,481.4,294.6z"/>
</g>
</svg>
