<?xml version="1.0" encoding="utf-8"?>
<!-- Generator: Adobe Illultrator 24.1.1, SVG Export Plug-In . SVG Version: 6.00 Build 0)  -->
<svg version="1.1" id="FordCar" xmlns="http://www.w3.org/2000/svg" xmlns:xlink="http://www.w3.org/1999/xlink" x="0px" y="0px"
	 viewBox="0 0 567.57 387.57" style="enable-background:new 0 0 567.57 387.57;" xml:space="preserve">
<style type="text/css">
	.lt0{fill:#080808;}
	.lt1{fill:#8D4DE8;}
	.lt2{fill:#4F2A72;}
	.lt3{fill:#7F2C93;}
	.lt4{fill:#282020;}
	.lt5{fill:#140D0D;}
	.lt6{fill:#3F3D3D;}
	.lt7{fill:#0F0F0C;}
	.lt8{fill:#0C0C0B;}
	.lt9{fill:#EDEDA6;}
	.lt10{fill:#565252;}
	.lt11{fill:#C4C48C;}
	.lt12{fill:#3F3636;}
	.lt13{fill:#E5E4B7;}
	.lt14{fill:#B537B2;}
	.lt15{fill:#E5E593;}
	.lt16{fill:#E8E8A3;}
	.lt17{fill:#F4F4F4;}
	.lt18{fill:#CC40CC;}
	.lt19{fill:#EAEA92;}
	.lt20{fill:#EDED98;}
	.lt21{fill:#545450;}
	.lt22{fill:#4F104D;}
	.lt23{fill:#3A3A33;}
	.lt24{fill:#3D3D3D;}
	.lt25{fill:#303026;}
	.lt26{fill:#51514C;}
	.lt27{fill:#FDFDFD;}
	.lt28{fill:#BCB53B;}
	.lt29{fill:#B2AF4F;}
</style>
<g>
	<path class="lt0" d="M459.67,363.84c-3.54-2.07-7.59-1.14-11.38-1.81c-30.38-5.39-52.31-32.91-50.42-63.62
		c0.41-6.69,1.75-13.18,4.23-19.41c0.32-0.8,1.15-1.67,0.18-2.29c-0.79-0.51-1.66,0.1-2.26,0.87c-0.72,0.94-1.49,1.84-2.24,2.76
		c-7.53,9.14-14.93,18.4-22.65,27.38c-5.09,5.92-5.29,5.74-9.26-0.73c-0.46-0.76-1.14-1.42-1.44-2.23c-1.61-4.3-3.99-4.3-8.04-2.65
		c-8.82,3.61-18.15,5.96-27.72,3.81c-8.21-1.85-16.29-3.45-24.8-3.71c-37.44-1.14-74.87-2.71-112.29-4.29
		c-4.14-0.17-5.96,0.93-7.33,5.09c-7.33,22.27-28.98,37.68-52.67,38.01c-1.62,0.02-3.32-0.22-4.68,0.93
		c-9.32,7.84-20.52,10.7-32.22,12.63c-29.64,4.9-57.18-12.53-64.64-41.29c-3.9-15.04-3.02-29.88,2.53-44.42
		c0.18-0.19,0.37-0.39,0.55-0.58c-0.38-0.04-0.76-0.08-1.15-0.12c-2.22-0.11-4.47,0.02-6.64-0.36c-5.96-1.04-6.71-2.36-5.69-8.34
		c0.58-3.39,1.69-6.58,3.05-9.7c3.9-8.9,9.53-16.72,15.79-24.02c3.3-3.84,5.19-7.34,3.46-12.55c-0.9-2.7-0.8-5.91-0.45-8.81
		c1.18-9.71,3.18-19.14,12.88-24.41c1.87-1.02,1.1-2.61,0.94-3.92c-1.8-14.4-3.56-28.8-5.6-43.17c-3.05-21.54-6.35-43.05-9.46-64.58
		c-1.01-6.99,1.82-11.2,8.57-13.19c8.1-2.38,16.13-5.05,24.33-7.01c21.19-5.06,41.93-11.79,64.43-10.16
		c29.42,2.13,58.99,1.12,88.49,1.09c3.46,0,6.75,0.46,10.04,1.48c42.86,13.24,85.74,26.44,128.62,39.64
		c7.28,2.24,7.25,2.23,6.99,9.92c-0.11,3.32-0.61,6.34-4.57,7.05c-2.33,0.41-1.76,1.84-1.48,3.33c4.02,21.23,8.04,42.45,11.98,63.7
		c0.37,2,0.9,3.02,3.21,3.33c26.28,3.54,52.55,7.19,78.81,10.91c1.98,0.28,2.82,0.06,3.35-2.1c1.17-4.76,6.48-8.68,11.41-8.87
		c3.13-0.12,5.3,1.47,5.81,4.38c1.75,9.92,6.75,18.87,8.15,28.95c1.18,8.48,8.23,13.31,15.06,16.28
		c9.11,3.95,18.36,7.41,26.55,13.14c4.69,3.28,4.52,3.3,1.35,8.11c-2.04,3.09-3.95,4.08-7.45,2.01c-2.06-1.22-4.2-3.17-7.89-2.32
		c8.2,5.64,14.51,12.17,18.83,20.45c6.28,12.03,10.48,24.86,8.64,38.38c-3.25,23.81-17.73,39.36-39.27,48.82
		c-2.61,1.15-4.93,2.58-7.21,4.27c-8.68,6.45-18.08,11.24-29.05,12.5c-1.57,0.18-3.61-0.43-4.74,1.45
		C462.05,363.84,460.86,363.84,459.67,363.84z M55.93,143.18c0.08,0.09,0.17,0.19,0.25,0.28c0.16-0.18,0.32-0.36,0.47-0.53
		c-1.41,3.64,0.32,7.14,0.74,10.68c2.03,17.2,5.08,34.22,9.27,51.05c1.16,4.68,2.9,5.75,7.73,5.14c12.69-1.6,25.35-1.26,37.95,1.83
		c16.85,4.13,29.2,14.44,39.91,27.35c5.03,6.07,9.69,12.38,12.62,19.73c0.94,2.36,2.55,2.08,4.24,2.19
		c20.99,1.41,41.97,2.87,62.96,4.19c34.97,2.21,69.94-0.67,104.91-0.08c3.56,0.06,3.29-1.79,3.29-4.12
		c-0.02-23.7,0.08-47.4,1.01-71.08c0.37-9.35,0.8-18.68,5.55-27.11c0.83-1.48,0.46-2.8,0.14-4.27c-4.28-19.96-8.52-39.92-12.8-59.88
		c-0.28-1.32,0.08-3.44-2.17-3.14c-2.5,0.34-1.12,2.3-0.95,3.53c2.89,20.82,5.79,41.64,8.83,62.43c0.32,2.16-0.28,3.86-1.34,5.4
		c-6.03,8.79-7.44,18.72-7.94,29.06c-0.66,13.61-1.81,27.19-2.85,40.77c-0.86,11.25-5.11,15.41-16.33,16.3
		c-2.07,0.16-4.13,0.44-6.2,0.49c-28,0.66-56,2.07-84,0.15c-8.56-0.59-17.13-1.27-25.39-3.99c-2.86-0.94-4.32-2.65-5.05-5.53
		c-5.04-19.91-5.98-40.09-3.76-60.4c0.51-4.68-0.87-5.91-5.24-6.32c-22.29-2.05-44.39-5.42-66.14-10.81
		c-16.69-4.14-32.94-9.6-48.51-16.94c-3.75-1.77-7.3-3.92-10.53-6.54C56.39,143.07,56.16,143.13,55.93,143.18z M301.35,153.39
		c-1.49-1.52-2.69-0.55-3.98-0.06c-5.25,1.98-10.33,4.5-16.2,4.18c-3.02-0.17-5.74-0.9-6.88-3.9c-1.05-2.79,0.83-4.91,2.75-6.53
		c8.5-7.17,17.93-12.57,29.14-14.21c2.79-0.41,5.9-0.75,7.48,2.35c1.53,2.99,0.17,5.75-1.56,8.28c-0.33,0.48-0.8,0.87-1.23,1.26
		c-1.93,1.76-5.97,2.73-5.68,4.88c0.3,2.2,3.53,4.04,5.57,5.95c5.2,4.85,10.52,9.58,15.64,14.52c1.91,1.84,2.97,1.65,4.4-0.44
		c2.03-2.96,2.72-6.19,2.65-9.66c-0.31-14.54-2.75-28.88-4.18-43.31c-0.61-6.19-1.62-12.33-2.18-18.52
		c-0.24-2.68-0.91-3.78-3.94-3.83c-38.23-0.55-76.46-1.25-114.69-1.94c-13.33-0.24-26.67-0.5-40-0.84c-1.83-0.05-3.04,0.25-3.84,2.1
		c-5.58,12.88-11.16,25.76-16.92,38.56c-1.2,2.66,0.85,3.14,2.12,4.02c8.48,5.86,16.08,12.63,22.08,21.05
		c2.05,2.88,3.76,6.01,5.54,9.08c0.75,1.3,1.36,2.4,3.12,2.77c5.83,1.25,5.83,1.34,6.36-4.8c0.43-5.02-0.56-10.04,0.1-15.08
		c0.87-6.61,3.69-10.27,10.11-11.85c9.22-2.27,18.46-3.98,28.08-2.16c6.74,1.28,12.66,3.79,17.84,8.31
		c4.46,3.89,9.01,7.72,13.83,11.15c11.67,8.31,25.52,9.99,39.14,11.65c5.94,0.72,10.64,2.02,13.42,7.56
		c0.68,1.35,1.61,1.97,3.17,1.83c3.08-0.27,6.17-0.41,10.28-0.67C315.29,167.44,308.27,160.47,301.35,153.39z M305.68,246.56
		c10.59-0.05,13.32-2.67,14-13.28c1.04-16.12,2.85-32.15,5.05-48.14c0.49-3.54-0.51-3.92-3.47-3.71
		c-23.84,1.69-47.71,1.25-71.58,0.92c-17.8-0.25-35.46-2.51-53.18-3.82c-2.77-0.2-3.26,0.36-3.19,2.84
		c0.4,14.51,0.59,29.02,1.08,43.53c0.14,4.12,1.04,8.24,2.69,12.07c1.88,4.36,5.1,7.11,9.96,7.85c12.22,1.86,24.53,1.65,36.82,1.75
		c6.22,0.05,12.45,0.01,18.67,0.01C276.91,246.58,291.29,246.63,305.68,246.56z M347.1,259.92c-0.04,3.21,0.55,4.89,4.12,3.81
		c0.14-0.04,0.3-0.03,0.44-0.01c12.5,1.95,21.34-3.61,29.46-12.69c9.38-10.5,20.5-19.23,33.16-25.73
		c6.17-3.17,12.41-6.31,19.71-5.51c1.66,0.18,2.53-0.49,2.45-2.22c-0.01-0.29,0.05-0.59,0.08-0.88c0.28-3.61,2.66-8.22,0.59-10.49
		c-1.79-1.96-6.69-1.07-10.21-1.49c-16.75-2.02-33.63-2.91-50.35-5.25c-3.66-0.51-5.5-2.08-5.09-5.69c0.26-2.29-0.58-2.92-2.68-3.53
		c-5.27-1.53-8.93-5.64-13.15-8.85c-1.94-1.47-4.09-4.14-6.38-3.08c-1.73,0.8-0.71,4.04-0.72,6.18
		c-0.07,12.13-0.03,24.26-0.03,36.39c-0.44,0-0.88,0-1.32,0C347.17,233.88,347.26,246.91,347.1,259.92z M147.58,44.22
		c-14.35-1.37-27.95,1.06-41.68,4.29C88.04,52.73,70.1,56.65,52.19,60.7c-5.43,1.23-7.01,3.09-6.34,8.64
		c2.56,21.15,5.26,42.29,7.94,63.43c0.3,2.36,5.81,5.69,8.25,5.12c1.91-0.45,1.04-1.79,0.91-2.84c-1.37-11.31-2.87-22.61-4.13-33.94
		c-1.21-10.91-0.86-21.87-0.55-32.83c0.08-2.8,1.41-3.53,3.7-3.84c19.96-2.7,39.91-5.49,59.88-8.13
		c12.62-1.67,25.24-3.53,37.92-4.62c21.21-1.82,42.3-0.13,63.29,3.26c43.97,7.1,86.36,20.39,129.01,32.67
		c2.99,0.86,5.95,1.82,8.97,2.54c1.32,0.31,3.39,2.12,3.96-0.1c0.49-1.94-0.26-4.13-3.18-4.9c-8.73-2.3-17.35-4.97-26.03-7.47
		c-35.56-10.23-71.13-20.42-106.67-30.71c-9.38-2.71-18.87,0.01-25.95-1.04C183.04,46.85,165.25,45.91,147.58,44.22z M332.9,270.5
		c-40.57,2.57-81.11,2.02-121.66-0.59c-14.48-0.93-28.95-1.77-43.34-3.64c-2.4-0.31-3.31,0-2.48,2.7c1.04,3.37,2.46,6.67,2.57,10.29
		c0.07,2.35,1.9,1.77,3.28,1.83c15.08,0.65,30.17,1.29,45.26,1.92c37.88,1.57,75.77,2.88,113.62,4.99c5.33,0.3,8.58-1.33,12.18-4.1
		c5.85-4.49,11.39-9.31,17.47-15.43C350.02,269.22,341.47,269.96,332.9,270.5z M52.34,224.66c-13.54,7.82-20.09,20.82-26,34.35
		c-0.79,1.82,0.13,2.42,1.85,2.36c4.94-0.18,9.27-0.78,12.78-5.4c17.07-22.45,43.93-31.18,69.42-21.83
		c19.61,7.19,32.14,21.64,37.34,41.95c0.83,3.26,2.15,4.05,5.17,4.48c11.6,1.64,12.7,0.53,8.49-10.58
		c-10.01-26.42-27.47-45.22-55.36-53.06c-2.41-0.68-4.92-1.15-7.42-1.34c-3.09-0.23-6.21-0.05-9.32-0.05
		C76.23,215.41,63.8,218.04,52.34,224.66z M511.89,301.07c-1.01-30.45-24.91-53.17-55.17-52.44c-29.48,0.71-52.19,25.48-51.4,56.06
		c0.71,27.65,25.87,50.99,54.12,50.22C488.89,354.1,512.84,329.52,511.89,301.07z M141.15,291.88
		c-1.1-25.32-28.98-51.84-54.67-51.24c-29.32,0.69-52.33,25.48-51.5,55.49c0.78,28.3,25.58,51.84,53.81,51.07
		C117.41,347.24,142.51,323.2,141.15,291.88z M94.75,152.2c23.46,7.46,47.48,12.33,71.9,15.3c2.75,0.34,3.06,0.12,2.1-1.47
		c-7.83-12.95-17.24-24.29-32.94-27.65c-5.11-1.1-10.62-0.47-15.95-0.42c-13.79,0.14-27.14,3.19-41.39,6.07
		C83.8,148.19,89.18,150.43,94.75,152.2z M359.54,294.81c2.49-1.01,3.86-3.18,5.51-5.03c12.82-14.46,27.08-27.31,42.26-39.28
		c13.65-10.76,29.34-14.09,46.03-14.85c15.85-0.72,30.82,3.28,45.57,8.46c3.49,1.22,7.01,2.35,10.46,3.67
		c1.48,0.57,2.57,0.59,3.3-0.96c0.88-1.86-0.82-1.84-1.75-2.28c-19.91-9.45-40.89-14.68-62.89-15.86c-2.66-0.14-5.34-0.19-7.98-0.48
		c-11.98-1.32-21.45,4.25-30.54,10.94c-15.8,11.61-30.36,24.64-44.34,38.35c-9.56,9.37-20.19,17.23-33.62,22.96
		C342.35,301.35,350.98,298.27,359.54,294.81z M339.23,96.71c-1.82,1.84,0.47,6.03,1.13,9.15c3.29,15.62,7.08,31.11,11.11,46.56
		c1.38,5.3,4.29,8.02,9.03,9.61c3.2,1.07,6.98,3.49,9.63,1.39c2.02-1.6-0.26-5.49-0.76-8.29c-3.28-18.34-7.09-36.59-9.52-55.07
		c-0.36-2.75-1.32-3.91-4.19-3.62c-2.35,0.24-4.74,0.05-7.11,0.05c0-0.04,0-0.08,0-0.11C345.33,96.37,340.82,95.1,339.23,96.71z
		 M285.27,171c-7.34-0.95-14.58-2.26-21.69-4.4c-7.55-2.28-13.99-6.07-19.32-11.98c-11.79-13.05-26.69-16.68-43.56-13.65
		c-4.81,0.86-5.35,2.44-2.6,6.61c4.35,6.59,10.94,9.9,18.29,11.51c13.86,3.03,27.81,5.62,41.72,8.41c3.21,0.64,6.65,1.17,8.62,4.04
		c2.54,3.7,5.95,4.15,10,4.05c8.28-0.2,16.57-0.06,24.86-0.06C296.65,171.96,290.88,171.73,285.27,171z M280.93,289.97
		c-38.17-1.38-76.35-2.78-114.52-4.16c-4.29-0.16-8.59-0.35-12.88-0.35c-1.43,0-3.84-1.31-3.61,2.04c0.15,2.29-0.1,4.13,3.41,4.17
		c16.73,0.19,33.46,0.69,50.19,1.11c34.5,0.88,68.99,1.73,103.49,2.73c5.17,0.15,10.31,1.09,15.51,0.64
		c3.88-0.33,7.56-1.21,11.77-4.28C315.77,291.22,298.35,290.6,280.93,289.97z M191.78,57.94c-8.91-1.23-18.27,0.67-27.42,1.27
		c-25.56,1.69-51.12,3.44-76.67,5.18c-1.56,0.11-3.11,0.31-4.76,0.48c1.41,1.67,3.21,1.21,4.86,1.23
		c11.56,0.09,23.12,0.14,34.68,0.21c30.97,0.18,61.96-0.08,92.92,0.72c17.99,0.46,35.95,2.55,53.83,4.9
		c0.19,0.03,0.43-0.32,1.32-1.01C243.95,66.45,217.96,61.56,191.78,57.94z M458.88,186.34c-9.43-1.61-18.5-3.18-27.59-4.7
		c-15.17-2.53-30.34-5-45.5-7.54c-4.52-0.76-8.49,2.46-8.6,6.92c-0.05,2.13,1.53,1.41,2.46,1.55c11.55,1.78,23.1,3.48,34.66,5.23
		c9.36,1.42,18.7,2.94,28.06,4.28c4.92,0.7,9.35,2.47,13.44,5.66C457,193.94,456.99,190.17,458.88,186.34z M114.89,122.69
		c3.45-4.51,4.22-9.73,1.73-15.02c-2.31-4.91-6.7-6.32-11.75-6.38c-1.57-0.02-2.81,0.32-3.73,1.8
		c-5.63,9.03-11.33,18.01-16.99,27.02c-0.45,0.72-0.82,1.5-1.24,2.29C93,135.26,108.86,130.57,114.89,122.69z M250.34,170.95
		c-14.23-2.62-28.83-3.29-42.55-8.61c-4.41-1.71-8.14-4.61-13.03-6.8c0,4.58,0.02,8.66-0.01,12.74c-0.01,1.57,0.51,2.42,2.26,2.54
		c20.98,1.48,41.95,3.01,62.92,4.51c0.21,0.02,0.44-0.21,1.01-0.52C257.87,171.87,254.02,171.63,250.34,170.95z M140.67,130.11
		c0,0.82-0.28,1.94,0.81,2.25c1.19,0.34,1.43-0.83,1.75-1.57c5.21-12.04,10.73-23.96,14.77-36.48c0.69-2.15,0.2-3.03-2.1-2.83
		c-4.71,0.4-9.42,0.87-14.14,1.08c-2.35,0.1-2.03,1.45-2.01,2.98c0.05,5.61,0.02,11.23,0.02,16.84c0.3,0,0.6,0,0.9,0
		C140.66,118.29,140.65,124.2,140.67,130.11z M382.94,187.42c-3.53-0.59-4.03,1.25-4.35,3.86c-0.33,2.67-0.1,4.16,3.46,4.21
		c14.82,0.2,29.37,3.11,44.02,5.02c2.05,0.27,4.18,0.2,6.17,0.69c3.98,0.99,6.85,0,8.61-4.43
		C421.45,193.66,402.18,190.64,382.94,187.42z M72.72,108.35c-3.74,2.92-5.89,6.56-4.92,11.54c0.62,3.19,1.14,6.4,1.64,9.61
		c0.25,1.62,1.34,2.15,2.73,2.46c1.43,0.31,2.19-0.51,2.86-1.57c5.95-9.35,11.91-18.69,18.42-28.9
		C85.38,102.23,78.55,103.8,72.72,108.35z M520.38,304.83c10.27-18.99-3.09-49.79-26.21-53.8
		C516,273.19,519.97,281.43,520.38,304.83z M166.92,297.26c-5.32-0.29-10.22-0.54-15.12-0.82c-1.03-0.06-1.72,0.26-1.81,1.39
		c-0.56,7.05-2.67,13.77-5.12,21.3C155.62,314.71,162.08,307.31,166.92,297.26z M480.32,197.93c-5.16,7.33-8.75,15.02-9,24.04
		c-0.05,1.94,0.75,2.95,2.76,3.27c2.17,0.35,4.29,1.04,6.88,1.7C481.36,217.24,486.7,207.8,480.32,197.93z M465.71,186.5
		c-2.69,4.68-2.73,10-3.06,15.03c-0.18,2.73,3.92,1.97,6.02,2.91c1.84,0.82,2.21-0.72,2.46-2.1c0.69-3.79,2.05-7.36,3.38-10.96
		c1.7-4.61-0.11-7.1-5.29-7.25C467.35,183.66,466.57,185,465.71,186.5z M372.86,174.58c0.71-1.98,0.06-2.58-1.89-2.77
		c-5.47-0.53-10.69-2.13-15.59-4.51c-2.44-1.18-2.93,0.02-3.86,1.71c-1.17,2.14,0.2,2.32,1.67,2.96c4.63,1.99,8.63,5.01,12.52,8.17
		c1.57,1.28,3.1,2.66,5.71,3.43C371.25,180.22,371.86,177.35,372.86,174.58z M458.63,222.56c1.45,0.01,2.91,0.4,4.35,0.68
		c1.93,0.38,2.96,0.01,3-2.34c0.05-3.07,0.37-6.17,0.92-9.2c0.59-3.24-1.95-3.52-3.79-4.36c-2.02-0.93-3.69-0.34-4.7,1.79
		c-1.54,3.27-1.53,6.84-2.12,10.73C455.88,221.37,456.29,222.54,458.63,222.56z M509.64,229.62c4.54,1.27,9.08,2.52,12.91,5.46
		c1.13,0.87,2.12,1.44,3.25-0.26c1.05-1.57,0.36-2.4-0.75-3.31c-6.19-5.08-13.61-7.2-21.63-9.3
		C503.88,226.77,506.26,228.67,509.64,229.62z M446.71,221.15c2.37,0.67,2.72-0.86,3.11-2.55c0.63-2.71,1.29-5.42,2.03-8.1
		c0.4-1.43,1.94-3.02-0.73-3.79c-2.08-0.6-4.18-1.5-5.49,1.44c-1.38,3.06-1.17,6.32-1.69,9.94
		C443.26,220.08,444.87,220.63,446.71,221.15z M489.27,215.25c-0.44,4.38-0.78,8.2-1.22,12.01c-0.2,1.76,0.74,2.24,2.23,2.55
		c1.85,0.38,3.66,0.98,5.89,1.6C496.83,224.63,494.63,219.71,489.27,215.25z M290.36,144.57c-3.68,1.31-7.34,3.09-10.23,5.94
		c-0.4,0.4-0.55,1.07-0.08,1.59c0.9,0.97,2.12,1.09,3.28,0.89c4.37-0.77,8.51-2.22,12.6-4.64
		C293.94,146.91,292.9,143.67,290.36,144.57z M305.78,142.71c0.93-1.12,2.18-2.39,1.14-3.9c-1.09-1.58-2.92-1.35-4.43-0.71
		c-2.28,0.98-4.44,2.24-7.1,3.62C300.46,146.56,302.48,146.71,305.78,142.71z M474.59,176.99c-0.07-1.48-0.61-3.18-2.31-3.05
		c-1.66,0.13-2.61,1.59-2.84,3.37c-0.3,2.4,1.62,1.35,2.47,1.73C473.62,179.25,474.68,178.69,474.59,176.99z"/>
	<path class="lt1" d="M56.66,142.89c-1.42,3.68,0.31,7.18,0.73,10.71c2.03,17.2,5.08,34.22,9.27,51.05c1.16,4.68,2.9,5.75,7.73,5.14
		c12.69-1.6,25.35-1.26,37.95,1.83c16.85,4.13,29.2,14.44,39.91,27.35c5.03,6.07,9.69,12.38,12.62,19.73
		c0.94,2.36,2.55,2.08,4.24,2.19c20.99,1.41,41.97,2.87,62.96,4.19c34.97,2.21,69.94-0.67,104.91-0.08
		c3.56,0.06,3.29-1.79,3.29-4.12c-0.02-23.7,0.08-47.4,1.01-71.08c0.37-9.35,0.8-18.68,5.55-27.11c0.83-1.48,0.46-2.8,0.14-4.27
		c-4.28-19.96-8.52-39.92-12.8-59.88c-0.28-1.32,0.08-3.44-2.17-3.14c-2.5,0.34-1.12,2.3-0.95,3.53
		c2.89,20.82,5.79,41.64,8.83,62.43c0.32,2.16-0.28,3.86-1.34,5.4c-6.03,8.79-7.44,18.72-7.94,29.06
		c-0.66,13.61-1.81,27.19-2.85,40.77c-0.86,11.25-5.11,15.41-16.33,16.3c-2.07,0.16-4.13,0.44-6.2,0.49c-28,0.66-56,2.07-84,0.15
		c-8.56-0.59-17.13-1.27-25.39-3.99c-2.86-0.94-4.32-2.65-5.05-5.53c-5.04-19.91-5.98-40.09-3.76-60.4
		c0.51-4.68-0.87-5.91-5.24-6.32c-22.29-2.05-44.39-5.42-66.14-10.81c-16.69-4.14-32.94-9.6-48.51-16.94
		c-3.75-1.77-7.3-3.92-10.53-6.54L56.66,142.89z"/>
	<path class="lt2" d="M243.86,246.57c-12.3-0.1-24.61,0.11-36.82-1.75c-4.86-0.74-8.08-3.49-9.96-7.85
		c-1.65-3.83-2.55-7.95-2.69-12.07c-0.49-14.5-0.69-29.02-1.08-43.53c-0.07-2.48,0.43-3.05,3.19-2.84
		c17.72,1.31,35.38,3.57,53.18,3.82c23.87,0.33,47.74,0.77,71.58-0.92c2.96-0.21,3.96,0.16,3.47,3.71
		c-2.2,15.99-4.01,32.03-5.05,48.14c-0.68,10.61-3.41,13.23-14,13.28c-14.38,0.07-28.77,0.02-43.15,0.02
		C256.3,246.58,250.08,246.62,243.86,246.57z M219,197.59c1.61-0.57,2.4-1.79,2.15-3.45c-0.3-1.94-1.99-1.5-3.19-1.42
		c-4.72,0.29-9.41,1.01-14.09-0.5c-1.44-0.46-3.41-1.19-4.03,1.19c-0.61,2.34,0.4,4.24,2.65,4.93c2.24,0.69,4.64,0.86,6.97,1.26
		C212.83,199.6,215.94,198.68,219,197.59z"/>
	<path class="lt3" d="M348.49,220.86c0-12.13-0.03-24.26,0.03-36.39c0.01-2.14-1.01-5.38,0.72-6.18c2.29-1.06,4.44,1.61,6.38,3.08
		c4.22,3.21,7.88,7.32,13.15,8.85c2.1,0.61,2.94,1.24,2.68,3.53c-0.42,3.61,1.43,5.18,5.09,5.69c16.73,2.34,33.6,3.23,50.35,5.25
		c3.52,0.43,8.42-0.47,10.21,1.49c2.07,2.27-0.31,6.88-0.59,10.49c-0.02,0.3-0.09,0.59-0.08,0.88c0.07,1.73-0.79,2.4-2.45,2.22
		c-7.31-0.8-13.54,2.34-19.71,5.51c-12.65,6.5-23.78,15.23-33.16,25.73c-8.12,9.08-16.95,14.64-29.46,12.69
		c-0.14-0.02-0.31-0.03-0.44,0.01c-3.57,1.09-4.15-0.59-4.12-3.81c0.16-13.02,0.07-26.04,0.07-39.06
		C347.61,220.86,348.05,220.86,348.49,220.86z M357.16,196.27c3.01-0.03,6.04,1.16,9.06,1.81c1.36,0.29,2.31-0.19,2.75-1.52
		c0.46-1.39-0.7-1.86-1.55-2.26c-3.65-1.72-6.43-4.62-9.61-6.97c-1.49-1.1-2.71-3.33-4.79-2.34c-1.81,0.87-0.63,3.2-1.07,4.5
		C351.8,193.46,352.23,196.32,357.16,196.27z"/>
	<path class="lt4" d="M203.16,45.94c-20.12,0.91-37.91-0.03-55.58-1.71c-14.35-1.37-27.95,1.06-41.68,4.29
		C88.04,52.73,70.1,56.65,52.19,60.7c-5.43,1.23-7.01,3.09-6.34,8.64c2.56,21.15,5.26,42.29,7.94,63.43
		c0.3,2.36,5.81,5.69,8.25,5.12c1.91-0.45,1.04-1.79,0.91-2.84c-1.37-11.31-2.87-22.61-4.13-33.94
		c-1.21-10.91-0.86-21.87-0.55-32.83c0.08-2.8,1.41-3.53,3.7-3.84c19.96-2.7,39.91-5.49,59.88-8.13
		c12.62-1.67,25.24-3.53,37.92-4.62c21.21-1.82,42.3-0.13,63.29,3.26c43.97,7.1,86.36,20.39,129.01,32.67
		c2.99,0.86,5.95,1.82,8.97,2.54c1.32,0.31,3.39,2.12,3.96-0.1c0.49-1.94-0.26-4.13-3.18-4.9c-8.73-2.3-17.35-4.97-26.03-7.47
		c-35.56-10.23-71.13-20.42-106.67-30.71C219.73,44.27,210.24,47,203.16,45.94z"/>
	<path class="lt5" d="M359.8,268.48c-9.79,0.74-18.34,1.48-26.9,2.03c-40.57,2.57-81.11,2.02-121.66-0.59
		c-14.48-0.93-28.95-1.77-43.34-3.64c-2.4-0.31-3.31,0-2.48,2.7c1.04,3.37,2.46,6.67,2.57,10.29c0.07,2.35,1.9,1.77,3.28,1.83
		c15.08,0.65,30.17,1.29,45.26,1.92c37.88,1.57,75.77,2.88,113.62,4.99c5.33,0.3,8.58-1.33,12.18-4.1
		C348.17,279.42,353.71,274.6,359.8,268.48z"/>
	<path class="lt6" d="M89.31,215.53c-13.08-0.12-25.5,2.51-36.97,9.13c-13.54,7.82-20.09,20.82-26,34.35
		c-0.79,1.82,0.13,2.42,1.85,2.36c4.94-0.18,9.27-0.78,12.78-5.4c17.07-22.45,43.93-31.18,69.42-21.83
		c19.61,7.19,32.14,21.64,37.34,41.95c0.83,3.26,2.15,4.05,5.17,4.48c11.6,1.64,12.7,0.53,8.49-10.58
		c-10.01-26.42-27.47-45.22-55.36-53.06c-2.41-0.68-4.92-1.15-7.42-1.34C95.53,215.36,92.41,215.53,89.31,215.53z"/>
	<path class="lt7" d="M405.33,304.68c-0.79-30.58,21.92-55.34,51.4-56.06c30.25-0.73,54.15,21.99,55.17,52.44
		c0.95,28.45-23,53.03-52.44,53.83C431.2,355.68,406.04,332.34,405.33,304.68z M459.82,346.92c22.04-0.23,44.35-18.36,44.11-44.2
		c-0.25-26.33-19.99-46.17-46.07-46.07c-24.61,0.09-44.69,20.43-44.6,45.19C413.35,327.37,433.65,347.18,459.82,346.92z"/>
	<path class="lt8" d="M34.98,296.13c-0.83-30.01,22.18-54.8,51.5-55.49c25.69-0.61,53.57,25.91,54.67,51.24
		c1.36,31.32-23.74,55.36-52.36,55.32C60.56,347.97,35.76,324.43,34.98,296.13z M89.29,339.2c19.92,0.05,44.64-17.22,44.53-44.02
		c-0.11-26.26-19.96-46.66-45.7-46.53c-25.15,0.12-45.21,20.14-45.2,45.11C42.92,319.31,63.2,339.14,89.29,339.2z"/>
	<path class="lt9" d="M78.47,144.03c5.33,4.16,10.71,6.4,16.28,8.17c23.46,7.46,47.48,12.33,71.9,15.3c2.75,0.34,3.06,0.12,2.1-1.47
		c-7.83-12.95-17.24-24.29-32.94-27.65c-5.11-1.1-10.62-0.47-15.95-0.42C106.08,138.1,92.72,141.15,78.47,144.03z"/>
	<path class="lt10" d="M331.54,300.45c10.81,0.9,19.44-2.18,28-5.64c2.49-1.01,3.86-3.18,5.51-5.03
		c12.82-14.46,27.08-27.31,42.26-39.28c13.65-10.76,29.34-14.09,46.03-14.85c15.85-0.72,30.82,3.28,45.57,8.46
		c3.49,1.22,7.01,2.35,10.46,3.67c1.48,0.57,2.57,0.59,3.3-0.96c0.88-1.86-0.82-1.84-1.75-2.28c-19.91-9.45-40.89-14.68-62.89-15.86
		c-2.66-0.14-5.34-0.19-7.98-0.48c-11.98-1.32-21.45,4.25-30.54,10.94c-15.8,11.61-30.36,24.64-44.34,38.35
		C355.6,286.86,344.97,294.72,331.54,300.45z"/>
	<path class="lt11" d="M301.59,175.53c-4.94-3.57-10.7-3.8-16.31-4.53c-7.34-0.95-14.58-2.26-21.69-4.4
		c-7.55-2.28-13.99-6.07-19.32-11.98c-11.79-13.05-26.69-16.68-43.56-13.65c-4.81,0.86-5.35,2.44-2.6,6.61
		c4.35,6.59,10.94,9.9,18.29,11.51c13.86,3.03,27.81,5.62,41.72,8.41c3.21,0.64,6.65,1.17,8.62,4.04c2.54,3.7,5.95,4.15,10,4.05
		C285.01,175.39,293.3,175.53,301.59,175.53z"/>
	<path class="lt12" d="M334.28,291.89c-18.51-0.66-35.93-1.28-53.35-1.92c-38.17-1.38-76.35-2.78-114.52-4.16
		c-4.29-0.16-8.59-0.35-12.88-0.35c-1.43,0-3.84-1.31-3.61,2.04c0.15,2.29-0.1,4.13,3.41,4.17c16.73,0.19,33.46,0.69,50.19,1.11
		c34.5,0.88,68.99,1.73,103.49,2.73c5.17,0.15,10.31,1.09,15.51,0.64C326.39,295.83,330.08,294.96,334.28,291.89z"/>
	<path class="lt13" d="M270.55,70.93c-26.59-4.48-52.59-9.37-78.76-12.99c-8.91-1.23-18.27,0.67-27.42,1.27
		c-25.56,1.69-51.12,3.44-76.67,5.18c-1.56,0.11-3.11,0.31-4.76,0.48c1.41,1.67,3.21,1.21,4.86,1.23
		c11.56,0.09,23.12,0.14,34.68,0.21c30.97,0.18,61.96-0.08,92.92,0.72c17.99,0.46,35.95,2.55,53.83,4.9
		C269.42,71.96,269.66,71.62,270.55,70.93z"/>
	<path class="lt14" d="M455.8,197.74c1.2-3.81,1.18-7.57,3.08-11.4c-9.43-1.61-18.5-3.18-27.59-4.7c-15.17-2.53-30.34-5-45.5-7.54
		c-4.52-0.76-8.49,2.46-8.6,6.92c-0.05,2.13,1.53,1.41,2.46,1.55c11.55,1.78,23.1,3.48,34.66,5.23c9.36,1.42,18.7,2.94,28.06,4.28
		C447.28,192.79,451.71,194.55,455.8,197.74z"/>
	<path class="lt15" d="M82.9,132.41c10.1,2.85,25.96-1.84,31.99-9.71c3.45-4.51,4.22-9.73,1.73-15.02
		c-2.31-4.91-6.7-6.32-11.75-6.38c-1.57-0.02-2.81,0.32-3.73,1.8c-5.63,9.03-11.33,18.01-16.99,27.02
		C83.69,130.84,83.33,131.62,82.9,132.41z"/>
	<path class="lt16" d="M260.95,174.82c-3.08-2.95-6.93-3.19-10.61-3.87c-14.23-2.62-28.83-3.29-42.55-8.61
		c-4.41-1.71-8.14-4.61-13.03-6.8c0,4.58,0.02,8.66-0.01,12.74c-0.01,1.57,0.51,2.42,2.26,2.54c20.98,1.48,41.95,3.01,62.92,4.51
		C260.15,175.35,260.38,175.12,260.95,174.82z"/>
	<path class="lt17" d="M140.66,112.38c0,5.91-0.01,11.81,0.01,17.72c0,0.82-0.28,1.94,0.81,2.25c1.19,0.34,1.43-0.83,1.75-1.57
		c5.21-12.04,10.73-23.96,14.77-36.48c0.69-2.15,0.2-3.03-2.1-2.83c-4.71,0.4-9.42,0.87-14.14,1.08c-2.35,0.1-2.03,1.45-2.01,2.98
		c0.05,5.61,0.02,11.23,0.02,16.84C140.06,112.38,140.36,112.38,140.66,112.38z"/>
	<path class="lt18" d="M440.84,196.77c-19.4-3.11-38.67-6.13-57.9-9.35c-3.53-0.59-4.03,1.25-4.35,3.86
		c-0.33,2.67-0.1,4.16,3.46,4.21c14.82,0.2,29.37,3.11,44.02,5.02c2.05,0.27,4.18,0.2,6.17,0.69
		C436.21,202.19,439.08,201.2,440.84,196.77z"/>
	<path class="lt19" d="M93.45,101.49c-8.07,0.74-14.91,2.31-20.73,6.86c-3.74,2.92-5.89,6.56-4.92,11.54
		c0.62,3.19,1.14,6.4,1.64,9.61c0.25,1.62,1.34,2.15,2.73,2.46c1.43,0.31,2.19-0.51,2.86-1.57
		C80.99,121.05,86.94,111.71,93.45,101.49z"/>
	<path class="lt17" d="M494.17,251.03c21.82,22.16,25.8,30.4,26.21,53.8C530.66,285.84,517.3,255.04,494.17,251.03z"/>
	<path class="lt17" d="M144.88,319.14c10.75-4.43,17.2-11.83,22.05-21.88c-5.32-0.29-10.22-0.54-15.12-0.82
		c-1.03-0.06-1.72,0.26-1.81,1.39C149.43,304.89,147.33,311.61,144.88,319.14z"/>
	<path class="lt20" d="M480.96,226.95c0.39-9.71,5.74-19.15-0.64-29.01c-5.16,7.33-8.75,15.02-9,24.04
		c-0.05,1.94,0.75,2.95,2.76,3.27C476.26,225.6,478.38,226.29,480.96,226.95z"/>
	<path class="lt21" d="M469.22,184.14c-1.87-0.48-2.65,0.87-3.51,2.36c-2.69,4.68-2.73,10-3.06,15.03
		c-0.18,2.73,3.92,1.97,6.02,2.91c1.84,0.82,2.21-0.72,2.46-2.1c0.69-3.79,2.05-7.36,3.38-10.96
		C476.21,186.78,474.4,184.29,469.22,184.14z"/>
	<path class="lt22" d="M371.42,183.57c-0.16-3.35,0.45-6.22,1.44-8.99c0.71-1.98,0.06-2.58-1.89-2.77
		c-5.47-0.53-10.69-2.13-15.59-4.51c-2.44-1.18-2.93,0.02-3.86,1.71c-1.17,2.14,0.2,2.32,1.67,2.96c4.63,1.99,8.63,5.01,12.52,8.17
		C367.28,181.42,368.81,182.81,371.42,183.57z"/>
	<path class="lt23" d="M456.28,219.86c-0.4,1.52,0.01,2.68,2.34,2.7c1.45,0.01,2.91,0.4,4.35,0.68c1.93,0.38,2.96,0.01,3-2.34
		c0.05-3.07,0.37-6.17,0.92-9.2c0.59-3.24-1.95-3.52-3.79-4.36c-2.02-0.93-3.69-0.34-4.7,1.79
		C456.86,212.4,456.87,215.97,456.28,219.86z"/>
	<path class="lt24" d="M503.41,222.21c0.47,4.56,2.85,6.46,6.24,7.41c4.54,1.27,9.08,2.52,12.91,5.46c1.13,0.87,2.12,1.44,3.25-0.26
		c1.05-1.57,0.36-2.4-0.75-3.31C518.85,226.43,511.43,224.31,503.41,222.21z"/>
	<path class="lt25" d="M443.93,218.08c-0.67,1.99,0.94,2.55,2.78,3.07c2.37,0.67,2.72-0.86,3.11-2.55c0.63-2.71,1.29-5.42,2.03-8.1
		c0.4-1.43,1.94-3.02-0.73-3.79c-2.08-0.6-4.18-1.5-5.49,1.44C444.25,211.21,444.46,214.46,443.93,218.08z"/>
	<path class="lt26" d="M496.17,231.41c0.66-6.78-1.54-11.7-6.9-16.15c-0.44,4.38-0.78,8.2-1.22,12.01c-0.2,1.76,0.74,2.24,2.23,2.55
		C492.13,230.19,493.94,230.79,496.17,231.41z"/>
	<path class="lt17" d="M295.94,148.34c-2-1.42-3.04-4.67-5.58-3.77c-3.68,1.31-7.34,3.09-10.23,5.94c-0.4,0.4-0.55,1.07-0.08,1.59
		c0.9,0.97,2.12,1.09,3.28,0.89C287.71,152.21,291.84,150.76,295.94,148.34z"/>
	<path class="lt17" d="M295.39,141.72c5.07,4.84,7.09,4.99,10.39,0.98c0.93-1.12,2.18-2.39,1.14-3.9c-1.09-1.58-2.92-1.35-4.43-0.71
		C300.21,139.08,298.05,140.35,295.39,141.72z"/>
	<path class="lt19" d="M471.92,179.04c1.7,0.21,2.76-0.35,2.67-2.05c-0.07-1.48-0.61-3.18-2.31-3.05c-1.66,0.13-2.61,1.59-2.84,3.37
		C469.14,179.71,471.06,178.66,471.92,179.04z"/>
	<path class="lt27" d="M32.58,268.86c0.18-0.19,0.37-0.39,0.55-0.58c-0.38-0.04-0.76-0.08-1.15-0.12
		C32.18,268.39,32.38,268.63,32.58,268.86z"/>
	<path class="lt27" d="M56.63,143.02c-0.23,0.05-0.47,0.1-0.7,0.16c0.08,0.09,0.17,0.19,0.25,0.28c0.16-0.18,0.32-0.36,0.48-0.55
		C56.66,142.89,56.63,143.02,56.63,143.02z"/>
	<path class="lt0" d="M209.47,199.6c3.36,0,6.47-0.92,9.54-2.01c1.61-0.57,2.4-1.79,2.15-3.45c-0.3-1.94-1.99-1.5-3.19-1.42
		c-4.72,0.29-9.41,1.01-14.09-0.5c-1.44-0.46-3.41-1.19-4.03,1.19c-0.61,2.34,0.4,4.24,2.65,4.93
		C204.74,199.04,207.14,199.2,209.47,199.6z"/>
	<path class="lt0" d="M351.94,189.49c-0.14,3.96,0.29,6.82,5.22,6.78c3.01-0.03,6.04,1.16,9.06,1.81c1.36,0.29,2.31-0.19,2.75-1.52
		c0.46-1.39-0.7-1.86-1.55-2.26c-3.65-1.72-6.43-4.62-9.61-6.97c-1.49-1.1-2.71-3.33-4.79-2.34
		C351.2,185.86,352.38,188.19,351.94,189.49z"/>
	<path class="lt28" d="M471.48,301.6c0.07,7.13-5.68,12.89-12.92,12.93c-6.93,0.04-12.7-5.65-12.81-12.62
		c-0.12-7.29,5.45-12.98,12.72-13C465.92,288.89,471.4,294.24,471.48,301.6z M465.68,302.45c0.13-3.46-3.16-6.67-6.86-6.7
		c-3.69-0.03-6.46,2.65-6.55,6.35c-0.1,3.98,2.6,6.9,6.41,6.96C462.32,309.1,465.55,306.06,465.68,302.45z"/>
	<path class="lt29" d="M88.23,306.85c-7.03-0.09-12.95-6.1-12.94-13.13c0.01-7.05,5.95-12.69,13.27-12.63
		c7.13,0.06,12.53,5.57,12.5,12.74C101.03,301.19,95.36,306.94,88.23,306.85z M88.79,301.11c3.53-0.05,6.44-2.96,6.48-6.49
		c0.04-3.67-3.05-6.85-6.65-6.84c-3.55,0.01-6.76,3.24-6.74,6.78C81.89,298.2,85.02,301.16,88.79,301.11z"/>
	<path class="lt17" d="M100.21,333.38"/>
	<path class="lt0" d="M458.68,309.05c3.64,0.05,6.87-2.99,7-6.6c0.13-3.46-3.16-6.67-6.86-6.7c-3.69-0.03-6.46,2.65-6.55,6.35
		C452.18,306.07,454.87,309,458.68,309.05z"/>
	<path class="lt0" d="M81.87,294.57c0.02,3.64,3.15,6.59,6.92,6.54c3.53-0.05,6.44-2.96,6.48-6.49c0.04-3.67-3.05-6.85-6.65-6.84
		C85.06,287.8,81.85,291.02,81.87,294.57z"/>
</g>
<g id="secondWheel">
	<path id="_x3C_Path_x3E__1_" class="lt0" d="M88.46,249.17c25.74-0.13,45.59,20.27,45.7,46.53c0.11,26.8-24.61,44.07-44.53,44.02
		c-26.08-0.06-46.37-19.89-46.37-45.44C43.25,269.31,63.31,249.3,88.46,249.17z M88.91,281.61c-7.67-0.07-13.82,6.14-13.23,13.65
		c0.53,6.64,6.15,11.97,12.81,12.1c7.17,0.14,12.89-5.62,12.92-13.01C101.44,287.19,96.03,281.68,88.91,281.61z M124.46,292.28
		c6.78,0,6.78,0,5.18-6.79c-2.68-11.4-3.02-11.55-12.94-5.81c-2.69,1.56-5.4,3.09-8.08,4.65c-1.71,1-3.76,1.49-2.77,4.52
		c0.87,2.64,1.86,3.87,4.82,3.5c2.63-0.33,5.33-0.07,8-0.07C120.6,292.28,122.53,292.28,124.46,292.28z M76.73,310.5
		c1.46-2.42-0.78-3.04-1.62-4.38c-1.07-1.72-2.28-1.26-3.72-0.4c-4.95,2.95-9.91,5.89-14.95,8.68c-1.99,1.1-2.49,1.98-0.9,3.93
		c3.1,3.8,6.33,7.41,10.81,10.16C69.81,322.47,73.16,316.42,76.73,310.5z M103.4,281.95c6.13-3.21,12.1-6.74,18.13-10.14
		c1.34-0.75,0.89-1.61,0.21-2.51c-2.52-3.31-5.4-6.23-8.89-8.54c-1.35-0.89-2.67-1.3-3.36,2.78c-0.99,5.84-4.25,10.92-8.8,14.71
		c-0.5,0.42-0.5,0.72-0.79,1.49C100.85,280.78,101.55,282.92,103.4,281.95z M109.03,297.06c-1.98-0.13-2.44,0.99-2.98,2.47
		c-0.65,1.78,0.38,2.31,1.69,2.93c5.73,2.73,11.44,5.5,17.11,8.33c1.56,0.78,2.36,0.42,2.73-1.21c0.03-0.14,0.1-0.28,0.16-0.41
		c4.52-11.35,3.94-12.06-9.85-12.06C114.95,297.11,111.98,297.25,109.03,297.06z M52.83,297.1c-5.35,0.01-5.35,0.01-4.29,5.47
		c1.87,9.69,1.87,9.68,10.19,4.97c3.6-2.04,7.19-4.11,10.82-6.09c1.16-0.64,1.84-1.3,1.54-2.77c-0.34-1.66-1.53-1.56-2.71-1.57
		c-2.96-0.02-5.93-0.01-8.89-0.01C57.28,297.1,55.05,297.1,52.83,297.1z M71.6,329.47c-0.62,1.07-0.2,2.35,0.94,2.84
		c0.64,0.28,1.27,0.62,1.94,0.76c3.94,0.82,7.83,3.57,11.85,1.55c1.92-0.97-0.18-13.45-2.34-16.29c-0.98-1.29-1.95-2.59-3.44-4.56
		C77.42,319.29,74.55,324.4,71.6,329.47z M70.33,274.68c-1.71-2.22-3.05-4.72-4.57-7.09c-3.34-5.23-3.34-5.23-7.59-0.47
		c-6.77,7.58-6.77,7.57,2.38,12.03c3.67,1.79,7.33,3.61,11.06,5.44C73.09,280.74,72.63,277.65,70.33,274.68z M68.35,292.41
		c0.96-0.02,2.16,0.3,2.52-1.14c0.37-1.49-0.52-2.08-1.69-2.65c-5.45-2.66-10.91-5.29-16.26-8.13c-1.85-0.98-2.68-0.62-3.2,1.22
		c-0.08,0.28-0.16,0.57-0.25,0.85c-3.34,9.72-2.72,10.56,7.34,9.94c1.03-0.06,2.07-0.01,3.11-0.01c0-0.02,0-0.05,0-0.07
		C62.72,292.42,65.53,292.45,68.35,292.41z M102.27,310.88c4.44,4.45,9.73,7.47,15.6,9.69c3.55,1.34,4.63-1.32,5.6-3.33
		c1.09-2.25-1.6-2.26-2.79-2.88c-5.22-2.71-10.59-5.12-15.76-7.91c-2.65-1.43-3.24,0.55-4.66,1.93
		C101.02,309.32,101.57,310.17,102.27,310.88z M101.11,257.28c-4.48,4.69-7.27,10.26-8.7,16.55c-0.32,1.4-0.36,2.56,1.36,3.16
		c1.7,0.59,2.36-0.36,3.07-1.61c2.98-5.23,5.94-10.48,9.06-15.63c2.13-3.51-1.41-2.81-2.32-3.81
		C102.18,255.83,101.7,256.67,101.11,257.28z M78.44,254.93c-12.4,2.5-13.19,4.72-5.04,15.23c1.83-5.08,3.27-10.1,5.84-14.81
		C78.69,255.06,78.54,254.91,78.44,254.93z M100.55,333.9c-2.98-2.29-5.73-4.4-8.93-6.86C91.21,336.93,91.21,336.93,100.55,333.9z"
		/>
</g>
<g id="firstWheel">
	<path id="_x3C_Path_x3E_" class="lt0" d="M458.24,256.64c26.07-0.1,45.82,19.74,46.07,46.07c0.24,25.83-22.07,43.97-44.11,44.2
		c-26.17,0.27-46.47-19.55-46.56-45.08C413.56,277.08,433.63,256.74,458.24,256.64z M446.13,301.91
		c0.11,6.97,5.88,12.65,12.81,12.62c7.24-0.04,12.99-5.8,12.92-12.93c-0.07-7.37-5.56-12.71-13.02-12.69
		C451.58,288.94,446.02,294.62,446.13,301.91z M456.81,268.83c0-9.05,0-9.05-9.01-6.46c-11.66,3.35-11.79,3.68-5.56,13.49
		c1.18,1.87,2.64,3.62,3.48,5.63c1.78,4.23,4.23,5.02,8.39,2.98c2.08-1.02,2.88-1.92,2.74-4.14c-0.18-2.79-0.04-5.6-0.04-8.4
		C456.81,270.89,456.81,269.86,456.81,268.83z M469.64,319.83c3.24,4.77,6.63,9.45,9.67,14.35c1.54,2.49,2.78,2.43,4.79,0.7
		c3.04-2.6,6.07-5.17,8.47-8.43c1.1-1.49,1.38-2.36-0.57-3.29c-5.88-2.79-11.68-5.74-17.55-8.54c-1.96-0.94-6.14,1.5-5.99,3.43
		C468.83,318.59,469.23,319.22,469.64,319.83z M430.13,330.91c6.03,6.16,6.07,6.12,10.27-1.22c1.91-3.33,3.65-6.77,5.77-9.96
		c1.53-2.31,1.55-3.77-0.48-5.99c-2.28-2.49-3.65-0.62-5.26,0.27c-4.65,2.58-9.23,5.28-13.84,7.95c-0.84,0.49-1.87,0.82-2.2,2.2
		C426.31,326.43,428.08,328.81,430.13,330.91z M493.01,299.75c6.51,0,6.51,0,5.82-6.34c-1.19-10.85-2.51-11.57-11.58-6.34
		c-2.68,1.54-5.37,3.07-8.03,4.64c-1.8,1.07-3.91,1.54-3.08,4.81c0.86,3.38,2.81,3.37,5.37,3.25c2.06-0.1,4.13-0.02,6.19-0.02
		C489.47,299.75,491.24,299.75,493.01,299.75z M456.84,322.45c0.1-2.09-0.92-2.73-2.73-3.26c-1.95-0.57-2.6,0.38-3.38,1.79
		c-2.77,5.04-5.55,10.07-8.51,15c-1.33,2.21-1.03,3.49,1.44,4.24c0.14,0.04,0.27,0.12,0.41,0.17c12.06,4.58,12.74,4.09,12.74-9.1
		C456.8,328.36,456.69,325.4,456.84,322.45z M474.3,289.23c5.76-3.32,11.5-6.65,17.31-9.87c1.74-0.97,1.48-1.88,0.42-3.07
		c-0.1-0.11-0.18-0.24-0.27-0.35c-2.69-3.16-5.39-7.71-9.14-7.9c-3.99-0.21-4.35,5.59-6.49,8.62c-1.78,2.51-3.11,5.35-4.61,8.06
		c-0.42,0.76-0.77,1.57-1.23,2.53C471.43,288.39,471.81,290.66,474.3,289.23z M461.63,281.44c-0.12,1.92,0.87,2.51,2.41,3
		c1.72,0.55,2.36-0.46,3.05-1.69c2.96-5.26,5.9-10.52,8.98-15.71c1.06-1.78,1.13-2.93-1.09-3.54c-0.14-0.04-0.28-0.08-0.42-0.14
		c-11.97-5.12-12.88-4.47-12.88,9.25C461.67,275.55,461.81,278.51,461.63,281.44z M479.19,304.52c-2.01-0.13-2.46,1.09-2.98,2.52
		c-0.64,1.78,0.52,2.28,1.8,2.89c5.32,2.54,10.65,5.06,15.88,7.78c2.23,1.16,3.34,0.57,3.75-1.67c0.56-3.04,0.94-6.11,1.45-9.16
		c0.3-1.79-0.5-2.36-2.19-2.33c-2.95,0.06-5.91,0.02-8.86,0.02C485.09,304.57,482.13,304.71,479.19,304.52z M425.24,283.82
		c5.31,2.61,10.62,5.23,15.93,7.83c1.05,0.52,2.07,1.14,3.06-0.29c0.74-1.07,1.19-1.97,0.4-3.2c-3.5-5.49-6.96-11-10.44-16.5
		c-0.52-0.82-1.13-1.44-2.09-0.58c-3.34,2.98-6.12,6.42-8.42,10.24c-0.15,0.24-0.18,0.56-0.28,0.88
		C423.53,283.27,424.48,283.45,425.24,283.82z M430.83,313.98c2.94-1.68,5.86-3.39,8.81-5.03c1.09-0.61,2-1.18,1.67-2.69
		c-0.34-1.53-1.42-1.67-2.67-1.68c-6.04-0.07-12.07-0.11-18.11-0.25c-2.35-0.05-2.23,1.29-1.89,2.78
		C419.56,319.01,420.79,319.7,430.83,313.98z M461.75,336.85c0.02,6.78,0.03,6.78,6.81,5.38c8.84-1.83,8.92-2.02,4.18-9.49
		c-2.45-3.87-4.9-7.74-7.34-11.62c-0.64-1.02-1.21-2.14-2.72-1.56c-1.3,0.5-0.99,1.68-1,2.66c-0.04,2.96-0.01,5.91-0.01,8.87
		c0.03,0,0.05,0,0.08,0C461.75,333,461.74,334.92,461.75,336.85z M438.91,299.89c0.92,0,1.79-0.1,2.11-1.18
		c0.35-1.21-0.16-1.93-1.25-2.46c-5.72-2.8-11.43-5.6-17.1-8.5c-1.66-0.85-2.21,0.12-2.5,1.32c-0.69,2.88-1.22,5.79-1.81,8.69
		c-0.4,1.96,0.79,2.18,2.31,2.16c2.97-0.04,5.93-0.01,8.9-0.01C432.68,299.89,435.79,299.89,438.91,299.89z"/>
</g>
</svg>
