<?xml version="1.0" encoding="utf-8"?>
<!-- Generator: Adobe Illuktrator 23.1.0, SVG Export Plug-In . SVG Version: 6.00 Build 0)  -->
<svg version="1.1" id="Layer_1" xmlns="http://www.w3.org/2000/svg" xmlns:xlink="http://www.w3.org/1999/xlink" x="0px" y="0px"
	 viewBox="0 0 500 500" style="enable-background:new 0 0 500 500;" xml:space="preserve">
<style type="text/css">
	.kt0{fill:#AFAFAF;}
</style>
<g>
	<path d="M491.98,248.62c7.63,26.63-6.79,36.74-36.13,37.79c-26.92,0.96-43.77,43.59-27.83,65.94
		c8.51,11.93,29.59,22.29,22.42,36.28c-9.68,18.88-27.74,34.35-44.63,48.34c-10.74,8.89-17.5-7-26.37-11.02
		c-11.91-5.4-18.88-23.31-37.18-12.55c-18.35,10.79-42.23,14.72-37.96,45.65c1.26,9.11,2.9,25.82-10.82,29.29
		c-22.19,5.62-45.84,9.71-67.95,1.59c-9.02-3.31-6.09-17.16-6.83-26.6c-1.36-17.18-5.6-29.98-25.51-36.46
		c-19.82-6.44-36.66-12.15-50.93,7.88c-14.93,20.96-30.1,18.66-46.02,1.27c-4.54-4.95-9.13-10.16-14.63-13.88
		c-19.15-12.97-22.35-26.65-4.58-43.69c16.94-16.25,17.42-33.26,4.88-53.98c-9.08-15.01-18.19-24-35.99-21.29
		c-28.65,4.36-38.23-9.52-34.99-36.09c0.46-3.79,0.67-7.85-0.2-11.51c-7.08-30.05,9.1-40.07,35.21-39.47
		c16.05,0.37,25.08-5.34,28.79-21.05c3.93-16.65,17.79-32.24-1.73-49.43c-9.04-7.96-26.91-18.78-19.46-31.42
		C64.95,94.8,81.8,77.35,99.79,63.55c9.81-7.53,18.13,10.22,28.26,14.75c11.19,5.01,17.73,20.35,34.77,9.89
		c17.8-10.92,39.12-16.45,38.14-44.12c-0.37-10.3-5.95-27.23,8.45-30.18c22.18-4.55,46.21-11.48,67.97-2.6
		c11.38,4.65,7.04,22.6,9.95,34.32c7.64,30.81,44.29,45.19,68.96,26.36c10.32-7.87,20.64-27.17,31.45-20.91
		c19.35,11.2,35.85,29.01,49.96,46.89c7.51,9.52-6.67,18.36-12.5,26.45c-9.75,13.53-18.48,25.03-7.9,43.66
		c10.46,18.43,18.37,33.24,44.47,31.24C490.83,197.07,491.03,199.68,491.98,248.62z"/>
	<path class="kt0" d="M401.18,430.58c-9.66-7-17.88-12-24.96-18.29c-13.96-12.4-27.57-14.1-44.27-4.29
		c-18.05,10.61-40,16.27-37.44,44.3c1.58,17.3,0.72,32.27-24.67,30.04c-20.46-1.8-44.8,5.82-43.75-27.62
		c0.61-19.29-6.83-30.51-26.15-34.83c-20.24-4.53-40.58-22.26-59.01,3.78c-13.82,19.54-27.08,17.05-43.92,1.13
		c-16.37-15.48-27-26.13-8.23-48.7c25.52-30.67,2.7-76.88-38.1-80.41c-20.12-1.74-31.79-8.07-29.36-31.32
		c1.81-17.29-8.94-36,23.52-39.14c45.78-4.44,63.16-55.53,30.92-89.45C49.38,108.04,81,100.82,89.16,85.65
		c10.97-20.41,23.01-8.71,34.01,1c14.76,13.04,28.69,19.04,48.82,7.17c20.18-11.91,42.96-18.4,36.48-49.57
		c-3.13-15.05,1.47-28.81,20.62-23.95c16.7,4.24,46.15-18.34,47.81,20.75c0.81,19.02,4.31,35.12,26.9,41.41
		c22.98,6.4,45,18.01,64.04-7.4c10.16-13.56,21.5-18.95,33.77-1.61c9.98,14.11,38.62,19.42,16.49,47.26
		c-28.77,36.19-8.85,80.81,37.74,86.31c20.86,2.46,30.2,8.5,28.85,31.41c-1.16,19.64,1.91,35.08-26.22,38.86
		c-45.57,6.12-59.45,52.79-29.87,89.71c5.12,6.39,18.63,12.27,9.96,23.34C427.48,404.47,414.13,416.83,401.18,430.58z"/>
</g>
</svg>
