<?xml version="1.0" encoding="utf-8"?>
<!-- Generator: Adobe Illultrator 24.1.1, SVG Export Plug-In . SVG Version: 6.00 Build 0)  -->
<svg version="1.1" id="FordCar" xmlns="http://www.w3.org/2000/svg" xmlns:xlink="http://www.w3.org/1999/xlink" x="0px" y="0px"
	 viewBox="0 0 213.7 124.09" style="enable-background:new 0 0 213.7 124.09;" xml:space="preserve">
<style type="text/css">
	.lt0{fill:#080808;}
	.lt1{fill:#8D4DE8;}
	.lt2{fill:#FDFDFD;}
	.lt3{fill:#4F2A72;}
	.lt4{fill:#7F2C93;}
	.lt5{fill:#282020;}
	.lt6{fill:#140D0D;}
	.lt7{fill:#3F3D3D;}
	.lt8{fill:#0F0F0C;}
	.lt9{fill:#0C0C0B;}
	.lt10{fill:#EDEDA6;}
	.lt11{fill:#565252;}
	.lt12{fill:#F4F4F4;}
	.lt13{fill:#C4C48C;}
	.lt14{fill:#3F3636;}
	.lt15{fill:#E5E4B7;}
	.lt16{fill:#B537B2;}
	.lt17{fill:#E5E593;}
	.lt18{fill:#E8E8A3;}
	.lt19{fill:#CC40CC;}
	.lt20{fill:#EAEA92;}
	.lt21{fill:#EDED98;}
	.lt22{fill:#545450;}
	.lt23{fill:#4F104D;}
	.lt24{fill:#3A3A33;}
	.lt25{fill:#3D3D3D;}
	.lt26{fill:#303026;}
	.lt27{fill:#51514C;}
	.lt28{fill:#BCB53B;}
	.lt29{fill:#B2AF4F;}
</style>
<g>
	<path class="lt0" d="M172.34,121.1c-1.23-0.72-2.64-0.4-3.95-0.63c-10.56-1.87-18.18-11.44-17.53-22.11
		c0.14-2.33,0.61-4.58,1.47-6.75c0.11-0.28,0.4-0.58,0.06-0.8c-0.28-0.18-0.58,0.03-0.78,0.3c-0.25,0.33-0.52,0.64-0.78,0.96
		c-2.62,3.18-5.19,6.39-7.87,9.52c-1.77,2.06-1.84,2-3.22-0.25c-0.16-0.26-0.39-0.5-0.5-0.78c-0.56-1.49-1.39-1.5-2.79-0.92
		c-3.07,1.26-6.31,2.07-9.63,1.33c-2.85-0.64-5.66-1.2-8.62-1.29c-13.01-0.39-26.02-0.94-39.03-1.49c-1.44-0.06-2.07,0.32-2.55,1.77
		c-2.55,7.74-10.07,13.1-18.31,13.21c-0.56,0.01-1.15-0.08-1.63,0.32c-3.24,2.72-7.13,3.72-11.2,4.39
		c-10.3,1.7-19.87-4.36-22.47-14.35c-1.36-5.23-1.05-10.38,0.88-15.44c0.06-0.07,0.13-0.13,0.19-0.2c-0.13-0.01-0.27-0.03-0.4-0.04
		c-0.77-0.04-1.55,0.01-2.31-0.12c-2.07-0.36-2.33-0.82-1.98-2.9c0.2-1.18,0.59-2.29,1.06-3.37c1.35-3.09,3.31-5.81,5.49-8.35
		c1.15-1.34,1.81-2.55,1.2-4.36c-0.31-0.94-0.28-2.05-0.16-3.06c0.41-3.38,1.1-6.65,4.48-8.48c0.65-0.35,0.38-0.91,0.33-1.36
		c-0.63-5-1.24-10.01-1.94-15c-1.06-7.49-2.21-14.96-3.29-22.45c-0.35-2.43,0.63-3.89,2.98-4.58c2.81-0.83,5.61-1.76,8.46-2.44
		c7.36-1.76,14.57-4.1,22.39-3.53c10.23,0.74,20.5,0.39,30.76,0.38c1.2,0,2.34,0.16,3.49,0.51c14.9,4.6,29.8,9.19,44.7,13.78
		c2.53,0.78,2.52,0.78,2.43,3.45c-0.04,1.15-0.21,2.2-1.59,2.45c-0.81,0.14-0.61,0.64-0.51,1.16c1.4,7.38,2.8,14.76,4.16,22.14
		c0.13,0.69,0.31,1.05,1.11,1.16c9.13,1.23,18.26,2.5,27.39,3.79c0.69,0.1,0.98,0.02,1.16-0.73c0.41-1.66,2.25-3.02,3.97-3.08
		c1.09-0.04,1.84,0.51,2.02,1.52c0.61,3.45,2.35,6.56,2.83,10.06c0.41,2.95,2.86,4.63,5.23,5.66c3.17,1.37,6.38,2.58,9.23,4.57
		c1.63,1.14,1.57,1.15,0.47,2.82c-0.71,1.08-1.37,1.42-2.59,0.7c-0.71-0.42-1.46-1.1-2.74-0.81c2.85,1.96,5.04,4.23,6.54,7.11
		c2.18,4.18,3.64,8.64,3,13.34c-1.13,8.27-6.16,13.68-13.65,16.97c-0.91,0.4-1.71,0.9-2.51,1.48c-3.02,2.24-6.29,3.91-10.1,4.34
		c-0.54,0.06-1.26-0.15-1.65,0.51C173.16,121.1,172.75,121.1,172.34,121.1z M32.01,44.4c0.03,0.03,0.06,0.06,0.09,0.1
		c0.05-0.06,0.11-0.12,0.16-0.19c-0.49,1.26,0.11,2.48,0.26,3.71c0.71,5.98,1.77,11.89,3.22,17.74c0.4,1.63,1.01,2,2.69,1.79
		c4.41-0.56,8.81-0.44,13.19,0.64c5.85,1.43,10.15,5.02,13.87,9.5c1.75,2.11,3.37,4.3,4.39,6.86c0.33,0.82,0.88,0.72,1.47,0.76
		c7.29,0.49,14.59,1,21.88,1.46c12.15,0.77,24.31-0.23,36.46-0.03c1.24,0.02,1.15-0.62,1.14-1.43c-0.01-8.24,0.03-16.47,0.35-24.7
		c0.13-3.25,0.28-6.49,1.93-9.42c0.29-0.51,0.16-0.97,0.05-1.48c-1.49-6.94-2.96-13.88-4.45-20.81c-0.1-0.46,0.03-1.2-0.75-1.09
		c-0.87,0.12-0.39,0.8-0.33,1.23c1,7.24,2.01,14.47,3.07,21.7c0.11,0.75-0.1,1.34-0.46,1.88c-2.1,3.05-2.58,6.5-2.76,10.1
		c-0.23,4.73-0.63,9.45-0.99,14.17c-0.3,3.91-1.78,5.36-5.67,5.66c-0.72,0.06-1.43,0.15-2.15,0.17c-9.73,0.23-19.46,0.72-29.19,0.05
		c-2.98-0.2-5.95-0.44-8.82-1.39c-1-0.33-1.5-0.92-1.75-1.92c-1.75-6.92-2.08-13.93-1.31-20.99c0.18-1.63-0.3-2.05-1.82-2.19
		c-7.75-0.71-15.43-1.88-22.99-3.76c-5.8-1.44-11.45-3.34-16.86-5.89c-1.31-0.62-2.54-1.36-3.66-2.27
		C32.17,44.37,32.09,44.38,32.01,44.4z M117.31,47.95c-0.52-0.53-0.93-0.19-1.38-0.02c-1.82,0.69-3.59,1.56-5.63,1.45
		c-1.05-0.06-2-0.31-2.39-1.36c-0.37-0.97,0.29-1.7,0.96-2.27c2.95-2.49,6.23-4.37,10.13-4.94c0.97-0.14,2.05-0.26,2.6,0.82
		c0.53,1.04,0.06,2-0.54,2.88c-0.11,0.17-0.28,0.3-0.43,0.44c-0.67,0.61-2.07,0.95-1.97,1.7c0.1,0.76,1.23,1.41,1.93,2.07
		c1.81,1.69,3.66,3.33,5.44,5.05c0.66,0.64,1.03,0.58,1.53-0.15c0.7-1.03,0.95-2.15,0.92-3.36c-0.11-5.05-0.96-10.04-1.45-15.05
		c-0.21-2.15-0.56-4.29-0.76-6.44c-0.08-0.93-0.32-1.32-1.37-1.33c-13.29-0.19-26.57-0.44-39.86-0.67
		c-4.63-0.08-9.27-0.17-13.9-0.29c-0.64-0.02-1.06,0.09-1.34,0.73c-1.94,4.48-3.88,8.95-5.88,13.4c-0.42,0.93,0.3,1.09,0.74,1.4
		c2.95,2.04,5.59,4.39,7.67,7.32c0.71,1,1.31,2.09,1.93,3.16c0.26,0.45,0.47,0.83,1.08,0.96c2.03,0.43,2.03,0.47,2.21-1.67
		c0.15-1.74-0.2-3.49,0.04-5.24c0.3-2.3,1.28-3.57,3.51-4.12c3.2-0.79,6.42-1.38,9.76-0.75c2.34,0.44,4.4,1.32,6.2,2.89
		c1.55,1.35,3.13,2.68,4.81,3.87c4.05,2.89,8.87,3.47,13.6,4.05c2.06,0.25,3.7,0.7,4.66,2.63c0.23,0.47,0.56,0.68,1.1,0.64
		c1.07-0.09,2.14-0.14,3.57-0.23C122.15,52.83,119.71,50.41,117.31,47.95z M118.81,80.33c3.68-0.02,4.63-0.93,4.87-4.62
		c0.36-5.6,0.99-11.18,1.75-16.73c0.17-1.23-0.18-1.36-1.21-1.29c-8.29,0.59-16.58,0.43-24.88,0.32
		c-6.19-0.09-12.32-0.87-18.48-1.33c-0.96-0.07-1.13,0.13-1.11,0.99c0.14,5.04,0.2,10.09,0.38,15.13c0.05,1.43,0.36,2.86,0.94,4.2
		c0.65,1.51,1.77,2.47,3.46,2.73c4.25,0.65,8.52,0.57,12.8,0.61c2.16,0.02,4.33,0,6.49,0C108.82,80.34,113.81,80.36,118.81,80.33z
		 M133.21,84.98c-0.01,1.12,0.19,1.7,1.43,1.32c0.05-0.01,0.1-0.01,0.15,0c4.35,0.68,7.42-1.25,10.24-4.41
		c3.26-3.65,7.13-6.68,11.52-8.94c2.15-1.1,4.31-2.19,6.85-1.92c0.58,0.06,0.88-0.17,0.85-0.77c0-0.1,0.02-0.2,0.03-0.31
		c0.1-1.25,0.92-2.86,0.2-3.64c-0.62-0.68-2.33-0.37-3.55-0.52c-5.82-0.7-11.69-1.01-17.5-1.82c-1.27-0.18-1.91-0.72-1.77-1.98
		c0.09-0.8-0.2-1.02-0.93-1.23c-1.83-0.53-3.1-1.96-4.57-3.08c-0.67-0.51-1.42-1.44-2.22-1.07c-0.6,0.28-0.25,1.4-0.25,2.15
		c-0.02,4.22-0.01,8.43-0.01,12.65c-0.15,0-0.31,0-0.46,0C133.23,75.93,133.27,80.45,133.21,84.98z M63.87,10.01
		c-4.99-0.48-9.71,0.37-14.49,1.49c-6.21,1.46-12.45,2.83-18.67,4.23c-1.89,0.43-2.44,1.07-2.2,3c0.89,7.35,1.83,14.7,2.76,22.05
		c0.1,0.82,2.02,1.98,2.87,1.78c0.67-0.16,0.36-0.62,0.32-0.99c-0.48-3.93-1-7.86-1.43-11.8c-0.42-3.79-0.3-7.6-0.19-11.41
		c0.03-0.97,0.49-1.23,1.29-1.33c6.94-0.94,13.87-1.91,20.81-2.83c4.39-0.58,8.77-1.23,13.18-1.61c7.37-0.63,14.7-0.04,22,1.13
		c15.28,2.47,30.02,7.09,44.84,11.35c1.04,0.3,2.07,0.63,3.12,0.88c0.46,0.11,1.18,0.74,1.38-0.03c0.17-0.67-0.09-1.44-1.11-1.7
		c-3.03-0.8-6.03-1.73-9.05-2.59c-12.36-3.56-24.72-7.1-37.07-10.67c-3.26-0.94-6.56,0-9.02-0.36
		C76.19,10.92,70.01,10.6,63.87,10.01z M128.28,88.66c-14.1,0.89-28.19,0.7-42.28-0.2c-5.03-0.32-10.06-0.61-15.06-1.26
		c-0.83-0.11-1.15,0-0.86,0.94c0.36,1.17,0.85,2.32,0.89,3.58c0.02,0.82,0.66,0.62,1.14,0.64c5.24,0.23,10.49,0.45,15.73,0.67
		c13.16,0.55,26.33,1,39.49,1.74c1.85,0.1,2.98-0.46,4.23-1.43c2.03-1.56,3.96-3.24,6.07-5.36
		C134.22,88.21,131.25,88.47,128.28,88.66z M30.76,72.72c-4.71,2.72-6.98,7.23-9.04,11.94c-0.28,0.63,0.05,0.84,0.64,0.82
		c1.72-0.06,3.22-0.27,4.44-1.88c5.93-7.8,15.27-10.84,24.13-7.59c6.81,2.5,11.17,7.52,12.98,14.58c0.29,1.13,0.75,1.41,1.8,1.56
		c4.03,0.57,4.41,0.19,2.95-3.68c-3.48-9.18-9.55-15.72-19.24-18.44c-0.84-0.24-1.71-0.4-2.58-0.46c-1.07-0.08-2.16-0.02-3.24-0.02
		C39.07,69.51,34.75,70.42,30.76,72.72z M190.49,99.28c-0.35-10.58-8.66-18.48-19.17-18.23c-10.25,0.25-18.14,8.85-17.86,19.48
		c0.25,9.61,8.99,17.72,18.81,17.45C182.49,117.71,190.81,109.17,190.49,99.28z M61.63,96.08c-0.38-8.8-10.07-18.02-19-17.81
		c-10.19,0.24-18.19,8.86-17.9,19.29c0.27,9.84,8.89,18.02,18.7,17.75C53.38,115.32,62.1,106.97,61.63,96.08z M45.5,47.54
		c8.15,2.59,16.5,4.28,24.99,5.32c0.96,0.12,1.06,0.04,0.73-0.51c-2.72-4.5-5.99-8.44-11.45-9.61c-1.78-0.38-3.69-0.17-5.54-0.15
		c-4.79,0.05-9.43,1.11-14.39,2.11C41.7,46.15,43.57,46.92,45.5,47.54z M137.53,97.1c0.87-0.35,1.34-1.1,1.92-1.75
		c4.46-5.02,9.41-9.49,14.69-13.65c4.74-3.74,10.2-4.9,16-5.16c5.51-0.25,10.71,1.14,15.84,2.94c1.21,0.43,2.44,0.82,3.63,1.28
		c0.51,0.2,0.89,0.21,1.15-0.33c0.31-0.65-0.28-0.64-0.61-0.79c-6.92-3.28-14.21-5.1-21.86-5.51c-0.93-0.05-1.86-0.07-2.78-0.17
		c-4.16-0.46-7.45,1.48-10.62,3.8c-5.49,4.04-10.55,8.57-15.41,13.33c-3.32,3.26-7.02,5.99-11.68,7.98
		C131.56,99.38,134.56,98.31,137.53,97.1z M130.47,28.25c-0.63,0.64,0.16,2.1,0.39,3.18c1.14,5.43,2.46,10.81,3.86,16.18
		c0.48,1.84,1.49,2.79,3.14,3.34c1.11,0.37,2.43,1.21,3.35,0.48c0.7-0.56-0.09-1.91-0.26-2.88c-1.14-6.37-2.46-12.72-3.31-19.14
		c-0.13-0.95-0.46-1.36-1.46-1.26c-0.82,0.08-1.65,0.02-2.47,0.02c0-0.01,0-0.03,0-0.04C132.6,28.13,131.03,27.69,130.47,28.25z
		 M111.72,54.07c-2.55-0.33-5.07-0.78-7.54-1.53c-2.62-0.79-4.86-2.11-6.71-4.16c-4.1-4.54-9.27-5.8-15.14-4.74
		c-1.67,0.3-1.86,0.85-0.91,2.3c1.51,2.29,3.8,3.44,6.36,4c4.82,1.05,9.66,1.95,14.5,2.92c1.11,0.22,2.31,0.41,3,1.4
		c0.88,1.29,2.07,1.44,3.47,1.41c2.88-0.07,5.76-0.02,8.64-0.02C115.67,54.41,113.67,54.33,111.72,54.07z M110.21,95.42
		c-13.27-0.48-26.54-0.96-39.8-1.44c-1.49-0.05-2.98-0.12-4.48-0.12c-0.5,0-1.33-0.45-1.26,0.71c0.05,0.8-0.04,1.44,1.18,1.45
		c5.82,0.07,11.63,0.24,17.45,0.39c11.99,0.31,23.98,0.6,35.97,0.95c1.8,0.05,3.58,0.38,5.39,0.22c1.35-0.12,2.63-0.42,4.09-1.49
		C122.32,95.86,116.27,95.64,110.21,95.42z M79.23,14.78c-3.1-0.43-6.35,0.23-9.53,0.44c-8.88,0.59-17.77,1.2-26.65,1.8
		c-0.54,0.04-1.08,0.11-1.65,0.17c0.49,0.58,1.12,0.42,1.69,0.43c4.02,0.03,8.04,0.05,12.05,0.07c10.77,0.06,21.53-0.03,32.29,0.25
		c6.25,0.16,12.49,0.89,18.71,1.7c0.07,0.01,0.15-0.11,0.46-0.35C97.36,17.73,88.33,16.03,79.23,14.78z M172.06,59.4
		c-3.28-0.56-6.43-1.11-9.59-1.63c-5.27-0.88-10.54-1.74-15.82-2.62c-1.57-0.26-2.95,0.85-2.99,2.4c-0.02,0.74,0.53,0.49,0.85,0.54
		c4.01,0.62,8.03,1.21,12.04,1.82c3.25,0.49,6.5,1.02,9.75,1.49c1.71,0.24,3.25,0.86,4.67,1.97
		C171.41,62.04,171.4,60.73,172.06,59.4z M52.5,37.28c1.2-1.57,1.47-3.38,0.6-5.22c-0.8-1.71-2.33-2.2-4.08-2.22
		c-0.54-0.01-0.98,0.11-1.3,0.63c-1.96,3.14-3.94,6.26-5.9,9.39c-0.16,0.25-0.28,0.52-0.43,0.8C44.9,41.65,50.41,40.02,52.5,37.28z
		 M99.58,54.05c-4.95-0.91-10.02-1.14-14.79-2.99c-1.53-0.59-2.83-1.6-4.53-2.36c0,1.59,0.01,3.01,0,4.43
		c0,0.55,0.18,0.84,0.79,0.88c7.29,0.51,14.58,1.05,21.87,1.57c0.07,0.01,0.15-0.07,0.35-0.18C102.2,54.37,100.86,54.29,99.58,54.05
		z M61.47,39.86c0,0.29-0.1,0.67,0.28,0.78c0.41,0.12,0.5-0.29,0.61-0.55c1.81-4.18,3.73-8.33,5.13-12.68
		c0.24-0.75,0.07-1.05-0.73-0.98c-1.64,0.14-3.27,0.3-4.92,0.38c-0.82,0.04-0.7,0.5-0.7,1.04c0.02,1.95,0.01,3.9,0.01,5.85
		c0.1,0,0.21,0,0.31,0C61.46,35.75,61.46,37.81,61.47,39.86z M145.67,59.78c-1.23-0.21-1.4,0.44-1.51,1.34
		c-0.11,0.93-0.04,1.45,1.2,1.46c5.15,0.07,10.21,1.08,15.3,1.74c0.71,0.09,1.45,0.07,2.14,0.24c1.38,0.34,2.38,0,2.99-1.54
		C159.05,61.95,152.35,60.9,145.67,59.78z M37.85,32.3c-1.3,1.02-2.05,2.28-1.71,4.01c0.22,1.11,0.4,2.23,0.57,3.34
		c0.09,0.56,0.47,0.75,0.95,0.85c0.5,0.11,0.76-0.18,0.99-0.55c2.07-3.25,4.14-6.5,6.4-10.04C42.25,30.17,39.87,30.72,37.85,32.3z
		 M193.44,100.59c3.57-6.6-1.07-17.3-9.11-18.7C191.91,89.59,193.29,92.45,193.44,100.59z M70.59,97.96
		c-1.85-0.1-3.55-0.19-5.26-0.28c-0.36-0.02-0.6,0.09-0.63,0.48c-0.19,2.45-0.93,4.79-1.78,7.4
		C66.66,104.02,68.9,101.45,70.59,97.96z M179.51,63.43c-1.79,2.55-3.04,5.22-3.13,8.36c-0.02,0.67,0.26,1.02,0.96,1.14
		c0.76,0.12,1.49,0.36,2.39,0.59C179.87,70.14,181.73,66.86,179.51,63.43z M174.43,59.46c-0.93,1.63-0.95,3.47-1.06,5.23
		c-0.06,0.95,1.36,0.69,2.09,1.01c0.64,0.28,0.77-0.25,0.85-0.73c0.24-1.32,0.71-2.56,1.17-3.81c0.59-1.6-0.04-2.47-1.84-2.52
		C175,58.47,174.73,58.94,174.43,59.46z M142.16,55.32c0.25-0.69,0.02-0.9-0.66-0.96c-1.9-0.18-3.72-0.74-5.42-1.57
		c-0.85-0.41-1.02,0.01-1.34,0.59c-0.41,0.74,0.07,0.81,0.58,1.03c1.61,0.69,3,1.74,4.35,2.84c0.55,0.44,1.08,0.93,1.98,1.19
		C141.6,57.28,141.82,56.28,142.16,55.32z M171.97,71.99c0.5,0,1.01,0.14,1.51,0.24c0.67,0.13,1.03,0,1.04-0.81
		c0.02-1.07,0.13-2.15,0.32-3.2c0.2-1.13-0.68-1.22-1.32-1.51c-0.7-0.32-1.28-0.12-1.63,0.62c-0.54,1.14-0.53,2.38-0.74,3.73
		C171.02,71.58,171.16,71.98,171.97,71.99z M189.7,74.44c1.58,0.44,3.15,0.87,4.49,1.9c0.39,0.3,0.74,0.5,1.13-0.09
		c0.36-0.55,0.12-0.83-0.26-1.15c-2.15-1.77-4.73-2.5-7.52-3.23C187.7,73.46,188.53,74.12,189.7,74.44z M167.83,71.5
		c0.82,0.23,0.95-0.3,1.08-0.89c0.22-0.94,0.45-1.88,0.71-2.82c0.14-0.5,0.67-1.05-0.25-1.32c-0.72-0.21-1.45-0.52-1.91,0.5
		c-0.48,1.06-0.41,2.2-0.59,3.45C166.63,71.13,167.19,71.32,167.83,71.5z M182.62,69.45c-0.15,1.52-0.27,2.85-0.42,4.17
		c-0.07,0.61,0.26,0.78,0.77,0.88c0.64,0.13,1.27,0.34,2.05,0.56C185.25,72.71,184.48,71,182.62,69.45z M113.49,44.89
		c-1.28,0.46-2.55,1.07-3.56,2.06c-0.14,0.14-0.19,0.37-0.03,0.55c0.31,0.34,0.74,0.38,1.14,0.31c1.52-0.27,2.96-0.77,4.38-1.61
		C114.73,45.7,114.37,44.57,113.49,44.89z M118.85,44.24c0.32-0.39,0.76-0.83,0.4-1.36c-0.38-0.55-1.02-0.47-1.54-0.25
		c-0.79,0.34-1.54,0.78-2.47,1.26C117,45.58,117.7,45.63,118.85,44.24z M177.52,56.15c-0.03-0.52-0.21-1.1-0.8-1.06
		c-0.58,0.04-0.91,0.55-0.99,1.17c-0.11,0.83,0.56,0.47,0.86,0.6C177.18,56.94,177.55,56.74,177.52,56.15z"/>
	<path class="lt1" d="M32.26,44.3c-0.49,1.28,0.11,2.49,0.25,3.72c0.71,5.98,1.77,11.89,3.22,17.74c0.4,1.63,1.01,2,2.69,1.79
		c4.41-0.56,8.81-0.44,13.19,0.64c5.85,1.43,10.15,5.02,13.87,9.5c1.75,2.11,3.37,4.3,4.39,6.86c0.33,0.82,0.88,0.72,1.47,0.76
		c7.29,0.49,14.59,1,21.88,1.46c12.15,0.77,24.31-0.23,36.46-0.03c1.24,0.02,1.15-0.62,1.14-1.43c-0.01-8.24,0.03-16.47,0.35-24.7
		c0.13-3.25,0.28-6.49,1.93-9.42c0.29-0.51,0.16-0.97,0.05-1.48c-1.49-6.94-2.96-13.88-4.45-20.81c-0.1-0.46,0.03-1.2-0.75-1.09
		c-0.87,0.12-0.39,0.8-0.33,1.23c1,7.24,2.01,14.47,3.07,21.7c0.11,0.75-0.1,1.34-0.46,1.88c-2.1,3.05-2.58,6.5-2.76,10.1
		c-0.23,4.73-0.63,9.45-0.99,14.17c-0.3,3.91-1.78,5.36-5.67,5.66c-0.72,0.06-1.43,0.15-2.15,0.17c-9.73,0.23-19.46,0.72-29.19,0.05
		c-2.98-0.2-5.95-0.44-8.82-1.39c-1-0.33-1.5-0.92-1.75-1.92c-1.75-6.92-2.08-13.93-1.31-20.99c0.18-1.63-0.3-2.05-1.82-2.19
		c-7.75-0.71-15.43-1.88-22.99-3.76c-5.8-1.44-11.45-3.34-16.86-5.89c-1.31-0.62-2.54-1.36-3.66-2.27L32.26,44.3z"/>
	<path class="lt2" d="M124.8,55.49c-2.64-2.65-5.08-5.08-7.49-7.54c-0.52-0.53-0.93-0.19-1.38-0.02c-1.82,0.69-3.59,1.56-5.63,1.45
		c-1.05-0.06-2-0.31-2.39-1.36c-0.37-0.97,0.29-1.7,0.96-2.27c2.95-2.49,6.23-4.37,10.13-4.94c0.97-0.14,2.05-0.26,2.6,0.82
		c0.53,1.04,0.06,2-0.54,2.88c-0.11,0.17-0.28,0.3-0.43,0.44c-0.67,0.61-2.07,0.95-1.97,1.7c0.1,0.76,1.23,1.41,1.93,2.07
		c1.81,1.69,3.66,3.33,5.44,5.05c0.66,0.64,1.03,0.58,1.53-0.15c0.7-1.03,0.95-2.15,0.92-3.36c-0.11-5.05-0.96-10.04-1.45-15.05
		c-0.21-2.15-0.56-4.29-0.76-6.44c-0.08-0.93-0.32-1.32-1.37-1.33c-13.29-0.19-26.57-0.44-39.86-0.67
		c-4.63-0.08-9.27-0.17-13.9-0.29c-0.64-0.02-1.06,0.09-1.34,0.73c-1.94,4.48-3.88,8.95-5.88,13.4c-0.42,0.93,0.3,1.09,0.74,1.4
		c2.95,2.04,5.59,4.39,7.67,7.32c0.71,1,1.31,2.09,1.93,3.16c0.26,0.45,0.47,0.83,1.08,0.96c2.03,0.43,2.03,0.47,2.21-1.67
		c0.15-1.74-0.2-3.49,0.04-5.24c0.3-2.3,1.28-3.57,3.51-4.12c3.2-0.79,6.42-1.38,9.76-0.75c2.34,0.44,4.4,1.32,6.2,2.89
		c1.55,1.35,3.13,2.68,4.81,3.87c4.05,2.89,8.87,3.47,13.6,4.05c2.06,0.25,3.7,0.7,4.66,2.63c0.23,0.47,0.56,0.68,1.1,0.64
		C122.29,55.63,123.37,55.58,124.8,55.49z"/>
	<path class="lt3" d="M97.33,80.34c-4.27-0.03-8.55,0.04-12.8-0.61c-1.69-0.26-2.81-1.21-3.46-2.73c-0.57-1.33-0.89-2.76-0.94-4.2
		c-0.17-5.04-0.24-10.09-0.38-15.13c-0.02-0.86,0.15-1.06,1.11-0.99c6.16,0.45,12.3,1.24,18.48,1.33c8.3,0.12,16.59,0.27,24.88-0.32
		c1.03-0.07,1.38,0.06,1.21,1.29c-0.76,5.56-1.39,11.13-1.75,16.73c-0.24,3.69-1.19,4.6-4.87,4.62c-5,0.02-10,0.01-15,0.01
		C101.65,80.34,99.49,80.36,97.33,80.34z M88.69,63.31c0.56-0.2,0.83-0.62,0.75-1.2c-0.1-0.67-0.69-0.52-1.11-0.49
		c-1.64,0.1-3.27,0.35-4.9-0.17c-0.5-0.16-1.19-0.42-1.4,0.41c-0.21,0.81,0.14,1.47,0.92,1.71c0.78,0.24,1.61,0.3,2.42,0.44
		C86.54,64.01,87.62,63.69,88.69,63.31z"/>
	<path class="lt4" d="M133.69,71.4c0-4.22-0.01-8.43,0.01-12.65c0-0.74-0.35-1.87,0.25-2.15c0.8-0.37,1.54,0.56,2.22,1.07
		c1.47,1.12,2.74,2.54,4.57,3.08c0.73,0.21,1.02,0.43,0.93,1.23c-0.14,1.25,0.5,1.8,1.77,1.98c5.81,0.81,11.68,1.12,17.5,1.82
		c1.22,0.15,2.93-0.16,3.55,0.52c0.72,0.79-0.11,2.39-0.2,3.64c-0.01,0.1-0.03,0.21-0.03,0.31c0.03,0.6-0.27,0.84-0.85,0.77
		c-2.54-0.28-4.71,0.81-6.85,1.92c-4.4,2.26-8.26,5.29-11.52,8.94c-2.82,3.16-5.89,5.09-10.24,4.41c-0.05-0.01-0.11-0.01-0.15,0
		c-1.24,0.38-1.44-0.21-1.43-1.32c0.05-4.52,0.02-9.05,0.02-13.58C133.39,71.4,133.54,71.4,133.69,71.4z M136.71,62.85
		c1.05-0.01,2.1,0.4,3.15,0.63c0.47,0.1,0.8-0.07,0.96-0.53c0.16-0.48-0.24-0.65-0.54-0.79c-1.27-0.6-2.23-1.61-3.34-2.42
		c-0.52-0.38-0.94-1.16-1.67-0.81c-0.63,0.3-0.22,1.11-0.37,1.56C134.84,61.88,134.99,62.87,136.71,62.85z"/>
	<path class="lt5" d="M83.18,10.61c-6.99,0.31-13.18-0.01-19.32-0.6c-4.99-0.48-9.71,0.37-14.49,1.49
		c-6.21,1.46-12.45,2.83-18.67,4.23c-1.89,0.43-2.44,1.07-2.2,3c0.89,7.35,1.83,14.7,2.76,22.05c0.1,0.82,2.02,1.98,2.87,1.78
		c0.67-0.16,0.36-0.62,0.32-0.99c-0.48-3.93-1-7.86-1.43-11.8c-0.42-3.79-0.3-7.6-0.19-11.41c0.03-0.97,0.49-1.23,1.29-1.33
		c6.94-0.94,13.87-1.91,20.81-2.83c4.39-0.58,8.77-1.23,13.18-1.61c7.37-0.63,14.7-0.04,22,1.13c15.28,2.47,30.02,7.09,44.84,11.35
		c1.04,0.3,2.07,0.63,3.12,0.88c0.46,0.11,1.18,0.74,1.38-0.03c0.17-0.67-0.09-1.44-1.11-1.7c-3.03-0.8-6.03-1.73-9.05-2.59
		c-12.36-3.56-24.72-7.1-37.07-10.67C88.94,10.03,85.64,10.97,83.18,10.61z"/>
	<path class="lt6" d="M137.63,87.95c-3.4,0.26-6.37,0.52-9.35,0.7c-14.1,0.89-28.19,0.7-42.28-0.2c-5.03-0.32-10.06-0.61-15.06-1.26
		c-0.83-0.11-1.15,0-0.86,0.94c0.36,1.17,0.85,2.32,0.89,3.58c0.02,0.82,0.66,0.62,1.14,0.64c5.24,0.23,10.49,0.45,15.73,0.67
		c13.16,0.55,26.33,1,39.49,1.74c1.85,0.1,2.98-0.46,4.23-1.43C133.58,91.76,135.51,90.08,137.63,87.95z"/>
	<path class="lt7" d="M43.61,69.55c-4.55-0.04-8.86,0.87-12.85,3.17c-4.71,2.72-6.98,7.23-9.04,11.94
		c-0.28,0.63,0.05,0.84,0.64,0.82c1.72-0.06,3.22-0.27,4.44-1.88c5.93-7.8,15.27-10.84,24.13-7.59c6.81,2.5,11.17,7.52,12.98,14.58
		c0.29,1.13,0.75,1.41,1.8,1.56c4.03,0.57,4.41,0.19,2.95-3.68c-3.48-9.18-9.55-15.72-19.24-18.44c-0.84-0.24-1.71-0.4-2.58-0.46
		C45.78,69.49,44.69,69.55,43.61,69.55z"/>
	<path class="lt8" d="M153.45,100.54c-0.27-10.63,7.62-19.23,17.86-19.48c10.51-0.25,18.82,7.64,19.17,18.23
		c0.33,9.89-7.99,18.43-18.23,18.71C162.44,118.26,153.69,110.15,153.45,100.54z M172.39,115.21c7.66-0.08,15.41-6.38,15.33-15.36
		c-0.09-9.15-6.95-16.05-16.01-16.01c-8.56,0.03-15.53,7.1-15.5,15.71C156.23,108.42,163.29,115.31,172.39,115.21z"/>
	<path class="lt9" d="M24.73,97.56c-0.29-10.43,7.71-19.04,17.9-19.29c8.93-0.21,18.62,9.01,19,17.81
		c0.47,10.89-8.25,19.24-18.2,19.23C33.62,115.58,25,107.4,24.73,97.56z M43.61,112.53c6.92,0.02,15.51-5.99,15.48-15.3
		c-0.04-9.13-6.94-16.22-15.88-16.17c-8.74,0.04-15.71,7-15.71,15.68C27.49,105.62,34.54,112.51,43.61,112.53z"/>
	<path class="lt10" d="M39.85,44.7c1.85,1.45,3.72,2.22,5.66,2.84c8.15,2.59,16.5,4.28,24.99,5.32c0.96,0.12,1.06,0.04,0.73-0.51
		c-2.72-4.5-5.99-8.44-11.45-9.61c-1.78-0.38-3.69-0.17-5.54-0.15C49.44,42.64,44.8,43.7,39.85,44.7z"/>
	<path class="lt11" d="M127.8,99.06c3.76,0.31,6.76-0.76,9.73-1.96c0.87-0.35,1.34-1.1,1.92-1.75c4.46-5.02,9.41-9.49,14.69-13.65
		c4.74-3.74,10.2-4.9,16-5.16c5.51-0.25,10.71,1.14,15.84,2.94c1.21,0.43,2.44,0.82,3.63,1.28c0.51,0.2,0.89,0.21,1.15-0.33
		c0.31-0.65-0.28-0.64-0.61-0.79c-6.92-3.28-14.21-5.1-21.86-5.51c-0.93-0.05-1.86-0.07-2.78-0.17c-4.16-0.46-7.45,1.48-10.62,3.8
		c-5.49,4.04-10.55,8.57-15.41,13.33C136.17,94.34,132.47,97.07,127.8,99.06z"/>
	<path class="lt12" d="M133.71,28.13c-1.12,0-2.69-0.44-3.24,0.12c-0.63,0.64,0.16,2.1,0.39,3.18c1.14,5.43,2.46,10.81,3.86,16.18
		c0.48,1.84,1.49,2.79,3.14,3.34c1.11,0.37,2.43,1.21,3.35,0.48c0.7-0.56-0.09-1.91-0.26-2.88c-1.14-6.37-2.46-12.72-3.31-19.14
		c-0.13-0.95-0.46-1.36-1.46-1.26c-0.82,0.08-1.65,0.02-2.47,0.02C133.71,28.16,133.71,28.15,133.71,28.13z"/>
	<path class="lt13" d="M117.39,55.65c-1.72-1.24-3.72-1.32-5.67-1.57c-2.55-0.33-5.07-0.78-7.54-1.53
		c-2.62-0.79-4.86-2.11-6.71-4.16c-4.1-4.54-9.27-5.8-15.14-4.74c-1.67,0.3-1.86,0.85-0.91,2.3c1.51,2.29,3.8,3.44,6.36,4
		c4.82,1.05,9.66,1.95,14.5,2.92c1.11,0.22,2.31,0.41,3,1.4c0.88,1.29,2.07,1.44,3.47,1.41C111.63,55.6,114.51,55.65,117.39,55.65z"
		/>
	<path class="lt14" d="M128.75,96.09c-6.43-0.23-12.49-0.45-18.54-0.67c-13.27-0.48-26.54-0.96-39.8-1.44
		c-1.49-0.05-2.98-0.12-4.48-0.12c-0.5,0-1.33-0.45-1.26,0.71c0.05,0.8-0.04,1.44,1.18,1.45c5.82,0.07,11.63,0.24,17.45,0.39
		c11.99,0.31,23.98,0.6,35.97,0.95c1.8,0.05,3.58,0.38,5.39,0.22C126.01,97.46,127.29,97.15,128.75,96.09z"/>
	<path class="lt15" d="M106.6,19.29c-9.24-1.56-18.28-3.26-27.38-4.51c-3.1-0.43-6.35,0.23-9.53,0.44
		c-8.88,0.59-17.77,1.2-26.65,1.8c-0.54,0.04-1.08,0.11-1.65,0.17c0.49,0.58,1.12,0.42,1.69,0.43c4.02,0.03,8.04,0.05,12.05,0.07
		c10.77,0.06,21.53-0.03,32.29,0.25c6.25,0.16,12.49,0.89,18.71,1.7C106.21,19.65,106.3,19.53,106.6,19.29z"/>
	<path class="lt16" d="M170.99,63.37c0.42-1.32,0.41-2.63,1.07-3.96c-3.28-0.56-6.43-1.11-9.59-1.63
		c-5.27-0.88-10.54-1.74-15.82-2.62c-1.57-0.26-2.95,0.85-2.99,2.4c-0.02,0.74,0.53,0.49,0.85,0.54c4.01,0.62,8.03,1.21,12.04,1.82
		c3.25,0.49,6.5,1.02,9.75,1.49C168.03,61.65,169.57,62.26,170.99,63.37z"/>
	<path class="lt17" d="M41.39,40.66c3.51,0.99,9.02-0.64,11.12-3.38c1.2-1.57,1.47-3.38,0.6-5.22c-0.8-1.71-2.33-2.2-4.08-2.22
		c-0.54-0.01-0.98,0.11-1.3,0.63c-1.96,3.14-3.94,6.26-5.9,9.39C41.66,40.11,41.53,40.39,41.39,40.66z"/>
	<path class="lt18" d="M103.27,55.4c-1.07-1.02-2.41-1.11-3.69-1.34c-4.95-0.91-10.02-1.14-14.79-2.99
		c-1.53-0.59-2.83-1.6-4.53-2.36c0,1.59,0.01,3.01,0,4.43c0,0.55,0.18,0.84,0.79,0.88c7.29,0.51,14.58,1.05,21.87,1.57
		C102.99,55.58,103.07,55.5,103.27,55.4z"/>
	<path class="lt12" d="M61.46,33.7c0,2.05,0,4.11,0,6.16c0,0.29-0.1,0.67,0.28,0.78c0.41,0.12,0.5-0.29,0.61-0.55
		c1.81-4.18,3.73-8.33,5.13-12.68c0.24-0.75,0.07-1.05-0.73-0.98c-1.64,0.14-3.27,0.3-4.92,0.38c-0.82,0.04-0.7,0.5-0.7,1.04
		c0.02,1.95,0.01,3.9,0.01,5.85C61.25,33.7,61.36,33.7,61.46,33.7z"/>
	<path class="lt19" d="M165.79,63.03c-6.74-1.08-13.44-2.13-20.13-3.25c-1.23-0.21-1.4,0.44-1.51,1.34
		c-0.11,0.93-0.04,1.45,1.2,1.46c5.15,0.07,10.21,1.08,15.3,1.74c0.71,0.09,1.45,0.07,2.14,0.24
		C164.18,64.91,165.18,64.57,165.79,63.03z"/>
	<path class="lt20" d="M45.05,29.91c-2.8,0.26-5.18,0.8-7.21,2.38c-1.3,1.02-2.05,2.28-1.71,4.01c0.22,1.11,0.4,2.23,0.57,3.34
		c0.09,0.56,0.47,0.75,0.95,0.85c0.5,0.11,0.76-0.18,0.99-0.55C40.72,36.71,42.79,33.46,45.05,29.91z"/>
	<path class="lt12" d="M184.33,81.89c7.59,7.7,8.97,10.57,9.11,18.7C197.01,93.99,192.36,83.28,184.33,81.89z"/>
	<path class="lt12" d="M62.93,105.56c3.74-1.54,5.98-4.11,7.66-7.6c-1.85-0.1-3.55-0.19-5.26-0.28c-0.36-0.02-0.6,0.09-0.63,0.48
		C64.51,100.61,63.78,102.94,62.93,105.56z"/>
	<path class="lt21" d="M179.74,73.52c0.14-3.37,1.99-6.65-0.22-10.08c-1.79,2.55-3.04,5.22-3.13,8.36
		c-0.02,0.67,0.26,1.02,0.96,1.14C178.1,73.05,178.84,73.29,179.74,73.52z"/>
	<path class="lt22" d="M175.66,58.64c-0.65-0.17-0.92,0.3-1.22,0.82c-0.93,1.63-0.95,3.47-1.06,5.23c-0.06,0.95,1.36,0.69,2.09,1.01
		c0.64,0.28,0.77-0.25,0.85-0.73c0.24-1.32,0.71-2.56,1.17-3.81C178.08,59.56,177.45,58.69,175.66,58.64z"/>
	<path class="lt23" d="M141.66,58.44c-0.06-1.16,0.16-2.16,0.5-3.12c0.25-0.69,0.02-0.9-0.66-0.96c-1.9-0.18-3.72-0.74-5.42-1.57
		c-0.85-0.41-1.02,0.01-1.34,0.59c-0.41,0.74,0.07,0.81,0.58,1.03c1.61,0.69,3,1.74,4.35,2.84
		C140.23,57.69,140.76,58.18,141.66,58.44z"/>
	<path class="lt24" d="M171.16,71.05c-0.14,0.53,0,0.93,0.81,0.94c0.5,0,1.01,0.14,1.51,0.24c0.67,0.13,1.03,0,1.04-0.81
		c0.02-1.07,0.13-2.15,0.32-3.2c0.2-1.13-0.68-1.22-1.32-1.51c-0.7-0.32-1.28-0.12-1.63,0.62C171.36,68.46,171.36,69.7,171.16,71.05
		z"/>
	<path class="lt25" d="M187.54,71.87c0.16,1.59,0.99,2.25,2.17,2.58c1.58,0.44,3.15,0.87,4.49,1.9c0.39,0.3,0.74,0.5,1.13-0.09
		c0.36-0.55,0.12-0.83-0.26-1.15C192.9,73.34,190.33,72.6,187.54,71.87z"/>
	<path class="lt26" d="M166.86,70.44c-0.23,0.69,0.33,0.89,0.97,1.07c0.82,0.23,0.95-0.3,1.08-0.89c0.22-0.94,0.45-1.88,0.71-2.82
		c0.14-0.5,0.67-1.05-0.25-1.32c-0.72-0.21-1.45-0.52-1.91,0.5C166.97,68.05,167.05,69.18,166.86,70.44z"/>
	<path class="lt27" d="M185.02,75.07c0.23-2.36-0.54-4.07-2.4-5.61c-0.15,1.52-0.27,2.85-0.42,4.17c-0.07,0.61,0.26,0.78,0.77,0.88
		C183.62,74.64,184.25,74.85,185.02,75.07z"/>
	<path class="lt12" d="M115.43,46.2c-0.69-0.5-1.06-1.62-1.94-1.31c-1.28,0.46-2.55,1.07-3.56,2.06c-0.14,0.14-0.19,0.37-0.03,0.55
		c0.31,0.34,0.74,0.38,1.14,0.31C112.57,47.54,114.01,47.04,115.43,46.2z"/>
	<path class="lt12" d="M115.24,43.9c1.76,1.68,2.46,1.73,3.61,0.34c0.32-0.39,0.76-0.83,0.4-1.36c-0.38-0.55-1.02-0.47-1.54-0.25
		C116.91,42.98,116.16,43.42,115.24,43.9z"/>
	<path class="lt20" d="M176.59,56.87c0.59,0.07,0.96-0.12,0.93-0.71c-0.03-0.52-0.21-1.1-0.8-1.06c-0.58,0.04-0.91,0.55-0.99,1.17
		C175.63,57.1,176.3,56.73,176.59,56.87z"/>
	<path class="lt2" d="M23.9,88.08c0.06-0.07,0.13-0.13,0.19-0.2c-0.13-0.01-0.27-0.03-0.4-0.04C23.76,87.92,23.83,88,23.9,88.08z"/>
	<path class="lt2" d="M32.25,44.35c-0.08,0.02-0.16,0.04-0.24,0.05c0.03,0.03,0.06,0.06,0.09,0.1c0.05-0.06,0.11-0.12,0.17-0.19
		C32.26,44.3,32.25,44.35,32.25,44.35z"/>
	<path class="lt0" d="M85.38,64.01c1.17,0,2.25-0.32,3.31-0.7c0.56-0.2,0.83-0.62,0.75-1.2c-0.1-0.67-0.69-0.52-1.11-0.49
		c-1.64,0.1-3.27,0.35-4.9-0.17c-0.5-0.16-1.19-0.42-1.4,0.41c-0.21,0.81,0.14,1.47,0.92,1.71C83.73,63.82,84.57,63.87,85.38,64.01z
		"/>
	<path class="lt0" d="M134.89,60.5c-0.05,1.38,0.1,2.37,1.81,2.36c1.05-0.01,2.1,0.4,3.15,0.63c0.47,0.1,0.8-0.07,0.96-0.53
		c0.16-0.48-0.24-0.65-0.54-0.79c-1.27-0.6-2.23-1.61-3.34-2.42c-0.52-0.38-0.94-1.16-1.67-0.81
		C134.64,59.24,135.05,60.05,134.89,60.5z"/>
	<path id="firstWheel" class="lt0" d="M171.71,83.84c9.06-0.03,15.93,6.86,16.01,16.01c0.08,8.98-7.67,15.28-15.33,15.36
		c-9.1,0.09-16.15-6.79-16.18-15.67C156.17,90.94,163.15,83.87,171.71,83.84z M167.5,99.57c0.04,2.42,2.05,4.4,4.45,4.39
		c2.52-0.01,4.52-2.01,4.49-4.49c-0.03-2.56-1.93-4.42-4.52-4.41C169.39,95.06,167.46,97.04,167.5,99.57z M171.21,88.07
		c0-3.15,0-3.15-3.13-2.24c-4.05,1.17-4.1,1.28-1.93,4.69c0.41,0.65,0.92,1.26,1.21,1.96c0.62,1.47,1.47,1.75,2.92,1.03
		c0.72-0.36,1-0.67,0.95-1.44c-0.06-0.97-0.02-1.95-0.02-2.92C171.21,88.79,171.21,88.43,171.21,88.07z M175.67,105.8
		c1.13,1.66,2.31,3.29,3.36,4.99c0.54,0.86,0.96,0.84,1.67,0.24c1.06-0.91,2.11-1.8,2.94-2.93c0.38-0.52,0.48-0.82-0.2-1.14
		c-2.04-0.97-4.06-2-6.1-2.97c-0.68-0.33-2.13,0.52-2.08,1.19C175.38,105.37,175.52,105.59,175.67,105.8z M161.94,109.65
		c2.09,2.14,2.11,2.13,3.57-0.42c0.66-1.16,1.27-2.35,2.01-3.46c0.53-0.8,0.54-1.31-0.17-2.08c-0.79-0.87-1.27-0.22-1.83,0.09
		c-1.62,0.9-3.21,1.84-4.81,2.76c-0.29,0.17-0.65,0.28-0.77,0.76C160.61,108.09,161.22,108.92,161.94,109.65z M183.79,98.82
		c2.26,0,2.26,0,2.02-2.2c-0.41-3.77-0.87-4.02-4.03-2.2c-0.93,0.54-1.87,1.07-2.79,1.61c-0.63,0.37-1.36,0.53-1.07,1.67
		c0.3,1.17,0.98,1.17,1.87,1.13c0.72-0.03,1.44-0.01,2.15-0.01C182.56,98.82,183.17,98.82,183.79,98.82z M171.22,106.71
		c0.04-0.73-0.32-0.95-0.95-1.13c-0.68-0.2-0.9,0.13-1.18,0.62c-0.96,1.75-1.93,3.5-2.96,5.21c-0.46,0.77-0.36,1.21,0.5,1.47
		c0.05,0.01,0.09,0.04,0.14,0.06c4.19,1.59,4.43,1.42,4.43-3.16C171.21,108.76,171.17,107.73,171.22,106.71z M177.29,95.16
		c2-1.15,4-2.31,6.02-3.43c0.61-0.34,0.52-0.65,0.15-1.07c-0.03-0.04-0.06-0.08-0.1-0.12c-0.93-1.1-1.88-2.68-3.18-2.75
		c-1.39-0.07-1.51,1.94-2.26,2.99c-0.62,0.87-1.08,1.86-1.6,2.8c-0.15,0.26-0.27,0.55-0.43,0.88
		C176.29,94.87,176.42,95.66,177.29,95.16z M172.88,92.46c-0.04,0.67,0.3,0.87,0.84,1.04c0.6,0.19,0.82-0.16,1.06-0.59
		c1.03-1.83,2.05-3.66,3.12-5.46c0.37-0.62,0.39-1.02-0.38-1.23c-0.05-0.01-0.1-0.03-0.15-0.05c-4.16-1.78-4.48-1.55-4.48,3.21
		C172.9,90.41,172.94,91.44,172.88,92.46z M178.99,100.48c-0.7-0.04-0.85,0.38-1.03,0.88c-0.22,0.62,0.18,0.79,0.63,1.01
		c1.85,0.88,3.7,1.76,5.52,2.7c0.78,0.4,1.16,0.2,1.3-0.58c0.19-1.06,0.33-2.12,0.5-3.18c0.1-0.62-0.17-0.82-0.76-0.81
		c-1.03,0.02-2.05,0.01-3.08,0.01C181.04,100.5,180.01,100.54,178.99,100.48z M160.23,93.28c1.84,0.91,3.69,1.82,5.54,2.72
		c0.37,0.18,0.72,0.4,1.06-0.1c0.26-0.37,0.41-0.69,0.14-1.11c-1.22-1.91-2.42-3.82-3.63-5.73c-0.18-0.28-0.39-0.5-0.73-0.2
		c-1.16,1.03-2.13,2.23-2.93,3.56c-0.05,0.09-0.06,0.19-0.1,0.31C159.64,93.09,159.97,93.15,160.23,93.28z M162.18,103.76
		c1.02-0.58,2.04-1.18,3.06-1.75c0.38-0.21,0.7-0.41,0.58-0.94c-0.12-0.53-0.49-0.58-0.93-0.59c-2.1-0.02-4.2-0.04-6.29-0.09
		c-0.82-0.02-0.77,0.45-0.66,0.96C158.26,105.52,158.69,105.75,162.18,103.76z M172.92,111.71c0.01,2.36,0.01,2.36,2.37,1.87
		c3.07-0.63,3.1-0.7,1.45-3.3c-0.85-1.34-1.7-2.69-2.55-4.04c-0.22-0.35-0.42-0.74-0.95-0.54c-0.45,0.17-0.34,0.58-0.35,0.92
		c-0.01,1.03,0,2.05,0,3.08c0.01,0,0.02,0,0.03,0C172.92,110.38,172.92,111.05,172.92,111.71z M164.99,98.87
		c0.32,0,0.62-0.03,0.73-0.41c0.12-0.42-0.06-0.67-0.44-0.86c-1.99-0.97-3.97-1.95-5.94-2.95c-0.58-0.29-0.77,0.04-0.87,0.46
		c-0.24,1-0.42,2.01-0.63,3.02c-0.14,0.68,0.27,0.76,0.8,0.75c1.03-0.01,2.06,0,3.09,0C162.82,98.87,163.9,98.87,164.99,98.87z"/>
	<path id="secondWheel" class="lt0" d="M43.2,81.06c8.95-0.04,15.85,7.04,15.88,16.17c0.04,9.31-8.55,15.32-15.48,15.3
		c-9.07-0.02-16.12-6.91-16.12-15.79C27.48,88.06,34.46,81.1,43.2,81.06z M43.35,92.34c-2.54-0.02-4.61,1.94-4.61,4.39
		c0,2.44,2.05,4.53,4.5,4.56c2.48,0.03,4.45-1.97,4.46-4.52C47.71,94.27,45.83,92.36,43.35,92.34z M55.71,96.04
		c2.36,0,2.36,0,1.8-2.36c-0.93-3.96-1.05-4.01-4.5-2.02c-0.94,0.54-1.88,1.07-2.81,1.62c-0.59,0.35-1.31,0.52-0.96,1.57
		c0.3,0.92,0.65,1.34,1.67,1.21c0.91-0.11,1.85-0.02,2.78-0.02C54.37,96.04,55.04,96.04,55.71,96.04z M39.12,102.38
		c0.51-0.84-0.27-1.06-0.56-1.52c-0.37-0.6-0.79-0.44-1.29-0.14c-1.72,1.03-3.44,2.05-5.2,3.02c-0.69,0.38-0.86,0.69-0.31,1.37
		c1.08,1.32,2.2,2.58,3.76,3.53C36.71,106.54,37.88,104.43,39.12,102.38z M48.39,92.45c2.13-1.12,4.2-2.34,6.3-3.52
		c0.47-0.26,0.31-0.56,0.07-0.87c-0.87-1.15-1.88-2.17-3.09-2.97c-0.33-0.22-0.66-0.35-0.9,0.08c-1.16,2.05-2.31,4.1-3.46,6.16
		c-0.05,0.09-0.07,0.19-0.13,0.36C47.5,92.05,47.75,92.79,48.39,92.45z M50.35,97.7c-0.69-0.04-0.85,0.34-1.03,0.86
		c-0.22,0.62,0.13,0.8,0.59,1.02c1.99,0.95,3.98,1.91,5.95,2.9c0.54,0.27,0.82,0.15,0.95-0.42c0.01-0.05,0.04-0.1,0.05-0.14
		c1.57-3.94,1.37-4.19-3.42-4.19C52.4,97.72,51.37,97.77,50.35,97.7z M30.81,97.72c-1.86,0-1.86,0-1.49,1.9
		c0.65,3.37,0.65,3.37,3.54,1.73c1.25-0.71,2.5-1.43,3.76-2.12c0.4-0.22,0.64-0.45,0.54-0.96c-0.12-0.58-0.53-0.54-0.94-0.54
		c-1.03-0.01-2.06,0-3.09,0C32.36,97.72,31.59,97.72,30.81,97.72z M37.34,108.97c-0.27,0.46-0.21,0.76,0.28,0.97
		c0.24,0.1,0.47,0.23,0.72,0.28c1.37,0.29,2.72,1.24,4.12,0.54c0.67-0.34-0.06-4.68-0.81-5.66c-0.34-0.45-0.68-0.9-1.19-1.59
		C39.36,105.43,38.36,107.21,37.34,108.97z M36.9,89.92c-0.59-0.77-1.06-1.64-1.59-2.46c-1.16-1.82-1.16-1.82-2.64-0.16
		c-2.35,2.63-2.35,2.63,0.83,4.18c1.28,0.62,2.55,1.25,3.84,1.89C37.86,92.03,37.7,90.96,36.9,89.92z M36.21,96.09
		c0.33-0.01,0.75,0.1,0.88-0.39c0.13-0.52-0.18-0.72-0.59-0.92c-1.89-0.92-3.79-1.84-5.65-2.83c-0.64-0.34-0.93-0.22-1.11,0.42
		c-0.03,0.1-0.05,0.2-0.09,0.3c-1.16,3.38-0.94,3.67,2.55,3.46c0.36-0.02,0.72,0,1.08,0c0-0.01,0-0.02,0-0.03
		C34.25,96.09,35.23,96.1,36.21,96.09z M48,102.51c1.54,1.55,3.38,2.6,5.42,3.37c1.23,0.47,1.61-0.46,1.95-1.16
		c0.38-0.78-0.56-0.79-0.97-1c-1.81-0.94-3.68-1.78-5.48-2.75c-0.92-0.5-1.12,0.19-1.62,0.67C47.56,101.97,47.75,102.26,48,102.51z
		 M47.59,83.88c-1.56,1.63-2.53,3.57-3.02,5.75c-0.11,0.49-0.12,0.89,0.47,1.1c0.59,0.2,0.82-0.13,1.07-0.56
		c1.04-1.82,2.06-3.64,3.15-5.43c0.74-1.22-0.49-0.98-0.81-1.32C47.97,83.37,47.8,83.67,47.59,83.88z M39.71,83.06
		c-4.31,0.87-4.58,1.64-1.75,5.29c0.64-1.76,1.14-3.51,2.03-5.15C39.8,83.11,39.75,83.06,39.71,83.06z M47.4,110.51
		c-1.04-0.79-1.99-1.53-3.1-2.38C44.15,111.56,44.15,111.56,47.4,110.51z"/>
	<path class="lt28" d="M176.44,99.46c0.03,2.48-1.97,4.48-4.49,4.49c-2.41,0.01-4.42-1.96-4.45-4.39c-0.04-2.53,1.89-4.51,4.42-4.52
		C174.51,95.05,176.41,96.9,176.44,99.46z M174.43,99.76c0.04-1.2-1.1-2.32-2.38-2.33c-1.28-0.01-2.24,0.92-2.28,2.21
		c-0.03,1.38,0.9,2.4,2.23,2.42C173.26,102.07,174.38,101.01,174.43,99.76z"/>
	<path class="lt12" d="M171.21,89.15c0-0.36,0-0.72,0-1.08c0-3.15,0-3.15-3.13-2.24c-4.05,1.17-4.1,1.28-1.93,4.69
		c0.41,0.65,0.92,1.26,1.21,1.96c0.62,1.47,1.47,1.75,2.92,1.03c0.72-0.36,1-0.67,0.95-1.44C171.16,91.1,171.21,90.12,171.21,89.15z
		"/>
	<path class="lt12" d="M175.26,105.18c0.13,0.19,0.27,0.41,0.41,0.62c1.13,1.66,2.31,3.29,3.36,4.99c0.54,0.86,0.96,0.84,1.67,0.24
		c1.06-0.91,2.11-1.8,2.94-2.93c0.38-0.52,0.48-0.82-0.2-1.14c-2.04-0.97-4.06-2-6.1-2.97C176.65,103.66,175.2,104.51,175.26,105.18
		z"/>
	<path class="lt12" d="M159.94,107.3c0.67,0.79,1.28,1.62,1.99,2.35c2.09,2.14,2.11,2.13,3.57-0.42c0.66-1.16,1.27-2.35,2.01-3.46
		c0.53-0.8,0.54-1.31-0.17-2.08c-0.79-0.87-1.27-0.22-1.83,0.09c-1.62,0.9-3.21,1.84-4.81,2.76
		C160.42,106.71,160.06,106.82,159.94,107.3z"/>
	<path class="lt12" d="M181.94,98.82c0.62,0,1.23,0,1.85,0c2.26,0,2.26,0,2.02-2.2c-0.41-3.77-0.87-4.02-4.03-2.2
		c-0.93,0.54-1.87,1.07-2.79,1.61c-0.63,0.37-1.36,0.53-1.07,1.67c0.3,1.17,0.98,1.17,1.87,1.13
		C180.51,98.79,181.23,98.82,181.94,98.82z"/>
	<path class="lt12" d="M171.21,109.79c0-1.03-0.04-2.05,0.01-3.08c0.04-0.73-0.32-0.95-0.95-1.13c-0.68-0.2-0.9,0.13-1.18,0.62
		c-0.96,1.75-1.93,3.5-2.96,5.21c-0.46,0.77-0.36,1.21,0.5,1.47c0.05,0.01,0.09,0.04,0.14,0.06
		C170.97,114.54,171.21,114.37,171.21,109.79z"/>
	<path class="lt12" d="M175.89,94.48c0.4,0.4,0.53,1.19,1.39,0.69c2-1.15,4-2.31,6.02-3.43c0.61-0.34,0.52-0.65,0.15-1.07
		c-0.03-0.04-0.06-0.08-0.1-0.12c-0.93-1.1-1.88-2.68-3.18-2.75c-1.39-0.07-1.51,1.94-2.26,2.99c-0.62,0.87-1.08,1.86-1.6,2.8
		C176.17,93.86,176.05,94.14,175.89,94.48z"/>
	<path class="lt12" d="M172.9,89.39c0,1.02,0.05,2.05-0.02,3.07c-0.04,0.67,0.3,0.87,0.84,1.04c0.6,0.19,0.82-0.16,1.06-0.59
		c1.03-1.83,2.05-3.66,3.12-5.46c0.37-0.62,0.39-1.02-0.38-1.23c-0.05-0.01-0.1-0.03-0.15-0.05
		C173.21,84.39,172.9,84.62,172.9,89.39z"/>
	<path class="lt12" d="M182.06,100.5c-1.03,0-2.06,0.05-3.08-0.02c-0.7-0.04-0.85,0.38-1.03,0.88c-0.22,0.62,0.18,0.79,0.63,1.01
		c1.85,0.88,3.7,1.76,5.52,2.7c0.78,0.4,1.16,0.2,1.3-0.58c0.19-1.06,0.33-2.12,0.5-3.18c0.1-0.62-0.17-0.82-0.76-0.81
		C184.12,100.51,183.09,100.5,182.06,100.5z"/>
	<path class="lt12" d="M159.59,92.72c0.05,0.37,0.38,0.43,0.64,0.56c1.84,0.91,3.69,1.82,5.54,2.72c0.37,0.18,0.72,0.4,1.06-0.1
		c0.26-0.37,0.41-0.69,0.14-1.11c-1.22-1.91-2.42-3.82-3.63-5.73c-0.18-0.28-0.39-0.5-0.73-0.2c-1.16,1.03-2.13,2.23-2.93,3.56
		C159.64,92.5,159.63,92.61,159.59,92.72z"/>
	<path class="lt12" d="M157.94,101.37c0.32,4.14,0.75,4.38,4.23,2.39c1.02-0.58,2.04-1.18,3.06-1.75c0.38-0.21,0.7-0.41,0.58-0.94
		c-0.12-0.53-0.49-0.58-0.93-0.59c-2.1-0.02-4.2-0.04-6.29-0.09C157.78,100.39,157.83,100.86,157.94,101.37z"/>
	<path class="lt12" d="M172.92,109.71c0,0.67,0,1.34,0,2c0.01,2.36,0.01,2.36,2.37,1.87c3.07-0.63,3.1-0.7,1.45-3.3
		c-0.85-1.34-1.7-2.69-2.55-4.04c-0.22-0.35-0.42-0.74-0.95-0.54c-0.45,0.17-0.34,0.58-0.35,0.92c-0.01,1.03,0,2.05,0,3.08
		C172.91,109.71,172.92,109.71,172.92,109.71z"/>
	<path class="lt12" d="M161.74,98.87c1.08,0,2.17,0,3.25,0c0.32,0,0.62-0.03,0.73-0.41c0.12-0.42-0.06-0.67-0.44-0.86
		c-1.99-0.97-3.97-1.95-5.94-2.95c-0.58-0.29-0.77,0.04-0.87,0.46c-0.24,1-0.42,2.01-0.63,3.02c-0.14,0.68,0.27,0.76,0.8,0.75
		C159.68,98.86,160.71,98.87,161.74,98.87z"/>
	<path class="lt29" d="M43.24,101.29c-2.44-0.03-4.5-2.12-4.5-4.56c0-2.45,2.07-4.41,4.61-4.39c2.48,0.02,4.36,1.94,4.34,4.43
		C47.69,99.32,45.72,101.32,43.24,101.29z M43.43,99.29c1.23-0.02,2.24-1.03,2.25-2.25c0.01-1.28-1.06-2.38-2.31-2.38
		c-1.24,0-2.35,1.13-2.34,2.36C41.03,98.28,42.12,99.31,43.43,99.29z"/>
	<path class="lt12" d="M53.7,96.04c0.67,0,1.34,0,2.01,0c2.36,0,2.36,0,1.8-2.36c-0.93-3.96-1.05-4.01-4.5-2.02
		c-0.94,0.54-1.88,1.07-2.81,1.62c-0.59,0.35-1.31,0.52-0.96,1.57c0.3,0.92,0.65,1.34,1.67,1.21C51.83,95.95,52.77,96.04,53.7,96.04
		z"/>
	<path class="lt12" d="M35.51,108.63c1.2-2.09,2.37-4.2,3.61-6.25c0.51-0.84-0.27-1.06-0.56-1.52c-0.37-0.6-0.79-0.44-1.29-0.14
		c-1.72,1.03-3.44,2.05-5.2,3.02c-0.69,0.38-0.86,0.69-0.31,1.37C32.83,106.42,33.96,107.67,35.51,108.63z"/>
	<path class="lt12" d="M47.18,91.69c0.33,0.36,0.57,1.1,1.21,0.76c2.13-1.12,4.2-2.34,6.3-3.52c0.47-0.26,0.31-0.56,0.07-0.87
		c-0.87-1.15-1.88-2.17-3.09-2.97c-0.33-0.22-0.66-0.35-0.9,0.08c-1.16,2.05-2.31,4.1-3.46,6.16
		C47.26,91.42,47.24,91.52,47.18,91.69z"/>
	<path class="lt12" d="M53.43,97.72c-1.03,0-2.06,0.05-3.08-0.02c-0.69-0.04-0.85,0.34-1.03,0.86c-0.22,0.62,0.13,0.8,0.59,1.02
		c1.99,0.95,3.98,1.91,5.95,2.9c0.54,0.27,0.82,0.15,0.95-0.42c0.01-0.05,0.04-0.1,0.05-0.14C58.42,97.97,58.22,97.72,53.43,97.72z"
		/>
	<path class="lt12" d="M33.13,97.72c-0.77,0-1.54,0-2.32,0c-1.86,0-1.86,0-1.49,1.9c0.65,3.37,0.65,3.37,3.54,1.73
		c1.25-0.71,2.5-1.43,3.76-2.12c0.4-0.22,0.64-0.45,0.54-0.96c-0.12-0.58-0.53-0.54-0.94-0.54C35.19,97.72,34.16,97.72,33.13,97.72z
		"/>
	<path class="lt12" d="M40.45,103.51c-1.09,1.92-2.09,3.69-3.11,5.46c-0.27,0.46-0.21,0.76,0.28,0.97c0.24,0.1,0.47,0.23,0.72,0.28
		c1.37,0.29,2.72,1.24,4.12,0.54c0.67-0.34-0.06-4.68-0.81-5.66C41.3,104.65,40.97,104.2,40.45,103.51z"/>
	<path class="lt12" d="M37.34,93.37c0.51-1.34,0.35-2.41-0.45-3.45c-0.59-0.77-1.06-1.64-1.59-2.46c-1.16-1.82-1.16-1.82-2.64-0.16
		c-2.35,2.63-2.35,2.63,0.83,4.18C34.78,92.1,36.05,92.73,37.34,93.37z"/>
	<path class="lt12" d="M33.27,96.09c0.98,0,1.96,0.01,2.94-0.01c0.33-0.01,0.75,0.1,0.88-0.39c0.13-0.52-0.18-0.72-0.59-0.92
		c-1.89-0.92-3.79-1.84-5.65-2.83c-0.64-0.34-0.93-0.22-1.11,0.42c-0.03,0.1-0.05,0.2-0.09,0.3c-1.16,3.38-0.94,3.67,2.55,3.46
		c0.36-0.02,0.72,0,1.08,0C33.27,96.11,33.27,96.1,33.27,96.09z"/>
	<path class="lt12" d="M47.3,101.64c0.26,0.33,0.45,0.63,0.69,0.87c1.54,1.55,3.38,2.6,5.42,3.37c1.23,0.47,1.61-0.46,1.95-1.16
		c0.38-0.78-0.56-0.79-0.97-1c-1.81-0.94-3.68-1.78-5.48-2.75C48,100.47,47.8,101.16,47.3,101.64z"/>
	<path class="lt12" d="M48.45,83.42c-0.48-0.04-0.65,0.25-0.85,0.46c-1.56,1.63-2.53,3.57-3.02,5.75c-0.11,0.49-0.12,0.89,0.47,1.1
		c0.59,0.2,0.82-0.13,1.07-0.56c1.04-1.82,2.06-3.64,3.15-5.43C49.99,83.52,48.77,83.76,48.45,83.42z"/>
	<path class="lt12" d="M39.99,83.21c-0.19-0.1-0.24-0.15-0.28-0.15c-4.31,0.87-4.58,1.64-1.75,5.29
		C38.6,86.59,39.1,84.85,39.99,83.21z"/>
	<path class="lt12" d="M44.3,108.12c-0.14,3.44-0.14,3.44,3.1,2.38C46.37,109.71,45.41,108.98,44.3,108.12z"/>
	<path class="lt0" d="M171.99,102.05c1.27,0.02,2.39-1.04,2.43-2.29c0.04-1.2-1.1-2.32-2.38-2.33c-1.28-0.01-2.24,0.92-2.28,2.21
		C169.73,101.02,170.67,102.03,171.99,102.05z"/>
	<path class="lt0" d="M41.03,97.02c0.01,1.26,1.09,2.29,2.4,2.27c1.23-0.02,2.24-1.03,2.25-2.25c0.01-1.28-1.06-2.38-2.31-2.38
		C42.14,94.67,41.02,95.79,41.03,97.02z"/>
</g>
</svg>
